<svg viewBox="0 0 22 22"><path fillRule="evenodd" clipRule="evenodd" d="M10.094.305a1.5 1.5 0 0 1 2.351.79l.005.02 1.581 6.135a1 1 0 0 0 .718.719l6.136 1.58.016.005a1.5 1.5 0 0 1 0 2.892l-.016.004-6.135 1.581a1 1 0 0 0-.719.719l-1.582 6.135-.005.02a1.5 1.5 0 0 1-2.889 0l-.005-.02-1.581-6.135a1.001 1.001 0 0 0-.719-.719L1.115 12.45l-.023-.006a1.5 1.5 0 0 1 0-2.886l.023-.006L7.25 7.968a1 1 0 0 0 .719-.718L9.55 1.115l.005-.02a1.5 1.5 0 0 1 .538-.79zM11 3.503l1.095 4.247a3.002 3.002 0 0 0 2.155 2.155L18.498 11l-4.248 1.095a3.001 3.001 0 0 0-2.155 2.155L11 18.497 9.905 14.25a3 3 0 0 0-2.155-2.156L3.504 11 7.75 9.904A3 3 0 0 0 9.905 7.75L11 3.503zM19 1a1 1 0 0 1 1 1v1h1a1 1 0 1 1 0 2h-1v1a1 1 0 1 1-2 0V5h-1a1 1 0 1 1 0-2h1V2a1 1 0 0 1 1-1zM3 15a1 1 0 0 1 1 1 1 1 0 1 1 0 2 1 1 0 1 1-2 0 1 1 0 1 1 0-2 1 1 0 0 1 1-1z"/></svg>
