<svg width="17" height="17" viewBox="0 0 17 17" fill="none" xmlns="http://www.w3.org/2000/svg"><path d="M8.325 16.044a7.6 7.6 0 0 1-3.044-.615 7.88 7.88 0 0 1-2.478-1.668 7.881 7.881 0 0 1-1.668-2.478A7.6 7.6 0 0 1 .52 8.239a7.6 7.6 0 0 1 .615-3.044c.41-.95.966-1.775 1.668-2.478A7.882 7.882 0 0 1 5.281 1.05 7.6 7.6 0 0 1 8.325.434c1.9 0 3.56.595 4.985 1.786 1.425 1.19 2.313 2.682 2.664 4.478h-1.6a6.279 6.279 0 0 0-1.337-2.547 6.073 6.073 0 0 0-2.37-1.688v.313c0 .429-.153.796-.46 1.102a1.503 1.503 0 0 1-1.102.459h-1.56v1.56a.755.755 0 0 1-.225.557.755.755 0 0 1-.556.224H5.203V8.24h1.56v2.341h-.78L2.237 6.835c-.039.234-.075.469-.107.703a5.1 5.1 0 0 0-.049.702c0 1.704.598 3.168 1.795 4.39 1.197 1.223 2.68 1.841 4.449 1.854v1.561Zm7.102-.39-2.497-2.498a4.869 4.869 0 0 1-.878.39 3.126 3.126 0 0 1-.995.157c-.976 0-1.805-.342-2.488-1.025-.683-.683-1.025-1.512-1.025-2.488 0-.975.342-1.805 1.025-2.487.683-.683 1.512-1.025 2.488-1.025.975 0 1.804.342 2.487 1.024.683.683 1.025 1.513 1.025 2.488 0 .351-.052.683-.156.995a4.869 4.869 0 0 1-.39.878l2.497 2.498-1.093 1.093Zm-4.37-3.512c.546 0 1.008-.19 1.385-.566.377-.378.566-.84.566-1.386 0-.546-.189-1.008-.566-1.385a1.884 1.884 0 0 0-1.385-.566c-.547 0-1.008.189-1.386.566a1.884 1.884 0 0 0-.566 1.385c0 .547.189 1.008.566 1.386.378.377.84.566 1.386.566Z" fill="#1D212A" fill-opacity=".9"/></svg>