<svg width="33" height="33" viewBox="0 0 33 33" fill="none" xmlns="http://www.w3.org/2000/svg"><rect x=".618" y=".718" width="32" height="32" rx="10.568" fill="#fff"/><rect x=".618" y=".718" width="32" height="32" rx="10.568" fill="url(#paint0_linear_11347_30928)"/><g filter="url(#filter0_d_11347_30928)" fill="#fff"><path fill-rule="evenodd" clip-rule="evenodd" d="M16.61 18.913a5.25 5.25 0 0 0-.228-1.54 5.455 5.455 0 0 0-.398-.96 5.25 5.25 0 0 0-.927-1.25 5.318 5.318 0 0 0-2.972-1.496 5.484 5.484 0 0 0-.779-.058 5.25 5.25 0 0 0-1.54.229 5.358 5.358 0 0 0-1.406.665 5.288 5.288 0 0 0-1.953 2.38 5.276 5.276 0 0 0-.398 2.29 5.306 5.306 0 0 0 5.037 5.037c.087.004.174.006.26.006h8.486v-5.303H16.61Z"/><path d="M19.791 24.216a7.425 7.425 0 1 0 0-14.85 7.425 7.425 0 0 0 0 14.85Z"/></g><defs><linearGradient id="paint0_linear_11347_30928" x1="4.126" y1="29.682" x2="39.046" y2="-5.32" gradientUnits="userSpaceOnUse"><stop offset=".248" stop-color="#FF4759"/><stop offset="1" stop-color="#FFD600"/></linearGradient><filter id="filter0_d_11347_30928" x="4.371" y="8.061" width="24.477" height="18.113" filterUnits="userSpaceOnUse" color-interpolation-filters="sRGB"><feFlood flood-opacity="0" result="BackgroundImageFix"/><feColorMatrix in="SourceAlpha" values="0 0 0 0 0 0 0 0 0 0 0 0 0 0 0 0 0 0 127 0" result="hardAlpha"/><feOffset dy=".326"/><feGaussianBlur stdDeviation=".816"/><feComposite in2="hardAlpha" operator="out"/><feColorMatrix values="0 0 0 0 0 0 0 0 0 0 0 0 0 0 0 0 0 0 0.1 0"/><feBlend in2="BackgroundImageFix" result="effect1_dropShadow_11347_30928"/><feBlend in="SourceGraphic" in2="effect1_dropShadow_11347_30928" result="shape"/></filter></defs></svg>