<svg width="15" height="17" viewBox="0 0 15 17" fill="none" xmlns="http://www.w3.org/2000/svg"><path d="M3.52 1.3H9.312l4.908 4.907V13.6a2.7 2.7 0 0 1-2.7 2.7h-8a2.7 2.7 0 0 1-2.7-2.7V4a2.7 2.7 0 0 1 2.7-2.7Z" fill="#F2F7FF" stroke="#1D7AFF"/><path d="M14.72 6.2 9.32.8v2.793c0 1.44 1.128 2.607 2.52 2.607h2.88Z" fill="#1D7AFF"/><path fill-rule="evenodd" clip-rule="evenodd" d="M7.31 6.519 3.82 8.735v.86h6.982v-.86L7.31 6.52Zm1.75 5.715h.876v-2.188H9.06v2.188Zm-2.187 0h.875v-2.188h-.875v2.188Zm-2.187 0h.875v-2.188h-.875v2.188Zm-.866 1.312h6.982v-.875H3.82v.875Z" fill="#1D7AFF"/></svg>