<svg width="33" height="33" viewBox="0 0 33 33" fill="none" xmlns="http://www.w3.org/2000/svg"><rect x=".582" y=".718" width="32" height="32" rx="10.568" fill="#fff"/><rect x=".582" y=".718" width="32" height="32" rx="10.568" fill="url(#paint0_linear_11347_30933)"/><g filter="url(#filter0_d_11347_30933)"><path fill-rule="evenodd" clip-rule="evenodd" d="M7.167 12.492a3.048 3.048 0 0 0-1.2 2.423v8.7a3.658 3.658 0 0 0 3.658 3.658h13.897a3.658 3.658 0 0 0 3.658-3.658v-8.7c0-.95-.444-1.847-1.2-2.423l-7.558-5.765a3.048 3.048 0 0 0-3.697 0l-7.558 5.764Zm1.157 2.07v9.18c0 .674.546 1.22 1.22 1.22h14.06a1.22 1.22 0 0 0 1.22-1.22v-9.18l-6.852 4.798a2.439 2.439 0 0 1-2.797 0l-6.851-4.798Z" fill="#fff"/></g><defs><linearGradient id="paint0_linear_11347_30933" x1="5.069" y1="29.356" x2="31.831" y2="2.268" gradientUnits="userSpaceOnUse"><stop stop-color="#1E91FF"/><stop offset=".997" stop-color="#2ED9FF"/></linearGradient><filter id="filter0_d_11347_30933" x="4.335" y="4.797" width="24.477" height="24.433" filterUnits="userSpaceOnUse" color-interpolation-filters="sRGB"><feFlood flood-opacity="0" result="BackgroundImageFix"/><feColorMatrix in="SourceAlpha" values="0 0 0 0 0 0 0 0 0 0 0 0 0 0 0 0 0 0 127 0" result="hardAlpha"/><feOffset dy=".326"/><feGaussianBlur stdDeviation=".816"/><feComposite in2="hardAlpha" operator="out"/><feColorMatrix values="0 0 0 0 0 0 0 0 0 0 0 0 0 0 0 0 0 0 0.1 0"/><feBlend in2="BackgroundImageFix" result="effect1_dropShadow_11347_30933"/><feBlend in="SourceGraphic" in2="effect1_dropShadow_11347_30933" result="shape"/></filter></defs></svg>