<svg width="33" height="33" viewBox="0 0 33 33" fill="none" xmlns="http://www.w3.org/2000/svg"><rect x=".718" y=".718" width="32" height="32" rx="10.568" fill="#fff"/><rect x=".718" y=".718" width="32" height="32" rx="10.568" fill="url(#paint0_linear_11347_30909)"/><g filter="url(#filter0_d_11347_30909)"><path fill-rule="evenodd" clip-rule="evenodd" d="M16.71 6.43c-1.434 0-2.628.913-2.886 2.12h-1.847a4.569 4.569 0 0 0-4.569 4.57v9.464a4.569 4.569 0 0 0 4.57 4.569h9.464a4.569 4.569 0 0 0 4.569-4.57V13.12a4.569 4.569 0 0 0-4.57-4.57h-1.846c-.258-1.207-1.451-2.12-2.885-2.12Zm2.266 6.823c.51-.51 1.337-.51 1.846 0l.347.346c.51.51.51 1.337 0 1.846l-.577.577-2.193-2.192.577-.577Zm-1.269 1.27 2.192 2.192-6.135 6.135a.326.326 0 0 1-.23.095h-1.731a.326.326 0 0 1-.327-.326v-1.73c0-.087.035-.17.096-.231l6.135-6.136Z" fill="#fff"/></g><defs><linearGradient id="paint0_linear_11347_30909" x1="6.266" y1="29.845" x2="30.906" y2="2.676" gradientUnits="userSpaceOnUse"><stop offset=".23" stop-color="#FFB81E"/><stop offset="1" stop-color="#FFE098"/></linearGradient><filter id="filter0_d_11347_30909" x="5.777" y="5.124" width="21.866" height="23.987" filterUnits="userSpaceOnUse" color-interpolation-filters="sRGB"><feFlood flood-opacity="0" result="BackgroundImageFix"/><feColorMatrix in="SourceAlpha" values="0 0 0 0 0 0 0 0 0 0 0 0 0 0 0 0 0 0 127 0" result="hardAlpha"/><feOffset dy=".326"/><feGaussianBlur stdDeviation=".816"/><feComposite in2="hardAlpha" operator="out"/><feColorMatrix values="0 0 0 0 0 0 0 0 0 0 0 0 0 0 0 0 0 0 0.1 0"/><feBlend in2="BackgroundImageFix" result="effect1_dropShadow_11347_30909"/><feBlend in="SourceGraphic" in2="effect1_dropShadow_11347_30909" result="shape"/></filter></defs></svg>