<svg width="16" height="16" viewBox="0 0 16 16" fill="none" xmlns="http://www.w3.org/2000/svg"><g clip-path="url(#clip0_11291_1044)"><path d="M10.716 0H5.284A5.284 5.284 0 0 0 0 5.284v5.432A5.284 5.284 0 0 0 5.284 16h5.432A5.284 5.284 0 0 0 16 10.716V5.284A5.284 5.284 0 0 0 10.716 0Z" fill="url(#paint0_linear_11291_1044)"/><g filter="url(#filter0_d_11291_1044)" fill="#fff"><path d="M5.5 5A1.5 1.5 0 0 1 7 3.5h5A1.5 1.5 0 0 1 13.5 5v3A1.5 1.5 0 0 1 12 9.5h-.25V8A2.75 2.75 0 0 0 9 5.25H5.5V5Z"/><path d="M4 6.5A1.5 1.5 0 0 0 2.5 8v3A1.5 1.5 0 0 0 4 12.5h5a1.5 1.5 0 0 0 1.5-1.5V8A1.5 1.5 0 0 0 9 6.5H4Z"/></g></g><defs><linearGradient id="paint0_linear_11291_1044" x1="2.162" y1="14.686" x2="15.012" y2="0" gradientUnits="userSpaceOnUse"><stop stop-color="#E97C00"/><stop offset="1" stop-color="#FFD900"/></linearGradient><clipPath id="clip0_11291_1044"><path fill="#fff" d="M0 0h16v16H0z"/></clipPath><filter id="filter0_d_11291_1044" x="1.079" y="2.363" width="13.843" height="11.843" filterUnits="userSpaceOnUse" color-interpolation-filters="sRGB"><feFlood flood-opacity="0" result="BackgroundImageFix"/><feColorMatrix in="SourceAlpha" values="0 0 0 0 0 0 0 0 0 0 0 0 0 0 0 0 0 0 127 0" result="hardAlpha"/><feOffset dy=".284"/><feGaussianBlur stdDeviation=".711"/><feComposite in2="hardAlpha" operator="out"/><feColorMatrix values="0 0 0 0 0 0 0 0 0 0 0 0 0 0 0 0 0 0 0.1 0"/><feBlend in2="BackgroundImageFix" result="effect1_dropShadow_11291_1044"/><feBlend in="SourceGraphic" in2="effect1_dropShadow_11291_1044" result="shape"/></filter></defs></svg>