<svg width="440" height="138" viewBox="0 0 440 138" fill="none" xmlns="http://www.w3.org/2000/svg"><path d="M51.78 137.863c-21.07 0-39.294-8.352-50.874-28.664l22.97-14.617c6.834 13.668 17.844 19.553 29.423 19.553 12.34 0 19.933-6.075 19.933-15.187 0-13.288-14.048-17.464-30.373-21.64-20.502-5.316-33.6-17.275-33.6-37.397C9.259 15.992 28.052.237 56.147.237c20.691 0 33.98 9.111 43.85 24.678L77.219 38.962c-6.454-10.25-12.529-14.997-22.4-14.997-10.63 0-18.413 5.695-18.413 14.617 0 9.871 9.491 13.099 21.07 16.705 15.567 4.936 42.902 11.77 42.902 42.143 0 24.108-18.413 40.433-48.596 40.433Z" fill="url(#paint0_linear_59617_306)"/><path d="M147.626 135.396c-19.553 0-30.183-9.112-30.183-30.563V58.514h-13.858v-21.83h13.858V16.752l25.627-2.658v22.59h20.881v21.83H143.07v44.99c0 6.265 3.037 9.112 7.973 9.112h10.63v22.78h-14.047Z" fill="url(#paint1_linear_59617_306)"/><path d="M218.708 137.863c-30.562 0-52.583-23.159-52.583-51.633 0-28.475 22.021-51.824 52.583-51.824 30.563 0 52.583 23.35 52.583 51.824 0 28.474-22.02 51.633-52.583 51.633ZM191.752 86.23c0 15.376 10.631 28.284 26.956 28.284 16.326 0 26.956-12.908 26.956-28.284 0-15.377-10.63-28.475-26.956-28.475-16.325 0-26.956 13.098-26.956 28.475Z" fill="url(#paint2_linear_59617_306)"/><path d="M282.634 135.396V36.684h24.867v18.793c3.417-14.237 13.478-22.02 30.563-21.071v24.108h-3.607c-14.807 0-26.196 9.872-26.196 26.387v50.495h-25.627Z" fill="url(#paint3_linear_59617_306)"/><path d="M389.038 137.863c-30.563 0-51.064-23.159-51.064-51.633 0-28.475 21.45-52.014 51.064-52.014 29.613 0 50.115 23.54 50.115 52.014 0 2.847-.19 5.884-.759 9.111H364.55c2.847 11.58 11.579 19.743 24.488 19.743 11.01 0 19.552-5.695 24.108-13.288l19.932 14.996c-7.972 12.339-24.488 21.071-44.04 21.071ZM364.55 76.169h48.786c-2.847-11.01-12.149-19.932-24.678-19.932-12.149 0-21.261 8.162-24.108 19.932Z" fill="url(#paint4_linear_59617_306)"/><defs><linearGradient id="paint0_linear_59617_306" x1="417.866" y1="296.396" x2="48.603" y2="-221.128" gradientUnits="userSpaceOnUse"><stop offset=".45" stop-color="#3D74FE"/><stop offset="1" stop-color="#91CFFF"/></linearGradient><linearGradient id="paint1_linear_59617_306" x1="417.866" y1="296.396" x2="48.603" y2="-221.128" gradientUnits="userSpaceOnUse"><stop offset=".45" stop-color="#3D74FE"/><stop offset="1" stop-color="#91CFFF"/></linearGradient><linearGradient id="paint2_linear_59617_306" x1="417.866" y1="296.396" x2="48.603" y2="-221.128" gradientUnits="userSpaceOnUse"><stop offset=".45" stop-color="#3D74FE"/><stop offset="1" stop-color="#91CFFF"/></linearGradient><linearGradient id="paint3_linear_59617_306" x1="417.866" y1="296.396" x2="48.603" y2="-221.128" gradientUnits="userSpaceOnUse"><stop offset=".45" stop-color="#3D74FE"/><stop offset="1" stop-color="#91CFFF"/></linearGradient><linearGradient id="paint4_linear_59617_306" x1="417.866" y1="296.396" x2="48.603" y2="-221.128" gradientUnits="userSpaceOnUse"><stop offset=".45" stop-color="#3D74FE"/><stop offset="1" stop-color="#91CFFF"/></linearGradient></defs></svg>