<svg width="16" height="16" viewBox="0 0 16 16" fill="none" xmlns="http://www.w3.org/2000/svg"><rect width="16" height="16" rx="5.284" fill="#fff"/><rect width="16" height="16" rx="5.284" fill="url(#paint0_linear_11291_1430)"/><g filter="url(#filter0_d_11291_1430)"><path fill-rule="evenodd" clip-rule="evenodd" d="M13.796 5.66a1.387 1.387 0 0 1-.578 1.64v3.633a2.284 2.284 0 0 1-2.285 2.284H5.14a2.284 2.284 0 0 1-2.284-2.284V7.296a1.387 1.387 0 0 1-.573-1.636l.658-1.877c.195-.556.72-.928 1.309-.928H11.829c.59 0 1.114.372 1.309.928l.658 1.877Zm-3.871.959c-.134.177-.331.266-.59.266a.635.635 0 0 1-.49-.223.758.758 0 0 1-.201-.525v-2.13h1.123l.316 2.015a.786.786 0 0 1-.158.597Zm-2.641.043a.706.706 0 0 1-.54.223c-.22 0-.4-.086-.54-.259a.73.73 0 0 1-.15-.604l.316-2.015h1.123v2.13c0 .201-.07.376-.209.525Zm-2.648.036a.633.633 0 0 1-.453.187c-.279 0-.478-.11-.598-.33-.12-.221-.15-.428-.093-.62l.576-1.928H5.19l-.317 2.216a.804.804 0 0 1-.237.475Zm7.923-.144c-.125.22-.327.331-.605.331a.633.633 0 0 1-.453-.187.804.804 0 0 1-.238-.475l-.316-2.216h1.093l.605 1.928c.067.192.038.399-.086.62Z" fill="#fff"/></g><defs><linearGradient id="paint0_linear_11291_1430" x1="2.774" y1="14.564" x2="15.094" y2=".979" gradientUnits="userSpaceOnUse"><stop offset=".23" stop-color="#3D74FE"/><stop offset="1" stop-color="#91CFFF"/></linearGradient><filter id="filter0_d_11291_1430" x="1.387" y="2.203" width="13.304" height="11.993" filterUnits="userSpaceOnUse" color-interpolation-filters="sRGB"><feFlood flood-opacity="0" result="BackgroundImageFix"/><feColorMatrix in="SourceAlpha" values="0 0 0 0 0 0 0 0 0 0 0 0 0 0 0 0 0 0 127 0" result="hardAlpha"/><feOffset dy=".163"/><feGaussianBlur stdDeviation=".408"/><feComposite in2="hardAlpha" operator="out"/><feColorMatrix values="0 0 0 0 0 0 0 0 0 0 0 0 0 0 0 0 0 0 0.1 0"/><feBlend in2="BackgroundImageFix" result="effect1_dropShadow_11291_1430"/><feBlend in="SourceGraphic" in2="effect1_dropShadow_11291_1430" result="shape"/></filter></defs></svg>