<svg width="22" height="22" viewBox="0 0 22 22" fill="none" xmlns="http://www.w3.org/2000/svg"><rect x=".498" y=".495" width="21.51" height="21.51" rx="6.563" fill="#fff"/><rect x=".498" y=".495" width="21.51" height="21.51" rx="6.563" fill="url(#paint0_linear_1573_14803)"/><rect x=".498" y=".495" width="21.51" height="21.51" rx="6.563" fill="url(#paint1_linear_1573_14803)"/><rect x=".498" y=".495" width="21.51" height="21.51" rx="6.563" fill="url(#paint2_linear_1573_14803)"/><path d="M11.281 3.7c.008.006.017.01.027.012l.014.002a.405.405 0 0 1 .156.05c.015.007.03.016.044.024l1.068.605 1.25.707.906.512.056.032a.487.487 0 0 1 .229.363l.002.1v3.145a.489.489 0 0 1-.71.401c-.017-.008-.034-.018-.05-.027l-1.606-.909-1.138-.642-.056-.032a.542.542 0 0 0-.178-.051h-.058a.462.462 0 0 0-.213.053c-.02.01-.038.021-.056.032l-1.215.696-1.458.835a3.52 3.52 0 0 1-.063.036.533.533 0 0 1-.176.058l-.07.002a.433.433 0 0 1-.195-.046.48.48 0 0 1-.283-.433V6.05a.483.483 0 0 1 .224-.404l.05-.029.86-.493 1.021-.585 1.033-.59.256-.147.056-.032a.553.553 0 0 1 .107-.044.53.53 0 0 1 .071-.013.048.048 0 0 0 .025-.012l.07-.002ZM3.767 12.474a.036.036 0 0 0 .026-.032.487.487 0 0 1 .27-.389l.652-.376 1.455-.84.566-.326.063-.036a.49.49 0 0 1 .702.418v3.209a.49.49 0 0 0 .213.394c.022.015.045.028.068.04l.62.348 1.278.714.792.442.062.035c.11.064.188.168.22.29a.463.463 0 0 1 .013.192.476.476 0 0 1-.224.35c-.02.013-.042.024-.063.036L8.411 18.08l-.704.386c-.019.01-.036.022-.057.031a.494.494 0 0 1-.48-.016l-.217-.127-2.877-1.692c-.019-.01-.036-.02-.055-.033a.487.487 0 0 1-.219-.306c-.005-.02-.007-.043-.01-.064a.028.028 0 0 0-.018-.02.04.04 0 0 0-.007-.003v-3.763ZM14.974 18.577a.078.078 0 0 0-.017-.012.533.533 0 0 0-.055-.016.47.47 0 0 1-.127-.049l-.069-.04-1.063-.613-1.573-.907-.05-.03a.477.477 0 0 1-.224-.4.477.477 0 0 1 .27-.448l.896-.514 1.21-.692.566-.325.074-.043a.487.487 0 0 0 .227-.35 1.02 1.02 0 0 0 .006-.115v-3.092c0-.024 0-.04.002-.058a.481.481 0 0 1 .356-.43.471.471 0 0 1 .113-.019.492.492 0 0 1 .285.084l.722.415 1.268.733.665.383.062.036c.085.051.151.127.19.218a.15.15 0 0 1 .015.048.083.083 0 0 0 .016.032v3.964a.032.032 0 0 0-.015.023.178.178 0 0 1-.017.055.48.48 0 0 1-.18.208.67.67 0 0 1-.062.035l-.978.56-2.18 1.25c-.018.012-.035.023-.055.032a.468.468 0 0 1-.127.05.389.389 0 0 0-.048.013.03.03 0 0 0-.016.014h-.087Z" fill="#fff"/><defs><linearGradient id="paint0_linear_1573_14803" x1="22.008" y1="13.042" x2=".498" y2="13.042" gradientUnits="userSpaceOnUse"><stop offset=".13" stop-color="#A033FF"/><stop offset=".61" stop-color="#0094FF"/><stop offset="1" stop-color="#4FB500"/></linearGradient><linearGradient id="paint1_linear_1573_14803" x1="10.356" y1="7.217" x2="3.634" y2="20.66" gradientUnits="userSpaceOnUse"><stop stop-color="#FFD600" stop-opacity="0"/><stop offset=".563" stop-color="#FFC700"/></linearGradient><linearGradient id="paint2_linear_1573_14803" x1="12.149" y1="13.042" x2="19.767" y2="21.109" gradientUnits="userSpaceOnUse"><stop offset=".03" stop-color="#FF3B30" stop-opacity="0"/><stop offset=".843" stop-color="#E73B2D"/></linearGradient></defs></svg>