<svg width="86" height="23" viewBox="0 0 86 23" fill="none" xmlns="http://www.w3.org/2000/svg"><path d="M6.495 5.381H.635V1.69h15.822v3.692h-5.86V22.2H6.495V5.38Z"/><path d="M13.606 6.963h4.63l1.963 8.644c.215.88.37 1.65.469 2.315.136-.84.302-1.621.498-2.344l2.227-8.615h4.541l2.374 8.615c.195.723.36 1.504.498 2.344.097-.664.254-1.436.468-2.315l2.11-8.644h4.307L32.945 22.2h-4.278l-2.49-8.673a13.054 13.054 0 0 1-.528-2.286c-.137.899-.293 1.66-.47 2.286L22.896 22.2h-4.542L13.606 6.963ZM44.766 22.58a7.12 7.12 0 0 1-3.78-1.054 8.014 8.014 0 0 1-2.754-2.9c-.664-1.212-.997-2.54-.997-3.986 0-1.445.333-2.774.997-3.985.683-1.23 1.601-2.207 2.754-2.93a6.977 6.977 0 0 1 3.78-1.084c1.25 0 2.256.234 3.018.703.781.47 1.387 1.143 1.816 2.022V6.963h3.927V22.2h-3.839v-2.49c-.449.917-1.064 1.63-1.846 2.138-.761.489-1.787.733-3.076.733Zm-3.575-7.97c0 .782.176 1.515.527 2.198.372.665.87 1.202 1.495 1.612.644.39 1.377.586 2.197.586.84 0 1.583-.195 2.227-.586a3.955 3.955 0 0 0 1.524-1.582 4.623 4.623 0 0 0 .527-2.198c0-.8-.176-1.533-.527-2.197a3.907 3.907 0 0 0-1.524-1.612c-.644-.41-1.387-.615-2.227-.615-.82 0-1.553.205-2.197.615a4.014 4.014 0 0 0-1.495 1.582 4.624 4.624 0 0 0-.527 2.198ZM59.833 14.963V22.2h-3.956V.81h3.956v12.306l5.713-6.153h5.626l-7.179 7.091 7.208 8.146h-5.245l-6.123-7.237Z"/><path d="M77.594 22.58c-1.543 0-2.91-.35-4.102-1.054a7.632 7.632 0 0 1-2.783-2.9c-.665-1.212-.997-2.55-.997-4.015a8.13 8.13 0 0 1 1.026-4.014 7.792 7.792 0 0 1 2.813-2.93c1.21-.723 2.559-1.085 4.043-1.085 1.485 0 2.813.362 3.985 1.085a7.362 7.362 0 0 1 2.755 2.93c.664 1.21.996 2.549.996 4.014 0 .488-.04.957-.117 1.406H73.815c.234.918.673 1.66 1.318 2.227.664.547 1.485.82 2.461.82.82 0 1.553-.185 2.198-.556a4.465 4.465 0 0 0 1.523-1.494l3.077 2.314c-.625.977-1.543 1.768-2.754 2.374-1.211.586-2.56.879-4.044.879Zm3.75-9.522a4.28 4.28 0 0 0-1.376-2.198c-.684-.586-1.495-.879-2.432-.879-.918 0-1.72.284-2.403.85-.664.567-1.104 1.309-1.319 2.227h7.53Z"/></svg>