<svg width="890" height="173" viewBox="0 0 890 173" fill="none" xmlns="http://www.w3.org/2000/svg"><path d="M745.671 136.518c-13.532 0-24.788-4.491-33.769-13.472-8.862-8.981-13.293-20.058-13.293-33.23 0-13.173 4.431-24.25 13.293-33.231 8.981-8.981 20.237-13.472 33.769-13.472 9.101 0 17.244 2.156 24.429 6.467 7.305 4.31 12.993 10.178 17.064 17.603l-13.472 7.544c-2.634-5.269-6.406-9.46-11.316-12.574-4.79-3.113-10.358-4.67-16.705-4.67-9.221 0-16.765 3.114-22.633 9.34-5.867 6.228-8.801 13.892-8.801 22.993 0 9.1 2.934 16.765 8.801 22.991 5.868 6.227 13.412 9.341 22.633 9.341 6.347 0 11.915-1.557 16.705-4.67 4.91-3.114 8.682-7.305 11.316-12.574l13.472 7.544c-4.071 7.425-9.759 13.292-17.064 17.603-7.185 4.311-15.328 6.467-24.429 6.467ZM631.164 136.516c-6.945 0-12.873-1.257-17.782-3.772-4.79-2.634-8.443-6.167-10.958-10.598-2.514-4.55-3.772-9.64-3.772-15.268 0-9.46 2.755-16.286 8.263-20.477 5.628-4.191 13.652-6.287 24.07-6.287h30.895v-6.466c0-8.143-1.856-13.772-5.568-16.885-3.593-3.114-9.041-4.67-16.346-4.67-6.826 0-11.795 1.317-14.909 3.951-3.113 2.515-4.85 5.39-5.209 8.622h-15.807c.359-5.149 2.096-9.7 5.209-13.651 3.114-4.072 7.365-7.305 12.754-9.7 5.388-2.395 11.675-3.592 18.86-3.592 7.544 0 14.071 1.197 19.579 3.592 5.509 2.275 9.76 5.928 12.754 10.957 2.993 4.91 4.49 11.436 4.49 19.58v51.911c.12 3.712.419 7.364.898 10.957h-13.831a97.401 97.401 0 0 1-.718-7.724c-.12-2.515-.18-5.329-.18-8.442-2.515 5.029-6.586 9.28-12.214 12.753-5.629 3.473-12.454 5.209-20.478 5.209Zm3.413-14.37c5.03 0 9.58-.898 13.652-2.694 4.191-1.796 7.484-4.431 9.879-7.904 2.515-3.472 3.772-7.724 3.772-12.753v-6.466h-28.201c-5.868 0-10.478 1.197-13.831 3.592-3.353 2.275-5.029 5.928-5.029 10.957 0 4.431 1.556 8.083 4.67 10.957 3.233 2.874 8.263 4.311 15.088 4.311ZM560.785 134.718V0h15.448v134.718h-15.448ZM462.78 172.263h-15.448V44.909h15.448V58.74c3.113-4.55 7.484-8.262 13.112-11.136 5.748-2.994 11.915-4.49 18.502-4.49 12.454 0 22.872 4.55 31.254 13.65 8.503 9.102 12.754 20.119 12.754 33.052s-4.251 23.949-12.754 33.05c-8.382 9.101-18.8 13.652-31.254 13.652-6.587 0-12.754-1.437-18.502-4.311-5.628-2.994-9.999-6.766-13.112-11.316v51.372Zm7.364-59.276c5.748 6.227 13.053 9.341 21.915 9.341 8.861 0 16.166-3.114 21.914-9.341 5.748-6.227 8.622-13.95 8.622-23.171s-2.874-16.945-8.622-23.172c-5.748-6.227-13.053-9.34-21.914-9.34-8.862 0-16.167 3.113-21.915 9.34-5.748 6.227-8.622 13.95-8.622 23.172 0 9.22 2.874 16.944 8.622 23.171ZM414.895 134.718l-48.678-44.906v44.906H350.77V0h15.447v79.933l39.158-35.027h20.478l-44.188 39.697 54.067 50.115h-20.837ZM283.176 134.717V44.904h15.447v17.424c1.677-5.508 4.91-9.94 9.7-13.292 4.91-3.353 10.059-5.03 15.448-5.03 2.634 0 4.97.24 7.005.719V60.71c-2.155-.958-4.969-1.437-8.442-1.437-6.227 0-11.736 2.695-16.526 8.084-4.79 5.388-7.185 12.992-7.185 22.812v44.547h-15.447ZM214.433 136.518c-13.532 0-24.788-4.491-33.77-13.472-8.861-9.101-13.292-20.178-13.292-33.23 0-13.053 4.431-24.07 13.292-33.051 8.982-9.101 20.238-13.652 33.77-13.652 13.412 0 24.548 4.55 33.41 13.652 8.981 8.98 13.472 19.998 13.472 33.05 0 13.053-4.491 24.13-13.472 33.231-8.862 8.981-19.998 13.472-33.41 13.472ZM191.8 112.807c5.868 6.227 13.412 9.341 22.633 9.341 9.22 0 16.705-3.114 22.453-9.341 5.748-6.226 8.622-13.89 8.622-22.991 0-9.101-2.874-16.765-8.622-22.992-5.748-6.227-13.233-9.34-22.453-9.34-9.221 0-16.765 3.113-22.633 9.34-5.748 6.227-8.622 13.89-8.622 22.992 0 9.1 2.874 16.765 8.622 22.991ZM112.086 134.716 80.831 48.137l-31.075 86.579H34.847L0 7.183h17.424l26.584 99.512L80.831 5.027l36.823 101.668 26.764-99.512h17.424l-34.847 127.533h-14.909ZM846.515 136.518c-13.771 0-24.968-4.431-33.59-13.292-8.622-8.862-12.933-19.998-12.933-33.41 0-13.293 4.371-24.37 13.113-33.231 8.742-8.981 19.938-13.472 33.59-13.472 12.094 0 22.213 4.072 30.356 12.215 8.263 8.023 12.394 18.98 12.394 32.87 0 1.797-.06 3.354-.179 4.671H815.62c.239 8.383 3.233 15.388 8.981 21.016 5.867 5.628 13.232 8.443 22.094 8.443 12.573 0 21.914-5.21 28.021-15.628l12.214 8.443c-8.741 14.25-22.213 21.375-40.415 21.375Zm-29.818-56.223h56.941c-1.197-7.184-4.371-12.873-9.52-17.064-5.029-4.31-11.017-6.466-17.962-6.466-7.066 0-13.412 2.155-19.041 6.466-5.508 4.191-8.981 9.88-10.418 17.064Z" fill="#DBDBDB"/></svg>