<svg width="16" height="16" viewBox="0 0 16 16" fill="none" xmlns="http://www.w3.org/2000/svg"><g clip-path="url(#clip0_19251_33606)"><path d="M6.626 10.332a1.333 1.333 0 0 0-.958-.958L1.578 8.32a.333.333 0 0 1 0-.642l4.09-1.055a1.333 1.333 0 0 0 .958-.957l1.055-4.09a.333.333 0 0 1 .642 0l1.054 4.09a1.333 1.333 0 0 0 .958.958l4.09 1.054a.333.333 0 0 1 0 .642l-4.09 1.054a1.333 1.333 0 0 0-.958.958l-1.055 4.09a.333.333 0 0 1-.642 0l-1.054-4.09Z" stroke="#868687" stroke-width="1.333" stroke-linecap="round" stroke-linejoin="round"/><path d="M6.626 10.332a1.333 1.333 0 0 0-.958-.958L1.578 8.32a.333.333 0 0 1 0-.642l4.09-1.055a1.333 1.333 0 0 0 .958-.957l1.055-4.09a.333.333 0 0 1 .642 0l1.054 4.09a1.333 1.333 0 0 0 .958.958l4.09 1.054a.333.333 0 0 1 0 .642l-4.09 1.054a1.333 1.333 0 0 0-.958.958l-1.055 4.09a.333.333 0 0 1-.642 0l-1.054-4.09Z" stroke="url(#paint0_linear_19251_33606)" stroke-opacity=".9" stroke-width="1.333" stroke-linecap="round" stroke-linejoin="round"/><path d="M13.335 1.334c.368 0 .667.3.667.667v.666h.668a.667.667 0 0 1 0 1.334h-.668v.667a.667.667 0 0 1-1.334 0v-.667h-.665a.667.667 0 0 1 0-1.334h.665v-.666c0-.368.299-.667.667-.667Z" fill="url(#paint1_linear_19251_33606)" fill-opacity=".9"/><path d="M2.667 10.667c.368 0 .665.298.666.665a.667.667 0 0 1 .001 1.333v.002a.667.667 0 0 1-1.334 0v-.001h-.001a.667.667 0 0 1 0-1.334H2a.667.667 0 0 1 .667-.665Z" fill="url(#paint2_linear_19251_33606)" fill-opacity=".9"/></g><defs><linearGradient id="paint0_linear_19251_33606" x1="1.336" y1="7.999" x2="19.625" y2="7.999" gradientUnits="userSpaceOnUse"><stop stop-color="#00B7FF"/><stop offset=".567" stop-color="#E06DD1"/><stop offset="1" stop-color="#FF0"/></linearGradient><linearGradient id="paint1_linear_19251_33606" x1="11.336" y1="3.334" x2="16.822" y2="3.334" gradientUnits="userSpaceOnUse"><stop stop-color="#00B7FF"/><stop offset=".567" stop-color="#E06DD1"/><stop offset="1" stop-color="#FF0"/></linearGradient><linearGradient id="paint2_linear_19251_33606" x1="1.332" y1="12.001" x2="4.99" y2="12.001" gradientUnits="userSpaceOnUse"><stop stop-color="#00B7FF"/><stop offset=".567" stop-color="#E06DD1"/><stop offset="1" stop-color="#FF0"/></linearGradient><clipPath id="clip0_19251_33606"><path fill="#fff" d="M0 0h16v16H0z"/></clipPath></defs></svg>