<svg width="16" height="16" viewBox="0 0 16 16" fill="none" xmlns="http://www.w3.org/2000/svg"><g clip-path="url(#clip0_25355_124591)"><path d="M6.626 10.332a1.333 1.333 0 0 0-.958-.958L1.578 8.32a.333.333 0 0 1 0-.642l4.09-1.055a1.333 1.333 0 0 0 .958-.957l1.055-4.09a.333.333 0 0 1 .642 0l1.054 4.09a1.333 1.333 0 0 0 .958.958l4.09 1.054a.333.333 0 0 1 0 .642l-4.09 1.054a1.333 1.333 0 0 0-.958.958l-1.055 4.09a.333.333 0 0 1-.642 0l-1.054-4.09Z" stroke="url(#paint0_linear_25355_124591)" stroke-opacity=".9" stroke-width="1.333" stroke-linecap="round" stroke-linejoin="round"/><path d="M13.335 1.336c.368 0 .667.299.667.667v.665h.668a.667.667 0 0 1 0 1.334h-.668v.668a.667.667 0 0 1-1.334 0v-.668h-.665a.667.667 0 0 1 0-1.334h.665v-.665c0-.368.299-.667.667-.667Z" fill="url(#paint1_linear_25355_124591)" fill-opacity=".9"/><path d="M2.667 10.668c.367 0 .664.297.666.664a.667.667 0 0 1 .001 1.333v.003a.667.667 0 0 1-1.334 0v-.002h-.001a.667.667 0 0 1 0-1.334H2a.667.667 0 0 1 .667-.664Z" fill="url(#paint2_linear_25355_124591)" fill-opacity=".9"/></g><defs><linearGradient id="paint0_linear_25355_124591" x1="1.336" y1="7.999" x2="19.625" y2="7.999" gradientUnits="userSpaceOnUse"><stop stop-color="#00B7FF"/><stop offset=".567" stop-color="#E06DD1"/><stop offset="1" stop-color="#FF0"/></linearGradient><linearGradient id="paint1_linear_25355_124591" x1="11.336" y1="3.336" x2="16.822" y2="3.336" gradientUnits="userSpaceOnUse"><stop stop-color="#00B7FF"/><stop offset=".567" stop-color="#E06DD1"/><stop offset="1" stop-color="#FF0"/></linearGradient><linearGradient id="paint2_linear_25355_124591" x1="1.332" y1="12.002" x2="4.99" y2="12.002" gradientUnits="userSpaceOnUse"><stop stop-color="#00B7FF"/><stop offset=".567" stop-color="#E06DD1"/><stop offset="1" stop-color="#FF0"/></linearGradient><clipPath id="clip0_25355_124591"><path fill="#fff" d="M0 0h16v16H0z"/></clipPath></defs></svg>