<svg width="16" height="16" viewBox="0 0 16 16" xmlns="http://www.w3.org/2000/svg"><path d="M13 9.987c-.013 0-.02 0-.033.006A2.327 2.327 0 0 0 10.667 8 2.33 2.33 0 0 0 8.56 9.347a1.992 1.992 0 0 0-1.893 1.986c0 1.107.893 2 2 2L13 13.32a1.667 1.667 0 0 0 0-3.333ZM13.007 12h-4.34A.669.669 0 0 1 8 11.333c0-.366.3-.666.667-.666H9.5V10.5c0-.647.52-1.167 1.167-1.167.646 0 1.167.52 1.167 1.167v.833h1.173a.33.33 0 0 1 .333.334.343.343 0 0 1-.333.333ZM5.334 2.84v1.393A4 4 0 0 0 2.667 8c0 1.18.52 2.227 1.333 2.96V9.333h1.333v4h-4V12h1.82a5.295 5.295 0 0 1-1.82-4 5.33 5.33 0 0 1 4-5.16ZM12 4h-1.82a5.32 5.32 0 0 1 1.774 3.333h-1.347A4.002 4.002 0 0 0 9.334 5.04v1.627H8v-4h4V4Z"/></svg>
