<svg xmlns="http://www.w3.org/2000/svg" width="160" height="160" viewBox="0 0 160 160"><g fill="none" fill-rule="evenodd"><path fill="#93BEF8" d="M61.763 130.593l-3.174 7.933h59.045-.003c23.356 0 42.369-19.126 42.369-42.634 0-22.218-16.977-40.52-38.56-42.467a42.494 42.494 0 0 0-12.426-25.27 42.873 42.873 0 0 0-4.68-3.992l-3.156 7.892c7.203 6.153 11.888 15.26 12.12 25.41.055 2.478 2.056 4.446 4.499 4.446h.34c18.71 0 33.93 15.405 33.93 34.338 0 18.936-15.22 34.34-33.93 34.34h-.324l-.01.004h-56.04zm39.415-106.538l3.157-7.892C97.128 10.86 88.462 8 79.387 8 68.245 8 57.724 12.311 49.76 20.158c-6.974 6.868-11.308 15.77-12.438 25.4-9.568 1.135-18.411 5.5-25.239 12.514C4.29 66.086 0 76.677 0 87.89c0 23.511 19 42.637 42.366 42.637H58.59l3.174-7.933H42.537c-.097-.007-.194-.007-.292-.007l-.107.007h-.275c-18.71 0-33.93-15.405-33.93-34.341 0-18.507 14.863-33.905 33.132-34.331 2.406-.056 4.343-2.017 4.398-4.45.419-18.494 15.638-33.538 33.92-33.538 8.248 0 15.873 3.062 21.795 8.122z"/><path stroke="#297EF1" stroke-linecap="round" stroke-width="8" d="M50 156L110 4"/></g></svg>
