<svg viewBox="0 0 64 46" xmlns="http://www.w3.org/2000/svg">
<path d="M51.8292 16.2856C50.9533 7.15915 43.3548 -0.00146484 34.0001 -0.00146484C26.7616 -0.00146484 20.5633 4.29472 17.707 10.4592C16.8469 10.1871 15.9508 9.99918 15.0007 9.99918C10.0304 9.99918 6.00025 14.0313 6.00025 18.9997C6.00025 19.9877 6.19827 20.9219 6.49227 21.8079C2.62613 24.0622 0 28.2024 0 32.9987C0 40.1792 5.82036 45.9996 13.0009 45.9996V46.0016H49.001V45.9996C57.2876 45.9996 64 39.2851 64 30.9986C64 23.6841 58.7596 17.6097 51.8292 16.2856ZM41.2227 35.2187C40.9987 35.4436 40.7325 35.622 40.4394 35.7438C40.1463 35.8655 39.832 35.9282 39.5146 35.9282C39.1972 35.9282 38.8829 35.8655 38.5898 35.7438C38.2967 35.622 38.0305 35.4436 37.8065 35.2187L32.9561 30.3703L28.1679 35.1605C27.716 35.6119 27.1035 35.8654 26.4648 35.8654C25.8261 35.8654 25.2136 35.6119 24.7617 35.1605C24.3104 34.7087 24.0568 34.0961 24.0568 33.4575C24.0568 32.8188 24.3104 32.2063 24.7617 31.7544L29.55 26.9662L24.7016 22.1178C23.7576 21.1718 23.7576 19.6436 24.7016 18.6996C24.9256 18.4747 25.1917 18.2963 25.4849 18.1746C25.778 18.0528 26.0923 17.9901 26.4097 17.9901C26.7271 17.9901 27.0413 18.0528 27.3344 18.1746C27.6276 18.2963 27.8938 18.4747 28.1177 18.6996L32.9661 23.55L37.8183 18.6978C38.0418 18.4739 38.3073 18.2962 38.5995 18.175C38.8917 18.0538 39.205 17.9914 39.5214 17.9914C39.8378 17.9914 40.1511 18.0538 40.4433 18.175C40.7355 18.2962 41.001 18.4739 41.2245 18.6978C42.1664 19.6398 42.1664 21.164 41.2245 22.1039L36.3723 26.9564L41.2227 31.8048C42.1687 32.7467 42.1687 34.2788 41.2227 35.2187Z"/>
</svg>
