<svg width="128" height="128" viewBox="0 0 128 128" fill="none" xmlns="http://www.w3.org/2000/svg"><path fill-rule="evenodd" clip-rule="evenodd" d="M115.149 70.393c-.483-5.764-3.108-11.079-7.096-15.408-4.338-4.707-10.593-8.496-17.246-9.151a27.82 27.82 0 0 0-20.435-23.542 28.937 28.937 0 0 0-6.54-.974v-.006c-.01.002-.022.002-.032.002-.011 0-.022 0-.033-.002v.006c-2.173.073-4.368.389-6.54.974-11.308 3.04-19.138 12.606-20.434 23.542-6.655.655-12.91 4.444-17.247 9.151-3.988 4.33-6.615 9.644-7.1 15.408a22.135 22.135 0 0 0 .327 5.968c.391 2.719 1.612 6.666 3.359 9.682 4.59 7.928 12.415 11.21 22.102 12.896 5.35.93 10.428 1.488 25.062 1.488l.471.002h.065l.47-.002c14.635 0 19.713-.557 25.061-1.488 9.687-1.686 17.513-4.968 22.102-12.896 1.749-3.016 2.97-6.963 3.361-9.682.373-1.965.493-3.976.323-5.968Z" fill="#fff"/><path fill-rule="evenodd" clip-rule="evenodd" d="M57.845 24.584a26.48 26.48 0 0 1 5.954-.892 26.51 26.51 0 0 1 5.957.892C79.881 27.306 87.22 35.758 88.45 46.112a2.371 2.371 0 0 0 2.123 2.082c5.507.544 11.389 3.682 15.734 8.4 3.818 4.142 6.058 8.984 6.478 13.997v.002a19.714 19.714 0 0 1-.291 5.324l-.018.106c-.07.49-.177 1.049-.317 1.651A12.85 12.85 0 0 1 115.498 83c.884-2.354 1.431-4.627 1.67-6.247.412-2.195.529-4.401.347-6.56-.509-6.074-3.177-11.89-7.718-16.816-4.713-5.116-10.787-8.565-16.905-9.65C90.826 32.274 82.4 23.067 70.99 20a31.266 31.266 0 0 0-6.911-1.047 2.178 2.178 0 0 0-.358-.012c-.067.002-.127.004-.193.01-2.349.092-4.677.445-6.916 1.05-11.413 3.067-19.84 12.272-21.904 23.726-6.122 1.085-12.196 4.534-16.907 9.65-4.539 4.924-7.207 10.742-7.718 16.818a24.436 24.436 0 0 0 .348 6.558c.382 2.598 1.562 6.879 3.647 10.478 5.656 9.772 15.663 12.639 23.749 14.045 5.806 1.011 11.34 1.524 25.468 1.524l.472.002h.08l.456-.002c5.336 0 9.447-.073 12.809-.219a15.698 15.698 0 0 1 .06-2.8l.069-.573.05-.352.054-.336.062-.325.073-.321.014-.058c-3.293.152-7.5.237-13.191.237l-.53.002-.478-.002c-15.132 0-19.764-.602-24.654-1.454C28 94.749 21.883 91.235 18.187 84.853c-1.641-2.83-2.739-6.56-3.065-8.83a2.164 2.164 0 0 0-.018-.106 19.794 19.794 0 0 1-.292-5.326c.423-5.014 2.663-9.854 6.48-13.997 4.342-4.718 10.226-7.856 15.733-8.4a2.371 2.371 0 0 0 2.123-2.082c1.23-10.354 8.567-18.806 18.697-21.528Z" fill="#3281EE"/><path fill-rule="evenodd" clip-rule="evenodd" d="M81.82 71.666c-1.06-.782-2.3-2.349-2.257-3.124.046-.801-.294-1.502-.934-1.922-.68-.445-1.606-.49-2.359-.111a2.243 2.243 0 0 0-1.232 1.9c-.062 1.132.276 2.099.77 2.965-7.389 3.895-17.21 3.743-24.187-.427.447-.936.684-2.01.53-3.235-.178-1.4-1.489-2.114-2.6-1.976-1.168.147-1.909 1.101-1.762 2.268.17 1.345-.954 2.298-2.44 3.4a2.227 2.227 0 0 0-.893 2.066c.094.814.611 1.537 1.314 1.842.25.108.51.162.767.162a2.07 2.07 0 0 0 1.236-.43c.36-.266.785-.584 1.23-.953 4.406 2.677 9.749 4.024 15.098 4.024 4.99 0 9.987-1.173 14.23-3.522.305.292.633.58.993.846.404.296.847.442 1.28.442.636 0 1.247-.307 1.68-.892.699-.948.717-2.45-.463-3.323ZM105.09 78.09a.035.035 0 0 1-.013-.003.07.07 0 0 0-.012-.005c-9.842-3.563-13.751 5.785-14.71 8.425a2.194 2.194 0 0 0 1.312 2.813 2.194 2.194 0 0 0 2.814-1.31c.208-.576 3.075-7.964 9.095-5.798 6.002 2.21 3.45 9.714 3.242 10.288a2.195 2.195 0 1 0 4.127 1.501c.959-2.64 3.974-12.315-5.855-15.91Z" fill="#3281EE"/><path fill-rule="evenodd" clip-rule="evenodd" d="M112.131 102.779c.425-1.713.913-4.089.913-4.089.389-1.854-.577-3.726-2.261-4.53l-19.986-7.273c-1.806-.468-3.748.344-4.643 2.017 0 0-1.155 2.132-1.932 3.718-1.395 2.858-2.727 5.328-2.985 7.617-.693 6.22 3.79 12.417 10.593 14.903 6.809 2.469 14.226.602 17.69-4.607 1.277-1.921 1.842-4.67 2.611-7.756Z" fill="#B2D3FF"/><path fill-rule="evenodd" clip-rule="evenodd" d="M88.925 91.71c-.046.467.124.965.33 1.222.546.699 1.636.927 2.362.398.732-.535 1.214-1.616.36-2.63-.727-.864-2.083-.68-2.727.194a1.693 1.693 0 0 0-.325.816ZM83.962 100.497c-.046.466.124.963.328 1.219.547.701 1.638.929 2.362.4.734-.534 1.216-1.616.363-2.629-.728-.864-2.084-.681-2.73.194a1.688 1.688 0 0 0-.323.816ZM91.418 111.358c-.047.464.121.963.326 1.219.549.701 1.637.929 2.363.4.732-.534 1.215-1.616.36-2.629-.727-.864-2.083-.681-2.728.192a1.682 1.682 0 0 0-.322.818ZM103.944 107.905c-.046.465.124.963.328 1.221.549.7 1.638.927 2.364.398.732-.534 1.214-1.615.36-2.629-.728-.864-2.083-.681-2.729.192a1.712 1.712 0 0 0-.323.818ZM105.79 97.984c-.046.467.124.965.328 1.221.547.7 1.638.928 2.364.398.732-.534 1.214-1.615.36-2.628-.728-.865-2.083-.68-2.729.193a1.695 1.695 0 0 0-.323.816Z" fill="#3281EE"/><path fill-rule="evenodd" clip-rule="evenodd" d="M100.802 96.234c-1.718-2.037-4.913-1.605-6.436.456a4.005 4.005 0 0 0-.762 1.925c-.11 1.094.293 2.267.768 2.873-.336.856-.71 1.847-1.153 3.072-1.015 2.796 3.297 4.492 4.32 1.679.471-1.306.87-2.355 1.223-3.25.421-.109.823-.29 1.189-.554 1.725-1.26 2.862-3.809.851-6.201Z" fill="#FEDBA7"/><path fill-rule="evenodd" clip-rule="evenodd" d="M98.794 96.382a2.624 2.624 0 0 0-.988-.153 3.14 3.14 0 0 0-2.378 1.245c-.28.378-.466.843-.51 1.275-.08.782.248 1.612.494 1.926l.464.594-.276.702c-.332.845-.703 1.828-1.14 3.038-.316.868.496 1.214.666 1.275.002 0 .002 0 .002.002.327.119.913.212 1.168-.497.45-1.242.855-2.317 1.239-3.285l.246-.62.645-.171c.284-.073.536-.192.752-.348.751-.548 1.26-1.354 1.357-2.15.088-.724-.161-1.442-.74-2.13a2.346 2.346 0 0 0-1.001-.703Zm-4.57 12.382c-1.685-.613-3.044-2.451-2.246-4.655.346-.952.65-1.768.927-2.487-.429-.834-.73-1.98-.612-3.14a5.318 5.318 0 0 1 1.011-2.577 5.78 5.78 0 0 1 4.417-2.315c1.595-.05 3.087.602 4.091 1.793l.002.002c1.052 1.255 1.517 2.69 1.341 4.148-.186 1.531-1.07 2.976-2.426 3.966a4.709 4.709 0 0 1-.961.54 125.98 125.98 0 0 0-.99 2.649c-.784 2.164-2.882 2.683-4.55 2.078-.002 0-.003 0-.003-.002Z" fill="#3281EE"/><path d="M29.419 125.29a81.818 81.818 0 0 0 16.14 2.244c16.167.948 38.76.424 48.326-1.346 9.567-1.771 10.083-4.465-14.448-5.812-20.925-1.147-45.26.474-50.362 2.894-1.52.648-1.447 1.371.344 2.02Z" fill="#BBD9FD"/><path d="M16 43c-.61 0-1.22-.488-1.22-1.22 0-.487-.121-2.56-2.56-2.56-.61 0-1.22-.488-1.22-1.22s.488-1.22 1.22-1.22c.365 0 2.56-.122 2.56-2.56 0-.61.488-1.22 1.22-1.22.61 0 1.22.488 1.22 1.22 0 .365.122 2.56 2.56 2.56.61 0 1.22.488 1.22 1.22s-.488 1.22-1.22 1.22c-.365 0-2.56.122-2.56 2.56-.122.732-.61 1.22-1.22 1.22ZM89 22c-.61 0-1.22-.488-1.22-1.22 0-.487-.121-2.56-2.56-2.56-.61 0-1.22-.488-1.22-1.22s.488-1.22 1.22-1.22c.365 0 2.56-.121 2.56-2.56 0-.61.488-1.22 1.22-1.22.61 0 1.22.488 1.22 1.22 0 .365.121 2.56 2.56 2.56.61 0 1.22.488 1.22 1.22s-.488 1.22-1.22 1.22c-.365 0-2.56.122-2.56 2.56-.122.732-.61 1.22-1.22 1.22ZM30 26c-.91 0-1.818-.727-1.818-1.818 0-3.455-2.91-6.364-6.364-6.364C20.91 17.818 20 17.091 20 16c0-.91.727-1.818 1.818-1.818 3.455 0 6.364-2.91 6.364-6.364C28.182 6.91 28.909 6 30 6c.91 0 1.818.727 1.818 1.818 0 3.455 2.91 6.364 6.364 6.364.909 0 1.818.727 1.818 1.818 0 .91-.727 1.818-1.818 1.818-3.455 0-6.364 2.91-6.364 6.364C31.818 25.09 31.091 26 30 26Zm-2.546-10c.91.727 1.819 1.454 2.546 2.546.727-.91 1.454-1.819 2.545-2.546-.909-.727-1.818-1.454-2.545-2.546A5.744 5.744 0 0 1 27.454 16ZM107 42c-.909 0-1.818-.727-1.818-1.818 0-3.455-2.909-6.364-6.364-6.364C97.91 33.818 97 33.091 97 32c0-.91.727-1.818 1.818-1.818 3.455 0 6.364-2.91 6.364-6.364 0-.909.727-1.818 1.818-1.818.909 0 1.818.727 1.818 1.818 0 3.455 2.909 6.364 6.364 6.364.909 0 1.818.727 1.818 1.818 0 .91-.727 1.818-1.818 1.818-3.455 0-6.364 2.91-6.364 6.364 0 .909-.727 1.818-1.818 1.818Zm-2.545-10c.909.727 1.818 1.455 2.545 2.545.727-.909 1.455-1.818 2.545-2.545-.909-.727-1.818-1.454-2.545-2.546A5.745 5.745 0 0 1 104.455 32Z" fill="#FF9300"/><circle cx="11" cy="23" r="2" fill="#FF8E8E"/><circle cx="30" cy="34" r="2" fill="#FF8E8E"/><circle cx="50" cy="12" r="2" fill="#FF8E8E"/><circle cx="107" cy="12" r="2" fill="#FF8E8E"/><circle cx="117" cy="47" r="2" fill="#FF8E8E"/><circle cx="8" cy="53" r="2" fill="#FF8E8E"/></svg>