<svg xmlns="http://www.w3.org/2000/svg" xmlns:xlink="http://www.w3.org/1999/xlink" viewBox="0 0 32 32"><defs><circle id="a" cx="16" cy="16" r="16"/></defs><g fill="none" fill-rule="evenodd"><mask id="b" fill="white"><use xlink:href="#a"/></mask><use fill="#95999D" xlink:href="#a"/><path fill="#32363F" d="M23.6-.94c.04.07.06.16.04.25a1084.67 1084.67 0 0 0-.9 3.55l-3.65.36c-.36.04-.7.2-.97.43l-2.37 2.2-.13.06-1.92.5c-.64.18-1.12.7-1.2 1.36a1.6 1.6 0 0 0 .81 1.6c.22.13.48.2.73.21l6.61.36h.02l.22.49v.02l-2.27 1.6c-.08 0-.14.03-.21.04L15 11.73a.3.3 0 0 1-.09-.02l-2.52-1.03a1.69 1.69 0 0 0-1.63.2l-2.65 1.95a1.6 1.6 0 0 0-.63 1.05l-.44 2.81c-.05.36.02.74.2 1.05l1.73 2.9c.27.46.75.76 1.28.8l3.04.26.02.01.65 1.72.01.04.69 3.06c.1.44.38.82.78 1.05l1.5.86a1.67 1.67 0 0 0 1.99-.24l2.31-2.22c.3-.29.48-.67.5-1.09l.14-3.6.05-.15 1.7-2.51a1.6 1.6 0 0 0-.25-2.07l-1.07-.97v-.02l.15-.94c0-.01 0-.02.02-.02h.02l2.04 1.29c.69.43 1.6.3 2.14-.3l.76-.85c.61-.68.57-1.8-.36-2.44a.31.31 0 0 0-.07-.04l-.3-.1v-.04l1.07-.55a.3.3 0 0 1 .32.02l.84.62c.75.54 1.87.41 2.48-.54a.29.29 0 0 0 .04-.08l.19-.76a.3.3 0 0 1 .53-.1A16.29 16.29 0 0 0 23.59-.94" mask="url(#b)"/></g></svg>