<svg xmlns="http://www.w3.org/2000/svg" width="32" height="32" viewBox="0 0 32 32">
    <g fill="none" fill-rule="evenodd">
        <path fill="#95999D" d="M23.333 32H8.667C7.193 32 6 30.753 6 29.217V2.783C6 1.247 7.193 0 8.667 0h14.666C24.805 0 26 1.247 26 2.783v26.434C26 30.753 24.805 32 23.333 32z"/>
        <path fill="#F5F6F7" fill-rule="nonzero" d="M14 2.001a.5.5 0 1 1 0-1L18 1a.5.5 0 1 1 0 1l-4 .001z"/>
        <path fill="#F5F6F7" d="M17.5 29.5a1.5 1.5 0 1 1-3.001-.001 1.5 1.5 0 0 1 3.001.001z"/>
        <path fill="#32363F" d="M7 3h18v25H7z"/>
    </g>
</svg>
