<svg xmlns="http://www.w3.org/2000/svg" width="32" height="32" viewBox="0 0 32 32">
  <g fill="none" fill-rule="evenodd" transform="translate(0 4)">
    <path fill="#32363F" d="M2,21 L2,1.99456145 C2,0.892995579 2.89989752,0 3.99124431,0 L28.0087557,0 C29.1084896,0 30,0.90234375 30,1.99456145 L30,21 L2,21 Z"/>
    <rect width="24" height="16" x="4" y="2" fill="#5D6165"/>
    <path fill="#95999D" d="M19,20.5 C19,20.7761424 18.7670975,21 18.4965773,21 L12.5034227,21 C12.22539,21 12,20.7680664 12,20.5 L12,20.5 C12,20.2238576 11.7709994,20 11.4996527,20 L0.500347316,20 C0.224013124,20 0,20.2150574 0,20.4904785 L0,22 C0,23.1045695 0.889261723,24 2.00174332,24 L29.9982567,24 C31.103789,24 32,23.1122704 32,22 L32,20.4904785 C32,20.2195947 31.7743607,20 31.506259,20 L19.493741,20 C19.2210554,20 19,20.2319336 19,20.5 L19,20.5 Z"/>
  </g>
</svg>
