<?xml version="1.0" encoding="UTF-8"?>
<svg width="32px" height="32px" viewBox="0 0 32 32" version="1.1" xmlns="http://www.w3.org/2000/svg" xmlns:xlink="http://www.w3.org/1999/xlink">
    <title>icons/files/presentation</title>
    <g id="icons/files/presentation" stroke="none" stroke-width="1" fill="none" fill-rule="evenodd">
        <g id="file-02" transform="translate(3.000000, 0.000000)">
            <path d="M0,2.00174332 C0,0.89621101 0.890925393,0 1.99742191,0 L19,0 L26,7 L26,29.9964051 C26,31.10296 25.1050211,32 24.0029953,32 L1.99700466,32 C0.89408944,32 0,31.1107383 0,29.9982567 L0,2.00174332 Z" id="Rectangle-2" fill="#FFDEC1"></path>
            <path d="M18.5,8.57092175e-14 C18.2238576,1.33045111e-13 18,0.230796814 18,0.500435829 L18,8 L25.4995642,8 C25.7759472,8 26,7.76806641 26,7.5 L26,7 L19,0 L18.5,8.57092175e-14 Z" id="Path-2" fill="#FF9433"></path>
        </g>
        <path d="M22.9962158,24 L22.9962158,26 L12.9962158,26 L12.9962158,24 L22.9962158,24 Z M11,24 L11,26 L9,26 L9,24 L11,24 Z M22.9962158,20 L22.9962158,22 L12.9962158,22 L12.9962158,20 L22.9962158,20 Z M11,20 L11,22 L9,22 L9,20 L11,20 Z M16,10 L16,14 L20,14 C20,16.209139 18.209139,18 16,18 C13.790861,18 12,16.209139 12,14 C12,11.790861 13.790861,10 16,10 L16,10 Z M17,9 C19,9 21.0000002,11 21,13 L17,13 L17,9 L17,9 Z" id="text" fill="#FF9433"></path>
    </g>
</svg>