<svg width="32" height="32" viewBox="0 0 32 32" fill="none" xmlns="http://www.w3.org/2000/svg"><path d="M30 5.2c0-1.12 0-1.68-.218-2.108a2 2 0 0 0-.874-.874C28.48 2 27.92 2 26.8 2H5.2c-1.12 0-1.68 0-2.108.218a2 2 0 0 0-.874.874C2 3.52 2 4.08 2 5.2v14.6c0 1.12 0 1.68.218 2.108a2 2 0 0 0 .874.874C3.52 23 4.08 23 5.2 23h21.6c1.12 0 1.68 0 2.108-.218a2 2 0 0 0 .874-.874C30 21.48 30 20.92 30 19.8V5.2Z" fill="#10C016"/><path d="M2 4a2 2 0 0 0 1.999 2H28.8c1.12 0 1.68 0 2.108.218a2 2 0 0 1 .874.874C32 7.52 32 8.08 32 9.2v17.6c0 1.12 0 1.68-.218 2.108a2 2 0 0 1-.874.874C30.48 30 29.92 30 28.8 30H3.2c-1.12 0-1.68 0-2.108-.218a2 2 0 0 1-.874-.874C0 28.48 0 27.92 0 26.8V5.2c0-1.12 0-1.68.218-2.108a2 2 0 0 1 .874-.874C1.52 2 2.08 2 3.2 2H4a2 2 0 0 0-2 2Z" fill="#9FE6A2"/><path fill-rule="evenodd" clip-rule="evenodd" d="M32 11a2 2 0 0 1-2 2h-9a5 5 0 0 0 0 10h8.793A2.207 2.207 0 0 0 32 20.793V11Zm-11 9a2 2 0 1 0 0-4 2 2 0 0 0 0 4Z" fill="#10C016"/></svg>