<svg xmlns="http://www.w3.org/2000/svg" viewBox="0 0 96 96"><g fill="none" fill-rule="evenodd"><path fill="#FFDEC1" d="M24.6 3.51L3.51 24.61A12 12 0 0 0 0 33.08V62.9a12 12 0 0 0 3.52 8.49l21.08 21.1A12 12 0 0 0 33.1 96h29.8a12 12 0 0 0 8.49-3.51l21.09-21.1A12 12 0 0 0 96 62.92V33.1a12 12 0 0 0-3.51-8.49l-21.1-21.1A12 12 0 0 0 62.92 0H33.1a12 12 0 0 0-8.49 3.51z"/><path fill="#FF9433" fill-rule="nonzero" d="M55.35 81H43.77c-3.97 0-7.79-1.5-10.7-4.2L13.3 58.43a4.06 4.06 0 0 1-.62-5.22 3.61 3.61 0 0 1 4.87-1.09l10.97 6.64V23.5l.02-.45a3.83 3.83 0 0 1 7.62 0l.03.45v18.02c0 .54.37 1 .88 1.12l.26.03h1.54c.63 0 1.15-.52 1.15-1.15V15.83l.02-.44a3.83 3.83 0 0 1 7.62 0l.03.44v25.69c0 .54.37 1 .88 1.12l.26.03h1.54c.63 0 1.15-.52 1.15-1.15V19.67l.02-.45a3.83 3.83 0 0 1 7.62 0l.03.45v21.85c0 .54.37 1 .88 1.12l.26.03h1.54c.63 0 1.15-.52 1.15-1.15V27.33l.02-.44a3.83 3.83 0 0 1 7.62 0l.03.44v38.34c0 8.47-6.87 15.33-15.34 15.33z"/></g></svg>