<svg width="16" height="16" viewBox="0 0 16 16" fill="none" xmlns="http://www.w3.org/2000/svg"><g clip-path="url(#clip0_11291_1429)"><mask id="mask0_11291_1429" style="mask-type:luminance" maskUnits="userSpaceOnUse" x="0" y="0" width="16" height="16"><path d="M16 0H0v16h16V0Z" fill="#fff"/></mask><g mask="url(#mask0_11291_1429)"><mask id="mask1_11291_1429" style="mask-type:luminance" maskUnits="userSpaceOnUse" x="0" y="0" width="16" height="16"><path d="M16 0H0v16h16V0Z" fill="#fff"/></mask><g mask="url(#mask1_11291_1429)"><path d="M10.722 0H5.287A5.287 5.287 0 0 0 0 5.287v5.435a5.287 5.287 0 0 0 5.287 5.287h5.435a5.287 5.287 0 0 0 5.287-5.287V5.287A5.287 5.287 0 0 0 10.722 0Z" fill="#fff"/><path d="M10.722 0H5.287A5.287 5.287 0 0 0 0 5.287v5.435a5.287 5.287 0 0 0 5.287 5.287h5.435a5.287 5.287 0 0 0 5.287-5.287V5.287A5.287 5.287 0 0 0 10.722 0Z" fill="#FF8F00" fill-opacity=".12"/></g></g></g><path fill-rule="evenodd" clip-rule="evenodd" d="M5.555 6.262a3 3 0 0 0 4.184 4.184L5.554 6.261Zm.707-.707 4.183 4.183a3 3 0 0 0-4.184-4.184ZM8 12a4 4 0 1 1 0-8 4 4 0 0 1 0 8Z" fill="#FF6F00"/><defs><clipPath id="clip0_11291_1429"><path fill="#fff" d="M0 0h16v16H0z"/></clipPath></defs></svg>