<svg viewBox="0 0 44 44" xmlns="http://www.w3.org/2000/svg" width="40" height="40"><g fill="none" fill-rule="evenodd"><rect width="27.5" height="32.5" x="1.25" y="1.25" fill="#D9DDE1" rx="2"/><path fill="#95999D" d="M4.74 1.45l13.75 5.91c.92.4 1.51 1.3 1.51 2.29v27.61a2.5 2.5 0 01-3.49 2.29L2.76 33.64a2.49 2.49 0 01-1.51-2.29V3.74a2.5 2.5 0 013.49-2.29z"/><path fill="#95999D" fill-rule="nonzero" d="M34.3 12.92l.15.13 5 5c.69.69.73 1.77.13 2.5l-.13.15-5 5-.14.13a1.88 1.88 0 01-2.64-2.64l.13-.14 1.8-1.8h-7.98a1.88 1.88 0 01-.18-3.74l.18-.01h7.98l-1.8-1.8a1.87 1.87 0 012.5-2.78z"/></g></svg>
