<svg width="32" height="32" viewBox="0 0 32 32" fill="none" xmlns="http://www.w3.org/2000/svg"><rect width="32" height="32" rx="10" fill="url(#paint0_linear_3096_880)"/><g filter="url(#filter0_d_3096_880)"><path fill-rule="evenodd" clip-rule="evenodd" d="M6.585 11.774a3.048 3.048 0 0 0-1.2 2.423v8.7a3.658 3.658 0 0 0 3.658 3.658H22.94a3.658 3.658 0 0 0 3.658-3.658v-8.7c0-.95-.444-1.847-1.2-2.423L17.84 6.009a3.048 3.048 0 0 0-3.697 0l-7.558 5.764Zm1.157 2.07v9.18c0 .674.546 1.22 1.22 1.22h14.06a1.22 1.22 0 0 0 1.219-1.22v-9.18l-6.85 4.798a2.439 2.439 0 0 1-2.798 0l-6.851-4.798Z" fill="#fff"/></g><defs><linearGradient id="paint0_linear_3096_880" x1="4.487" y1="28.638" x2="31.249" y2="1.55" gradientUnits="userSpaceOnUse"><stop stop-color="#1E91FF"/><stop offset=".997" stop-color="#2ED9FF"/></linearGradient><filter id="filter0_d_3096_880" x="3.753" y="4.079" width="24.477" height="24.434" filterUnits="userSpaceOnUse" color-interpolation-filters="sRGB"><feFlood flood-opacity="0" result="BackgroundImageFix"/><feColorMatrix in="SourceAlpha" values="0 0 0 0 0 0 0 0 0 0 0 0 0 0 0 0 0 0 127 0" result="hardAlpha"/><feOffset dy=".326"/><feGaussianBlur stdDeviation=".816"/><feComposite in2="hardAlpha" operator="out"/><feColorMatrix values="0 0 0 0 0 0 0 0 0 0 0 0 0 0 0 0 0 0 0.1 0"/><feBlend in2="BackgroundImageFix" result="effect1_dropShadow_3096_880"/><feBlend in="SourceGraphic" in2="effect1_dropShadow_3096_880" result="shape"/></filter></defs></svg>