<svg width="16" height="16" viewBox="0 0 16 16" fill="none" xmlns="http://www.w3.org/2000/svg"><g clip-path="url(#clip0_6882_51948)" fill-rule="evenodd" clip-rule="evenodd"><path d="m7 15.172-6.58-3.02c-.56-.264-.56-.672 0-.912l2.291-1.055 4.265 1.966c.56.264 1.463.264 1.999 0l4.265-1.966 2.29 1.055c.561.264.561.671 0 .911l-6.58 3.021c-.511.24-1.413.24-1.95 0Z" fill="url(#paint0_linear_6882_51948)"/><path d="M7 11.456.42 8.436c-.56-.265-.56-.672 0-.912l2.243-1.03L7 8.483c.56.263 1.462.263 1.998 0l4.338-1.99 2.242 1.03c.561.264.561.671 0 .911L9 11.456c-.56.264-1.462.264-1.998 0Z" fill="url(#paint1_linear_6882_51948)"/><path d="M7 7.836.42 4.815c-.56-.264-.56-.672 0-.911L7 .883c.561-.264 1.463-.264 2 0l6.58 3.02c.56.264.56.672 0 .912L9 7.835c-.561.24-1.463.24-2 0Z" fill="url(#paint2_linear_6882_51948)"/></g><defs><linearGradient id="paint0_linear_6882_51948" x1="7.994" y1="18.035" x2="7.994" y2="7.007" gradientUnits="userSpaceOnUse"><stop stop-color="#FCC2B1"/><stop offset=".885" stop-color="#D9420B"/></linearGradient><linearGradient id="paint1_linear_6882_51948" x1="7.994" y1="13.26" x2="7.994" y2="6.007" gradientUnits="userSpaceOnUse"><stop stop-color="#DEEDC9"/><stop offset=".661" stop-color="#8BBA25"/></linearGradient><linearGradient id="paint2_linear_6882_51948" x1="7.994" y1="10.323" x2="7.994" y2=".453" gradientUnits="userSpaceOnUse"><stop stop-color="#C2EBFA"/><stop offset="1" stop-color="#26A8DE"/></linearGradient><clipPath id="clip0_6882_51948"><path fill="#fff" transform="translate(0 .556)" d="M0 0h16v14.889H0z"/></clipPath></defs></svg>