<svg width="32" height="32" viewBox="0 0 32 32" fill="none" xmlns="http://www.w3.org/2000/svg"><path d="M30.002 28A1.997 1.997 0 0 0 32 25.995V6.005A2.003 2.003 0 0 0 29.998 4H2.001A1.998 1.998 0 0 0 0 6.005v19.99C0 27.102.895 28 1.998 28h28.004Z" fill="#E6D5FF"/><path fill-rule="evenodd" clip-rule="evenodd" d="M15 20.5c0-.75-1.5-3-3-3-.674 0-.894.152-1.136.319-.296.204-.625.431-1.864.431s-1.568-.227-1.864-.431C6.894 17.651 6.674 17.5 6 17.5c-1.5 0-3 2.25-3 3s0 1.5.75 1.5h10.5c.618 0 .727-.509.746-1.107L15 20.5Zm-3-7.125C12 11.511 10.657 10 9 10s-3 1.511-3 3.375 1.343 3.375 3 3.375 3-1.51 3-3.375ZM18 11a1 1 0 1 0 0 2h9a1 1 0 1 0 0-2h-9Zm0 4a1 1 0 1 0 0 2h9a1 1 0 1 0 0-2h-9Zm-1 5a1 1 0 0 1 1-1h9a1 1 0 1 1 0 2h-9a1 1 0 0 1-1-1Z" fill="#9C59FF"/></svg>