<svg width="32" height="32" viewBox="0 0 32 32" fill="none" xmlns="http://www.w3.org/2000/svg"><rect width="32" height="32" rx="10" fill="url(#paint0_linear_4180_38328)"/><g filter="url(#filter0_d_4180_38328)" fill="#fff"><mask id="path-2-inside-1_4180_38328"><path d="M18.955 5.711c2.579 0 3.868 0 4.853.502a4.605 4.605 0 0 1 2.013 2.013c.502.985.502 2.274.502 4.853v5.988c0 2.579 0 3.868-.502 4.853a4.605 4.605 0 0 1-2.013 2.013c-.985.502-2.274.502-4.853.502h-5.988c-2.579 0-3.868 0-4.853-.502A4.606 4.606 0 0 1 6.1 23.92c-.502-.985-.502-2.274-.502-4.853v-5.988c0-2.579 0-3.868.502-4.853a4.605 4.605 0 0 1 2.013-2.013c.985-.502 2.274-.502 4.853-.502h5.988Z"/></mask><path d="M18.955 5.711V3.223 5.71Zm4.853.502-1.13 2.217 1.13-2.217Zm2.013 2.013-2.218 1.13 2.218-1.13Zm.502 4.853h2.488-2.488Zm0 5.988h2.488-2.488Zm-.502 4.853-2.218-1.13 2.218 1.13Zm-2.013 2.013-1.13-2.218 1.13 2.218Zm-4.853.502v2.488-2.488Zm-5.988 0v2.488-2.488Zm-4.853-.502 1.13-2.217-1.13 2.217ZM6.1 23.92l2.217-1.13-2.217 1.13ZM5.6 19.067H3.111h2.488Zm0-5.988H3.111h2.488Zm.502-4.853 2.217 1.13-2.217-1.13Zm2.013-2.013 1.13 2.217-1.13-2.217Zm4.853-.502V3.223 5.71ZM18.955 8.2c1.33 0 2.178.002 2.821.054.614.05.82.134.902.176l2.26-4.434c-.902-.46-1.834-.627-2.756-.702-.893-.073-1.979-.071-3.227-.071V8.2Zm3.723.23c.399.203.723.527.925.926l4.435-2.26a7.093 7.093 0 0 0-3.1-3.1l-2.26 4.434Zm.925.926c.043.083.127.288.177.902.052.643.054 1.49.054 2.821h4.977c0-1.248.002-2.334-.07-3.227-.076-.922-.243-1.854-.703-2.756l-4.434 2.26Zm.231 3.723v5.988h4.977v-5.988h-4.977Zm0 5.988c0 1.33-.002 2.178-.054 2.821-.05.614-.134.82-.177.902l4.435 2.26c.46-.902.627-1.834.702-2.756.073-.893.071-1.979.071-3.227h-4.977Zm-.23 3.724a2.117 2.117 0 0 1-.926.924l2.26 4.435a7.093 7.093 0 0 0 3.1-3.1l-4.434-2.26Zm-.926.925c-.083.042-.288.126-.902.176-.643.052-1.49.054-2.821.054v4.977c1.248 0 2.334.002 3.227-.07.922-.076 1.854-.243 2.756-.703l-2.26-4.434Zm-3.723.23h-5.988v4.977h5.988v-4.977Zm-5.988 0c-1.33 0-2.178-.002-2.822-.054-.614-.05-.818-.134-.901-.176l-2.26 4.434c.902.46 1.834.627 2.756.702.893.073 1.979.071 3.227.071v-4.977Zm-3.724-.23a2.117 2.117 0 0 1-.925-.925L3.884 25.05a7.094 7.094 0 0 0 3.1 3.1l2.26-4.434Zm-.925-.926c-.042-.083-.126-.288-.176-.902-.052-.643-.054-1.49-.054-2.821H3.11c0 1.248-.002 2.334.07 3.227.076.922.243 1.854.703 2.756l4.434-2.26Zm-.23-3.723v-5.988H3.11v5.988h4.977Zm0-5.988c0-1.33.002-2.178.054-2.821.05-.614.134-.82.176-.902l-4.434-2.26c-.46.902-.627 1.834-.702 2.756-.073.893-.071 1.979-.071 3.227h4.977Zm.23-3.723c.203-.399.527-.723.925-.926L6.984 3.996a7.094 7.094 0 0 0-3.1 3.1l4.434 2.26Zm.926-.926c.083-.042.287-.126.902-.176.643-.052 1.49-.054 2.821-.054V3.223c-1.248 0-2.334-.002-3.227.07-.922.076-1.854.243-2.756.703l2.26 4.434Zm3.723-.23h5.988V3.223h-5.988V8.2Z" mask="url(#path-2-inside-1_4180_38328)"/></g><g filter="url(#filter1_d_4180_38328)"><circle cx="13.5" cy="13.5" r="2.5" fill="#fff"/></g><path d="M7.538 23.26a.467.467 0 0 0 .377.74h17.162a.467.467 0 0 0 .376-.743l-5.205-7.071a1 1 0 0 0-1.654.063l-2.955 4.728a1 1 0 0 1-1.641.08l-1.682-2.194a1 1 0 0 0-1.603.021L7.538 23.26Z" fill="#fff"/><defs><filter id="filter0_d_4180_38328" x="3.967" y="4.406" width="23.987" height="23.987" filterUnits="userSpaceOnUse" color-interpolation-filters="sRGB"><feFlood flood-opacity="0" result="BackgroundImageFix"/><feColorMatrix in="SourceAlpha" values="0 0 0 0 0 0 0 0 0 0 0 0 0 0 0 0 0 0 127 0" result="hardAlpha"/><feOffset dy=".326"/><feGaussianBlur stdDeviation=".816"/><feComposite in2="hardAlpha" operator="out"/><feColorMatrix values="0 0 0 0 0 0 0 0 0 0 0 0 0 0 0 0 0 0 0.1 0"/><feBlend in2="BackgroundImageFix" result="effect1_dropShadow_4180_38328"/><feBlend in="SourceGraphic" in2="effect1_dropShadow_4180_38328" result="shape"/></filter><filter id="filter1_d_4180_38328" x="9.368" y="9.695" width="8.264" height="8.264" filterUnits="userSpaceOnUse" color-interpolation-filters="sRGB"><feFlood flood-opacity="0" result="BackgroundImageFix"/><feColorMatrix in="SourceAlpha" values="0 0 0 0 0 0 0 0 0 0 0 0 0 0 0 0 0 0 127 0" result="hardAlpha"/><feOffset dy=".326"/><feGaussianBlur stdDeviation=".816"/><feComposite in2="hardAlpha" operator="out"/><feColorMatrix values="0 0 0 0 0 0 0 0 0 0 0 0 0 0 0 0 0 0 0.1 0"/><feBlend in2="BackgroundImageFix" result="effect1_dropShadow_4180_38328"/><feBlend in="SourceGraphic" in2="effect1_dropShadow_4180_38328" result="shape"/></filter><linearGradient id="paint0_linear_4180_38328" x1="5.548" y1="29.127" x2="30.188" y2="1.958" gradientUnits="userSpaceOnUse"><stop offset=".23" stop-color="#50BBC7"/><stop offset="1" stop-color="#73DEEA"/></linearGradient></defs></svg>