<svg width="365" height="127" viewBox="0 0 365 127" fill="none" xmlns="http://www.w3.org/2000/svg"><path d="M0 3.788h27.89L55.437 80.4c1.95 5.624 3.385 10.674 4.304 15.15.918-4.705 2.352-9.755 4.304-15.15L91.59 3.788h27.374l-47.69 120.514H48.033L0 3.788Z" fill="url(#paint0_linear_3_41)"/><path d="M123.804 34.777h23.242v89.525h-23.242V34.777Zm-2.41-21.176c0-3.788 1.32-7.001 3.959-9.641 2.755-2.64 6.084-3.96 9.986-3.96 4.017 0 7.346 1.32 9.985 3.96 2.64 2.64 3.96 5.853 3.96 9.64 0 3.903-1.32 7.174-3.96 9.814-2.639 2.64-5.968 3.96-9.985 3.96-3.902 0-7.231-1.32-9.986-3.96-2.639-2.754-3.959-6.026-3.959-9.813Z" fill="url(#paint1_linear_3_41)"/><path d="M191.437 126.54c-15.035 0-27.431-5.222-37.187-15.667l15.667-14.29c6.542 7.346 13.543 11.019 21.004 11.019 3.902 0 6.944-.861 9.124-2.583 2.181-1.721 3.271-3.959 3.271-6.714 0-2.525-1.09-4.476-3.271-5.854-2.066-1.492-6.427-3.041-13.084-4.648-10.904-2.64-18.249-6.255-22.037-10.846-3.673-4.591-5.509-10.272-5.509-17.044 0-8.035 2.984-14.577 8.952-19.627 5.969-5.165 14.118-7.747 24.447-7.747 7.461 0 13.716 1.148 18.766 3.443 5.165 2.296 9.986 6.313 14.462 12.051L209.17 60.947c-4.017-6.428-9.297-9.641-15.839-9.641-3.329 0-6.026.688-8.092 2.066-2.066 1.262-3.099 3.213-3.099 5.853 0 1.837.746 3.443 2.238 4.82 1.607 1.263 4.878 2.526 9.814 3.788 12.281 3.214 20.659 7.174 25.136 11.88 4.591 4.705 6.886 10.674 6.886 17.904 0 5.395-1.549 10.33-4.648 14.806-2.984 4.362-7.116 7.805-12.396 10.33-5.28 2.525-11.191 3.788-17.733 3.788Z" fill="url(#paint2_linear_3_41)"/><path d="M235.273 34.777h23.242v89.525h-23.242V34.777Zm-2.41-21.176c0-3.788 1.319-7.001 3.959-9.641 2.755-2.64 6.083-3.96 9.986-3.96 4.017 0 7.345 1.32 9.985 3.96 2.64 2.64 3.96 5.853 3.96 9.64 0 3.903-1.32 7.174-3.96 9.814-2.64 2.64-5.968 3.96-9.985 3.96-3.903 0-7.231-1.32-9.986-3.96-2.64-2.754-3.959-6.026-3.959-9.813Z" fill="url(#paint3_linear_3_41)"/><path d="M316.507 126.54c-9.067 0-17.216-2.066-24.447-6.198-7.231-4.247-12.913-9.928-17.044-17.044-4.132-7.231-6.198-15.093-6.198-23.587 0-8.493 2.066-16.355 6.198-23.586 4.131-7.23 9.813-12.912 17.044-17.044 7.231-4.247 15.38-6.37 24.447-6.37 9.067 0 17.216 2.123 24.447 6.37 7.231 4.132 12.912 9.813 17.044 17.044s6.198 15.093 6.198 23.587c0 8.493-2.066 16.355-6.198 23.586-4.132 7.116-9.813 12.797-17.044 17.044-7.231 4.132-15.38 6.198-24.447 6.198ZM292.06 79.711c0 4.706.975 9.01 2.926 12.913 2.066 3.902 4.936 7.001 8.609 9.296 3.787 2.296 8.091 3.444 12.912 3.444 4.82 0 9.067-1.148 12.74-3.444 3.787-2.295 6.657-5.394 8.608-9.296 2.066-3.903 3.099-8.207 3.099-12.912 0-4.706-1.033-9.01-3.099-12.913-2.066-3.902-4.935-7.001-8.608-9.297-3.673-2.41-7.92-3.615-12.74-3.615-4.821 0-9.067 1.205-12.74 3.615-3.673 2.296-6.542 5.395-8.608 9.297-2.066 3.903-3.099 8.207-3.099 12.912Z" fill="url(#paint4_linear_3_41)"/><defs><linearGradient id="paint0_linear_3_41" x1="57.801" y1="-30.863" x2="57.801" y2="174.641" gradientUnits="userSpaceOnUse"><stop stop-color="#77CC12"/><stop offset="1" stop-color="#5AC840"/></linearGradient><linearGradient id="paint1_linear_3_41" x1="57.801" y1="-30.863" x2="57.801" y2="174.641" gradientUnits="userSpaceOnUse"><stop stop-color="#77CC12"/><stop offset="1" stop-color="#5AC840"/></linearGradient><linearGradient id="paint2_linear_3_41" x1="57.801" y1="-30.863" x2="57.801" y2="174.641" gradientUnits="userSpaceOnUse"><stop stop-color="#77CC12"/><stop offset="1" stop-color="#5AC840"/></linearGradient><linearGradient id="paint3_linear_3_41" x1="57.801" y1="-30.863" x2="57.801" y2="174.641" gradientUnits="userSpaceOnUse"><stop stop-color="#77CC12"/><stop offset="1" stop-color="#5AC840"/></linearGradient><linearGradient id="paint4_linear_3_41" x1="57.801" y1="-30.863" x2="57.801" y2="174.641" gradientUnits="userSpaceOnUse"><stop stop-color="#77CC12"/><stop offset="1" stop-color="#5AC840"/></linearGradient></defs></svg>