<svg width="48" height="48" viewBox="0 0 48 48" fill="none" xmlns="http://www.w3.org/2000/svg"><rect y="4" width="48" height="44" rx="8" fill="#D1D5DB"/><path d="M0 12a8 8 0 0 1 8-8h32a8 8 0 0 1 8 8v4H0v-4ZM6 27a3 3 0 1 1 6 0 3 3 0 0 1-6 0ZM9 34a3 3 0 1 0 0 6 3 3 0 0 0 0-6ZM16 27a3 3 0 1 1 6 0 3 3 0 0 1-6 0ZM19 34a3 3 0 1 0 0 6 3 3 0 0 0 0-6ZM26 27a3 3 0 1 1 6 0 3 3 0 0 1-6 0ZM29 34a3 3 0 1 0 0 6 3 3 0 0 0 0-6ZM36 27a3 3 0 1 1 6 0 3 3 0 0 1-6 0ZM39 34a3 3 0 1 0 0 6 3 3 0 0 0 0-6Z" fill="#5D6165"/><path d="M12 0a3 3 0 0 0-3 3v6a3 3 0 1 0 6 0V3a3 3 0 0 0-3-3ZM36 0a3 3 0 0 0-3 3v6a3 3 0 1 0 6 0V3a3 3 0 0 0-3-3Z" fill="#95999D"/></svg>