<svg width="48" height="48" viewBox="0 0 48 48" xmlns="http://www.w3.org/2000/svg"><g fill="none" fill-rule="evenodd"><path d="M43 9c.552 0 1 .438 1 1.003v36.994A.996.996 0 0 1 42.997 48H8.99C6.787 48 5 46.206 5 43.99V4.01A4 4 0 0 1 8.995 0h32.502A.998.998 0 0 1 42.5.999v1.002a1 1 0 0 1-.995.999H10.004A2.003 2.003 0 0 0 8 4.998v2.004C8 8.106 8.89 9 10 9h33ZM9.5 6a1.5 1.5 0 0 1 1.498-1.5h28.504a1.5 1.5 0 0 1 0 3H10.998A1.495 1.495 0 0 1 9.5 6Z" fill="#d6d8da"/><path d="M24.5 30c-3.314 0-6-3.022-6-6.75s2.686-6.75 6-6.75 6 3.022 6 6.75-2.686 6.75-6 6.75Zm-12 7.5c0-1.5 3-6 6-6s1.5 1.5 6 1.5 3-1.5 6-1.5 6 4.5 6 6 0 3-1.5 3H14c-1.5 0-1.5-1.5-1.5-3Z" fill="#5d6165"/></g></svg>