<svg width="48" height="48" viewBox="0 0 48 48" xmlns="http://www.w3.org/2000/svg"><g fill="none" fill-rule="evenodd"><path d="M48 40c0 1.105-.902 2-2.009 2H36v-4.501C36 36.67 35.336 36 34.502 36h-1.504c-.827 0-1.498.665-1.498 1.499V42h-15v-4.501c0-.828-.664-1.499-1.498-1.499h-1.504c-.827 0-1.498.665-1.498 1.499V42H2.009A2 2 0 0 1 0 40V8a2 2 0 0 1 2.001-2H46C47.104 6 48 6.89 48 8v32Z" fill="#d6d8da"/><path d="M25.5 13.5h9V15h-9v-1.5Zm0 4.5H42v1.5H25.5V18Zm0 4.5H42V24H25.5v-1.5Zm0 4.5H42v1.5H25.5V27Zm-12-4.875c-2.485 0-4.5-2.267-4.5-5.063C9 14.268 11.015 12 13.5 12s4.5 2.267 4.5 5.063c0 2.795-2.015 5.062-4.5 5.062Zm-9 5.625c0-1.125 2.25-4.5 4.5-4.5s1.125 1.125 4.5 1.125 2.25-1.125 4.5-1.125 4.5 3.375 4.5 4.5 0 2.25-1.125 2.25H5.625C4.5 30 4.5 28.875 4.5 27.75Z" fill="#5d6165"/></g></svg>