<svg width="16" height="16" viewBox="0 0 16 16" fill="none" xmlns="http://www.w3.org/2000/svg"><path fill="#fff" d="M0 0h16v16H0z"/><path d="M8 15.059c6.828-2.67 6.298-6.466 5.944-12.128C11.75 2.834 9.804 2.159 8 1.033 6.196 2.159 4.25 2.834 2.056 2.93 1.703 8.593 1.172 12.389 8 15.059Z" fill="#383941"/><path d="m8 0-.463.289c-1.691 1.055-3.493 1.677-5.52 1.766l-.785.035-.049.786-.045.697c-.162 2.486-.314 4.817.369 6.826.787 2.317 2.614 4.084 6.175 5.477L8 16v-.941c-6.56-2.566-6.328-6.17-5.986-11.47l.042-.658C4.25 2.834 6.196 2.159 8 1.033V0Z" fill="#E0E0E0"/><path d="m8 0 .463.289c1.691 1.055 3.493 1.677 5.52 1.766l.785.035.049.786.045.697c.162 2.486.314 4.817-.369 6.826-.787 2.317-2.614 4.084-6.175 5.477L8 16v-.941c6.56-2.566 6.328-6.17 5.986-11.47l-.042-.658C11.75 2.834 9.804 2.159 8 1.033V0Z" fill="#A0A0A0"/><path d="M5.842 5.514h.31a.47.47 0 0 1 .331.136.46.46 0 0 1 .137.327v4.699H5.375V5.977c0-.123.05-.24.137-.327a.47.47 0 0 1 .33-.136ZM8 7.802h.31a.47.47 0 0 1 .331.136.46.46 0 0 1 .137.327v2.41H7.532v-2.41c0-.123.049-.24.137-.327a.47.47 0 0 1 .33-.136Zm2.285-.885h.31a.47.47 0 0 1 .331.136.46.46 0 0 1 .137.327v3.296H9.817V7.38c0-.123.05-.24.137-.327a.47.47 0 0 1 .33-.136Z" fill="#E0E0E0"/></svg>