<svg xmlns="http://www.w3.org/2000/svg" width="48" height="48" viewBox="0 0 48 48"><g fill="none" fill-rule="evenodd" clip-rule="evenodd"><path d="M43.302 1.481a2 2 0 0 1 .217 2.82l-12 14a2 2 0 0 1-2.151.596L18.424 15.25 7.28 24.536a2 2 0 1 1-2.56-3.072l12-10a2 2 0 0 1 1.913-.361l10.724 3.574L40.48 1.698a2 2 0 0 1 2.82-.217Z" fill="#D6D8DA"/><path d="M42 6a3 3 0 1 0 0-6 3 3 0 0 0 0 6ZM18 16a3 3 0 1 0 0-6 3 3 0 0 0 0 6ZM6 26a3 3 0 1 0 0-6 3 3 0 0 0 0 6Zm27-9a3 3 0 1 1-6 0 3 3 0 0 1 6 0Z" fill="#95999D"/><path d="M40 16a2 2 0 0 0-2 2v28a2 2 0 0 0 2 2h4a2 2 0 0 0 2-2V18a2 2 0 0 0-2-2h-4ZM16 26a2 2 0 0 0-2 2v18a2 2 0 0 0 2 2h4a2 2 0 0 0 2-2V28a2 2 0 0 0-2-2h-4ZM4 36a2 2 0 0 0-2 2v8a2 2 0 0 0 2 2h4a2 2 0 0 0 2-2v-8a2 2 0 0 0-2-2H4Zm22-4a2 2 0 0 1 2-2h4a2 2 0 0 1 2 2v14a2 2 0 0 1-2 2h-4a2 2 0 0 1-2-2V32Z" fill="#5D6165"/></g></svg>