<svg width="16" height="16" viewBox="0 0 16 16" fill="none" xmlns="http://www.w3.org/2000/svg"><path fill="#fff" d="M0 0h16v16H0z"/><path d="M8.276 5.908h-.552a.835.835 0 0 0-.587.24.818.818 0 0 0-.243.582v5.855h2.212V6.73a.818.818 0 0 0-.243-.582.835.835 0 0 0-.587-.24ZM11.828 3.415h-.551a.834.834 0 0 0-.587.241.818.818 0 0 0-.243.582v8.347h2.212V4.238a.818.818 0 0 0-.244-.582.834.834 0 0 0-.587-.24ZM4.723 7.48H4.17a.835.835 0 0 0-.587.24.818.818 0 0 0-.243.582v4.283h2.212V8.302a.818.818 0 0 0-.243-.581.835.835 0 0 0-.587-.241Z" fill="#7B7B7B"/></svg>