<svg xmlns="http://www.w3.org/2000/svg" width="48" height="48" viewBox="0 0 48 48" xmlns:xlink="http://www.w3.org/1999/xlink"><defs><path id="a" d="M46 23c0 12.704-10.298 23-23 23C10.296 46 0 35.704 0 23 0 10.3 10.296 0 23 0c12.702 0 23 10.3 23 23Z"/></defs><g transform="translate(1 1)" fill="none" fill-rule="evenodd"><mask id="b" fill="#fff"><use xlink:href="#a"/></mask><use fill="#d6d8da" xlink:href="#a"/><path fill="#5d6165" d="M9 25a6 6 0 0 1 6 6v16H3V31a6 6 0 0 1 6-6Zm0-2a6 6 0 1 1 0-12 6 6 0 0 1 0 12Zm28 0a6 6 0 1 1 0-12 6 6 0 0 1 0 12Zm-14 8a6 6 0 1 1 0-12 6 6 0 0 1 0 12Zm14-6a6 6 0 0 1 6 6v16H31V31a6 6 0 0 1 6-6Zm-14 8a6 6 0 0 1 6 6v8H17v-8a6 6 0 0 1 6-6Z" mask="url(#b)"/></g></svg>