<svg xmlns="http://www.w3.org/2000/svg" width="48" height="48" viewBox="0 0 48 48" xmlns:xlink="http://www.w3.org/1999/xlink"><defs><path id="a" d="M46 23c0 12.704-10.298 23-23 23C10.296 46 0 35.704 0 23 0 10.3 10.296 0 23 0c12.702 0 23 10.3 23 23Z"/></defs><g transform="translate(1 1)" fill="none" fill-rule="evenodd"><mask id="b" fill="#fff"><use xlink:href="#a"/></mask><use fill="#d6d8da" xlink:href="#a"/><path fill="#5d6165" d="M23 27c-5.523 0-10-4.701-10-10.5S17.477 6 23 6s10 4.701 10 10.5S28.523 27 23 27Zm0 38c-9.941 0-18-8.059-18-18s8.059-18 18-18 18 8.059 18 18-8.059 18-18 18Z" mask="url(#b)"/></g></svg>