<svg width="48" height="48" viewBox="0 0 48 48" xmlns="http://www.w3.org/2000/svg"><g fill="none" fill-rule="evenodd"><rect fill="#d6d8da" width="38" height="38" rx="2"/><g transform="matrix(1 0 0 -1 11 32)" fill="#5d6165"><rect width="10" height="4" rx="2"/><rect y="8" width="15" height="4" rx="2"/><rect y="16" width="23" height="4" rx="2"/><rect y="24" width="23" height="4" rx="2"/></g><g transform="translate(24 24)"><circle fill="#5d6165" cx="12" cy="12" r="12"/><path d="M12.328 12.333V5.667a.667.667 0 0 0-1.333 0v8h5.333a.667.667 0 0 0 0-1.334h-4Z" stroke="#d6d8da" fill="#d6d8da"/></g><circle fill="#5d6165" cx="6" cy="14" r="2"/><circle fill="#5d6165" cx="6" cy="6" r="2"/><circle fill="#5d6165" cx="6" cy="22" r="2"/><circle fill="#5d6165" cx="6" cy="30" r="2"/></g></svg>