<svg width="48" height="48" viewBox="0 0 48 48" fill="none" xmlns="http://www.w3.org/2000/svg"><path fill-rule="evenodd" clip-rule="evenodd" d="M42 0H6C2.692 0 0 2.692 0 6v36c0 3.308 2.692 6 6 6h36c3.308 0 6-2.692 6-6V6c0-3.308-2.692-6-6-6Z" fill="#D6D8DA"/><path fill-rule="evenodd" clip-rule="evenodd" d="M24 6c9.941 0 18 8.06 18 18 0 9.941-8.059 18-18 18A18.003 18.003 0 0 1 7.516 31.24l-.192-.452a2 2 0 0 1 3.64-1.652l.102.233A14.003 14.003 0 0 0 24 38c7.732 0 14-6.268 14-14s-6.268-14-14-14c-4.317 0-8.288 1.97-10.904 5.217a1.999 1.999 0 0 1 2.33.38l.11.123a2 2 0 0 1-.134 2.706l-.122.11-6 5c-1.263 1.053-3.16.214-3.275-1.384L6 22v-8a2 2 0 0 1 3.74-.987A17.981 17.981 0 0 1 24 6Zm0 8a2 2 0 0 1 2 2v7.172l3.414 3.414A1.998 1.998 0 0 1 28 30a1.995 1.995 0 0 1-1.414-.586l-4-3.998A2.05 2.05 0 0 1 22 24v-8a2 2 0 0 1 2-2Z" fill="#5D6165"/></svg>