<svg width="16" height="13" viewBox="0 0 16 13" xmlns="http://www.w3.org/2000/svg"><path d="M3.114 6.594 5.75 9.231a.833.833 0 0 1 .261.636.915.915 0 0 1-.284.636.959.959 0 0 1-.636.262.833.833 0 0 1-.636-.262L.273 6.321A.872.872 0 0 1 0 5.685c0-.242.09-.454.273-.636L4.455.867a.848.848 0 0 1 .625-.25c.25 0 .465.083.647.25A.885.885 0 0 1 6 1.515c0 .25-.09.466-.273.647L3.114 4.776h8.34c1.258 0 2.33.443 3.216 1.33.887.886 1.33 1.958 1.33 3.215v2.728a.88.88 0 0 1-.261.648.88.88 0 0 1-.648.26.88.88 0 0 1-.648-.26.88.88 0 0 1-.261-.648V9.32a2.63 2.63 0 0 0-.796-1.931 2.63 2.63 0 0 0-1.931-.796H3.114Z"/></svg>