<svg xmlns="http://www.w3.org/2000/svg" width="16" height="16" viewBox="0 0 16 16">
    <path fill-rule="evenodd" d="M11.88 8.5c.023 2.422 2.125 3.227 2.148 3.238-.018.056-.336 1.148-1.107 2.275-.667.975-1.36 1.946-2.45 1.966-1.07.02-1.415-.635-2.64-.635s-1.607.615-2.622.655c-1.052.04-1.853-1.054-2.526-2.025C1.31 11.987.26 8.36 1.67 5.912c.7-1.215 1.952-1.985 3.31-2.005 1.034-.02 2.01.695 2.641.695.632 0 1.817-.86 3.063-.733.522.022 1.986.21 2.927 1.587-.076.047-1.748 1.02-1.73 3.044M9.868 2.555c.559-.677.935-1.618.832-2.555-.805.032-1.779.537-2.357 1.213-.517.598-.97 1.556-.848 2.475.897.069 1.814-.457 2.373-1.133"/>
</svg>
