<svg width="16" height="16" viewBox="0 0 16 16" fill="none" xmlns="http://www.w3.org/2000/svg"><path d="M10.611 0c1.588 0 2.351.147 3.144.572.72.384 1.289.953 1.673 1.673.425.793.572 1.556.572 3.144v5.222c0 1.588-.147 2.351-.572 3.144a4.032 4.032 0 0 1-1.673 1.673c-.793.425-1.556.572-3.144.572H5.39c-1.588 0-2.351-.147-3.144-.572a4.032 4.032 0 0 1-1.673-1.673C.147 12.962 0 12.2 0 10.611V5.39C0 3.8.147 3.038.572 2.245A4.031 4.031 0 0 1 2.245.572C3.038.147 3.8 0 5.389 0h5.222Zm0 1.455H5.39c-1.368 0-1.905.103-2.458.4-.466.248-.828.61-1.077 1.076-.296.553-.4 1.09-.4 2.458v5.222c0 1.368.104 1.905.4 2.458.25.466.61.828 1.077 1.077.553.296 1.09.4 2.458.4h5.222c1.368 0 1.905-.104 2.458-.4.466-.25.828-.61 1.077-1.077.296-.553.4-1.09.4-2.458V5.39c0-1.368-.104-1.905-.4-2.458a2.577 2.577 0 0 0-1.077-1.077c-.553-.296-1.09-.4-2.458-.4Zm-3.338 9.09a.727.727 0 1 1 0 1.455h-2.91a.727.727 0 1 1 0-1.454h2.91Zm4.363-3.272a.727.727 0 0 1 0 1.454H4.364a.727.727 0 1 1 0-1.454h7.272Zm0-3.273a.727.727 0 0 1 0 1.455H4.364a.727.727 0 0 1 0-1.455h7.272Z" fill="#424244"/></svg>