<svg xmlns="http://www.w3.org/2000/svg" width="16" height="16"><path d="M11.2 10.896a.896.896 0 1 0 0-1.792.896.896 0 0 0 0 1.792Z"/><path fill-rule="evenodd" d="M11.2 11.6c-.584 0-1.752.288-1.792.864a2.19 2.19 0 0 0 1.792.936 2.19 2.19 0 0 0 1.792-.936c-.04-.576-1.208-.864-1.792-.864Z" clip-rule="evenodd"/><path fill-rule="evenodd" d="M12 6.472V2.616L6 0 0 2.616v3.928c0 3.632 2.56 7.032 6 7.856.44-.104.864-.256 1.28-.44A4.778 4.778 0 0 0 11.2 16c2.648 0 4.8-2.152 4.8-4.8a4.798 4.798 0 0 0-4-4.728ZM6.4 11.2c0 .448.064.888.184 1.296a5.27 5.27 0 0 1-.584.24c-2.536-.8-4.4-3.392-4.4-6.192v-2.88L6 1.744l4.4 1.92v2.808a4.798 4.798 0 0 0-4 4.728Zm4.8 3.2a3.2 3.2 0 1 1 0-6.4 3.2 3.2 0 1 1 0 6.4Z" clip-rule="evenodd"/></svg>