<svg width="16" height="16" viewBox="0 0 16 16" xmlns="http://www.w3.org/2000/svg"><path fill-rule="evenodd" clip-rule="evenodd" d="M11.669 1.52A3.99 3.99 0 0 0 5.142 3.5H4v2h1.142l.054.19a3.987 3.987 0 0 0 6.632 1.639l-1.415-1.415-.125.115C9.94 6.322 9.49 6.5 9 6.5a1.993 1.993 0 0 1-1.722-1H9v-2H7.278l.085-.134a1.988 1.988 0 0 1 3.051-.28l1.414-1.415-.16-.15ZM8.986 10c0-.552-.449-1-1.002-1H2.462c-.532 0-1.042.21-1.417.586L.629 10a2.142 2.142 0 0 0-.475 2.313l.974 2.43A2.004 2.004 0 0 0 2.988 16H7.41c.376 0 .744-.105 1.062-.304L16 11v-.25c0-.69-.56-1.25-1.252-1.25a4.84 4.84 0 0 0-2.348.607L8.986 12H4.978v-1h3.006c.553 0 1.002-.448 1.002-1Z"/></svg>