<svg width="16" height="16" viewBox="0 0 16 16" xmlns="http://www.w3.org/2000/svg"><path d="M12.5 3a2 2 0 1 1-4 0 2 2 0 0 1 4 0ZM8.457 7.543c.182.156.379.309.588.453C9.816 8.53 10.838 9 12 9a1 1 0 1 0 0-2c-.62 0-1.25-.257-1.819-.65s-.999-.867-1.204-1.164A1.561 1.561 0 0 0 7.701 4.5c-.394 0-.772.156-1.05.435L4.447 7.139a1.527 1.527 0 0 0 .233 2.35L7 11.034V14a1 1 0 1 0 2 0v-3.5a1 1 0 0 0-.445-.832l-1.334-.89 1.236-1.235Z"/><path fill-rule="evenodd" clip-rule="evenodd" d="M16 13a3 3 0 1 1-6 0 3 3 0 0 1 6 0Zm-1.5 0a1.5 1.5 0 1 1-3 0 1.5 1.5 0 0 1 3 0ZM3 16a3 3 0 1 0 0-6 3 3 0 0 0 0 6Zm0-1.5a1.5 1.5 0 1 0 0-3 1.5 1.5 0 0 0 0 3Z"/></svg>