<svg xmlns="http://www.w3.org/2000/svg" width="16" height="16" viewBox="0 0 16 16">
    <path fill-rule="evenodd"  d="M13 8c1.025 0 1.96.386 2.669 1.02l.159.151-1.414 1.415C14.052 10.224 13.551 10 13 10c-.68 0-1.276.345-1.637.866l-.085.134H13v2h-1.722c.347.595.985 1 1.722 1 .49 0 .94-.178 1.288-.47l.125-.116 1.415 1.415C15.104 15.553 14.104 16 13 16c-1.793 0-3.298-1.185-3.804-2.81L9.142 13H8v-2h1.142C9.587 9.278 11.138 8 13 8zm-8 4c.552 0 1 .448 1 1s-.448 1-1 1H1c-.552 0-1-.448-1-1s.448-1 1-1h4zm0-4c.552 0 1 .448 1 1s-.448 1-1 1H1c-.552 0-1-.448-1-1s.448-1 1-1h4zm10-8c.552 0 1 .448 1 1s-.448 1-1 1H1c-.552 0-1-.448-1-1s.448-1 1-1h14zm0 4c.552 0 1 .448 1 1s-.448 1-1 1H1c-.552 0-1-.448-1-1s.448-1 1-1h14z"/>
</svg>
