<svg xmlns="http://www.w3.org/2000/svg" width="16" height="16" viewBox="0 0 16 16">
    <path fill-rule="evenodd" d="M4.036 6.978l-2.29-3.966A7.985 7.985 0 0 1 8 .001a7.996 7.996 0 0 1 6.883 3.921H8.356a4.101 4.101 0 0 0-4.32 3.055zm6.828-1.9h4.585a8 8 0 0 1-7.359 10.92l3.273-5.665a4.081 4.081 0 0 0-.498-5.254zm-5.77 2.923A2.91 2.91 0 0 1 8 5.094a2.91 2.91 0 0 1 2.906 2.907A2.91 2.91 0 0 1 8 10.907 2.91 2.91 0 0 1 5.094 8zm4.003 3.944l-2.29 3.967a8.002 8.002 0 0 1-5.78-11.834l3.266 5.657a4.099 4.099 0 0 0 4.804 2.21z"/>
</svg>
