<svg xmlns="http://www.w3.org/2000/svg" width="16" height="16" viewBox="0 0 16 16">
    <path fill-rule="evenodd" d="M15.79 5.961a.13.13 0 0 0-.14.075l-.178.395c-.067-.519-.193-1.355-.359-1.903a3.664 3.664 0 0 0-.812-1.412.13.13 0 0 0-.22.12l.139.626c-.334-.349-.87-.85-1.4-1.093a9.105 9.105 0 0 0-.37-.168 6.264 6.264 0 0 0-4.164-1.588 6.246 6.246 0 0 0-5.293 2.902 1.16 1.16 0 0 1-.352-.467c-.16-.393-.241-.834-.242-.838a.13.13 0 0 0-.219-.072c-.96.921-.865 2.357-.83 2.682a7.072 7.072 0 0 0-.794 1.048C.134 6.944.006 8.125 0 8.175a.13.13 0 0 0 .225.103l.28-.297c-.03.114-.06.243-.09.388C.29 8.996.328 9.967.33 10.008a.13.13 0 0 0 .249.05l.165-.35c.122.853.59 2.666 2.385 4.337 1.33 1.238 3.179 1.949 5.073 1.949 1.84 0 3.576-.658 5.021-1.902 1.71-1.473 2.347-3.576 2.58-5.08.251-1.625.104-2.885.098-2.937a.13.13 0 0 0-.11-.114zm-2.919.047c.002.003.18.235.218.83.027.445-.065 1.158-.122 1.547l-.349-.404a.13.13 0 0 0-.229.101c.002.01.12 1.017-.08 1.891a2.791 2.791 0 0 1-.369.902l.049-.659a.13.13 0 0 0-.25-.064c-.005.013-.609 1.31-2.262 1.823-.231.07-.474.107-.723.107-.882 0-1.682-.45-2.136-.766l.116.003c.65 0 1.15-.28 1.552-.505.106-.059.206-.115.302-.162.577-.29.846-.315 1.052-.315a.216.216 0 0 0 .22-.166c.064-.251-.238-.7-.611-.904a1.254 1.254 0 0 0-.623-.148c-.381 0-.854.12-1.531.304a1.42 1.42 0 0 1-.365.05c-.415 0-.69-.201-.846-.37-.212-.226-.332-.526-.314-.78.008-.117.053-.236.33-.236.246 0 .52.1.522.102a.13.13 0 0 0 .046.008h.001a.13.13 0 0 0 .13-.151L6.561 6.9c.132-.084.448-.29.751-.51.735-.534.833-.738.755-.893-.104-.212-.379-.246-.696-.286a3.054 3.054 0 0 1-.573-.11c-.388-.129-.643-.463-.701-.545a.784.784 0 0 1 .073-.499c.123-.216.549-.55.702-.662a.13.13 0 0 0-.062-.236c-.013-.001-.404-.04-1.042.171-.52.174-.922.456-1.06.56a3.823 3.823 0 0 0-.332-.045 5.202 5.202 0 0 1 3.909-1.762 5.15 5.15 0 0 1 3.033.973l-.879.147a.13.13 0 0 0-.017.254c.012.003 1.182.373 2.055 1.047.195.152.372.349.529.585.145.313.26.635.34.962l-.294-.229a.131.131 0 0 0-.182.185z"/>
</svg>
