<svg xmlns="http://www.w3.org/2000/svg" width="16" height="16" viewBox="0 0 16 16">
  <path fill-rule="evenodd" d="M13.4967 10.1297C11.9007 10.5367 10.834 10.403 10.1674 10.173C9.93103 10.0932 9.73878 9.91834 9.637 9.69061C9.53522 9.46288 9.53318 9.20299 9.63136 8.97369C10.0067 8.07802 10.2684 6.40502 8.18802 4.75536C8.18709 4.75477 8.18619 4.75398 8.18531 4.7532C8.18368 4.75176 8.18209 4.75036 8.18036 4.75036C4.49602 2.43436 1.52736 4.45569 0.794024 5.04236C0.770077 5.0613 0.736554 5.06235 0.71147 5.04494C0.686386 5.02752 0.675647 4.99575 0.685024 4.96669C1.01569 3.95236 2.74602 -0.15831 9.05102 0.0293567C13.598 0.164357 16.196 4.30269 15.744 7.38402C15.5937 8.41069 14.885 9.59136 13.5064 10.1267C13.5047 10.1274 13.5031 10.128 13.5014 10.1285C13.4998 10.129 13.4983 10.1294 13.4967 10.1297ZM8.34102 6.62836C8.74669 6.71436 6.36169 4.73436 3.42536 5.18036C2.40436 5.33536 0.0543578 6.22102 0.251691 9.38036C0.605024 15.049 5.20402 15.877 6.73669 15.9954C6.81162 16.0014 6.88227 15.9597 6.9131 15.8912C6.94394 15.8226 6.92829 15.742 6.87402 15.69C6.76117 15.5819 6.62131 15.4624 6.46538 15.3291L6.46537 15.3291C5.49338 14.4984 3.89724 13.1342 4.32869 10.6797C4.78102 8.10836 6.62636 6.26669 8.34102 6.62836ZM9.93669 15.7797C7.98736 15.883 6.15402 14.4864 5.65936 12.5334C5.32447 11.2105 5.52325 9.97369 6.25569 8.82302C6.26451 8.80935 6.27273 8.7935 6.28121 8.77717C6.31408 8.71382 6.35072 8.64322 6.44002 8.66469C6.50151 8.67967 6.50417 8.74249 6.50662 8.80043C6.50728 8.81599 6.50793 8.83119 6.50969 8.84502C6.70502 10.3297 7.55202 11.3634 8.83802 12.0367C10.6654 12.9934 12.5227 12.946 14.3714 12.0597C14.4048 12.0437 14.4388 12.0243 14.4733 12.0046L14.4733 12.0046C14.6236 11.9188 14.7822 11.8284 14.9357 11.993C15.107 12.1759 14.9866 12.3478 14.8775 12.5034C14.8603 12.5279 14.8434 12.552 14.828 12.5757C13.8414 14.088 12.5737 15.2384 10.757 15.667C10.584 15.708 10.408 15.738 10.2324 15.7644C10.1341 15.7745 10.0354 15.7796 9.93669 15.7797Z"/>
</svg>
