<svg xmlns="http://www.w3.org/2000/svg" width="16" height="16" viewBox="0 0 16 16">
    <path fill-rule="evenodd" d="M14.808 5.161l-.314 1.212-1.435 5.491a2.805 2.805 0 0 1-1.079 1.569s-1.536 1.09-3.482 2.365c-.154.101-.313.17-.483.17-.17 0-.33-.069-.484-.17a124.63 124.63 0 0 1-3.482-2.36 2.788 2.788 0 0 1-1.084-1.568L1.519 6.379 1.2 5.172l.489-1.334-.356-.797a.214.214 0 0 1 .048-.234l.946-.957c.41-.42 1.02-.564 1.573-.367l.255.09L5.575.021 7.999 0h.016l2.408.016 1.424 1.541.26-.09a1.507 1.507 0 0 1 1.563.362l.93.94a.27.27 0 0 1 .054.293l-.34.765.494 1.334zM8.323 9.823a.648.648 0 0 0-.154-.048h-.17a.648.648 0 0 0-.154.048l-.692.287c-.063.027-.17.075-.233.107l-1.042.542c-.064.032-.07.09-.01.133l.919.648c.058.043.149.112.202.16l.409.35.191.17.394.352a.146.146 0 0 0 .191 0l.404-.351.191-.17.41-.357c.053-.047.143-.117.202-.159l.92-.654c.058-.042.052-.1-.011-.133l-1.042-.531a4.547 4.547 0 0 0-.234-.107l-.691-.287zm4.987-4.425c.02-.069.02-.095.02-.095 0-.07-.004-.186-.015-.255l-.053-.155a1.86 1.86 0 0 0-.128-.223l-.6-.888a2.608 2.608 0 0 0-.155-.207l-.776-.973c-.042-.053-.085-.1-.09-.095h-.01l-.128.021-1.186.234c-.069.016-.18.037-.25.048l-.02.005a.662.662 0 0 1-.25-.016l-.995-.319a5.863 5.863 0 0 0-.244-.069s-.202-.048-.367-.043c-.165 0-.367.043-.367.043-.069.016-.18.048-.244.07l-.994.318a.662.662 0 0 1-.25.016l-.021-.005c-.07-.01-.181-.038-.25-.048L4.74 2.539a1.062 1.062 0 0 0-.128-.022h-.01a.532.532 0 0 0-.09.096l-.777.973c-.042.053-.111.149-.154.207l-.6.888a3.04 3.04 0 0 0-.128.223l-.053.154c-.01.07-.022.186-.016.255 0 0 0 .022.021.096a.858.858 0 0 0 .128.245c.042.053.122.143.17.19l1.76 1.872a.22.22 0 0 1 .036.213l-.366.866a.368.368 0 0 0-.006.24l.101.27c.085.229.229.43.42.585l.356.287a.218.218 0 0 0 .213.027l1.127-.537c.064-.032.16-.096.213-.144l.807-.728a.286.286 0 0 0 .016-.404L6.086 7.248a.148.148 0 0 1-.048-.186l.744-1.403a.31.31 0 0 0 .01-.229l-.09-.207a.365.365 0 0 0-.17-.165L4.348 4.24c-.064-.027-.064-.054.005-.059l1.409-.133c.069-.005.18.006.25.021l1.254.351c.069.022.111.09.1.16l-.435 2.386c-.01.07-.01.165.005.218.016.054.085.101.154.117l.872.186c.07.016.18.016.25 0l.813-.186c.07-.016.138-.069.154-.117a.493.493 0 0 0 .006-.218l-.43-2.386c-.011-.07.031-.144.1-.16l1.255-.35c.069-.022.18-.027.25-.022l1.408.133c.07.005.075.032.005.059l-2.184.829a.342.342 0 0 0-.17.165l-.09.207c-.027.064-.027.17.01.228l.75 1.404a.15.15 0 0 1-.048.186L8.345 8.407a.281.281 0 0 0 .016.404l.808.728a.912.912 0 0 0 .212.138l1.133.537c.063.032.16.016.212-.026l.356-.293c.192-.154.335-.356.415-.584l.101-.271a.369.369 0 0 0-.005-.24l-.367-.866a.22.22 0 0 1 .037-.213l1.76-1.87.17-.192c-.01-.016.085-.133.117-.26z"/>
</svg>
