<svg width="16" height="16" viewBox="0 0 16 16" xmlns="http://www.w3.org/2000/svg"><path fill-rule="evenodd" clip-rule="evenodd" d="M16 10.25v.005-3.297a1.004 1.004 0 0 0-.072-.33l-2-5-.051-.11A1 1 0 0 0 13 1H3l-.121.007a1 1 0 0 0-.807.622l-2 5-.04.119a.99.99 0 0 0-.033.239L0 13.5l.007.145A1.498 1.498 0 0 0 1.5 15c.83 0 1.5-.67 1.5-1.5V13h3.73c.116-.167.242-.332.376-.49.233-.27.602-.648 1.091-.958A4.453 4.453 0 0 1 8 10.25C8 8.13 9.576 6 12 6s4 2.13 4 4.25ZM12 6H2.477l1.2-3h8.647l1.2 3H12ZM3.5 8C2.67 8 2 8.67 2 9.5S2.67 11 3.5 11 5 10.33 5 9.5 4.33 8 3.5 8Z"/><path d="M10 10.25c0 1.243.895 2.25 2 2.25s2-1.007 2-2.25S13.105 8 12 8s-2 1.007-2 2.25ZM10 13c-1 0-2 1.5-2 2s0 1 .5 1h7c.5 0 .5-.5.5-1s-1-2-2-2c-.45 0-.596.101-.757.212-.198.136-.417.288-1.243.288-.826 0-1.045-.152-1.243-.288C10.596 13.101 10.45 13 10 13Z"/></svg>