<svg xmlns="http://www.w3.org/2000/svg" width="12" height="12" viewBox="0 0 12 12">
    <path fill-rule="nonzero" d="M11.806 5.468c.259.295.259.737 0 1.032l-.714.812a.782.782 0 0 0-.19.588L11 8.976a.782.782 0 0 1-.606.835l-1.057.24a.782.782 0 0 0-.5.363l-.553.93a.782.782 0 0 1-.98.32l-.995-.427a.782.782 0 0 0-.619 0l-.993.43a.782.782 0 0 1-.983-.318l-.553-.929a.782.782 0 0 0-.499-.363l-1.057-.24A.782.782 0 0 1 1 8.982L1.1 7.9a.782.782 0 0 0-.191-.587l-.715-.814a.782.782 0 0 1 0-1.031l.715-.819a.782.782 0 0 0 .19-.587L1 2.988a.782.782 0 0 1 .608-.836l1.054-.236a.782.782 0 0 0 .501-.364l.552-.93c.201-.337.62-.473.982-.318l.995.427c.197.085.42.085.617 0l.995-.427a.782.782 0 0 1 .981.319l.553.93c.11.185.29.316.5.363l1.057.24a.782.782 0 0 1 .606.835l-.1 1.076c-.02.214.05.427.191.588l.714.813zm-7.526.001a.75.75 0 0 0-1.06 1.062l1.5 1.497a.75.75 0 0 0 1.06 0l3-2.997a.75.75 0 1 0-1.06-1.062L5.25 6.42l-.97-.95z"/>
</svg>
