<svg width="16" height="16" viewBox="0 0 16 16" xmlns="http://www.w3.org/2000/svg">
<path d="M14 14V8.24267L16 6.24267V14C16 15.1046 15.1046 16 14 16H2C0.895431 16 0 15.1046 0 14V2C0 0.895431 0.895431 0 2 0H13.7574L11.7574 2H2V14H14Z" />
<path d="M4.70711 7.29289C4.31658 6.90237 3.68342 6.90237 3.29289 7.29289C2.90237 7.68342 2.90237 8.31658 3.29289 8.70711L6.29289 11.7071C6.68342 12.0976 7.31658 12.0976 7.70711 11.7071L15.7071 3.70711C16.0976 3.31658 16.0976 2.68342 15.7071 2.29289C15.3166 1.90237 14.6834 1.90237 14.2929 2.29289L7 9.58579L4.70711 7.29289Z" />
</svg>
