<svg width="16" height="16" viewBox="0 0 16 16" xmlns="http://www.w3.org/2000/svg"><path d="m6.756 9.244-1.912-1.91a.843.843 0 0 0-.622-.245.843.843 0 0 0-.622.244.843.843 0 0 0-.244.623c0 .251.081.459.244.622l2.533 2.533a.853.853 0 0 0 .623.267.853.853 0 0 0 .622-.267L12.4 6.09a.843.843 0 0 0 .244-.622.843.843 0 0 0-.244-.623.843.843 0 0 0-.622-.244.843.843 0 0 0-.622.244l-4.4 4.4ZM1.778 16c-.49 0-.908-.174-1.256-.522A1.712 1.712 0 0 1 0 14.222V1.778C0 1.288.174.87.522.522A1.712 1.712 0 0 1 1.778 0h12.444c.49 0 .908.174 1.256.522.348.348.522.767.522 1.256v12.444c0 .49-.174.908-.522 1.256a1.712 1.712 0 0 1-1.256.522H1.778Zm0-1.778h12.444V1.778H1.778v12.444Z"/></svg>