<svg width="16" height="14" viewBox="0 0 16 14" xmlns="http://www.w3.org/2000/svg"><path d="M9.818 6.818a.91.91 0 1 0 0-1.818.91.91 0 0 0 0 1.818Zm-3.636 0a.91.91 0 1 0 0-1.818.91.91 0 0 0 0 1.818Z"/><path d="M15.956 6.52a2.915 2.915 0 0 0-2.043-2.305 6.628 6.628 0 0 0-1.593-2.117A6.461 6.461 0 0 0 8 .455c-1.658 0-3.17.618-4.32 1.643a6.5 6.5 0 0 0-1.593 2.117A2.905 2.905 0 0 0 .044 6.52a2.573 2.573 0 0 0 0 .96 2.915 2.915 0 0 0 2.043 2.306c.378.807.924 1.52 1.578 2.101A6.462 6.462 0 0 0 8 13.546a6.494 6.494 0 0 0 4.342-1.659 6.607 6.607 0 0 0 1.578-2.101 2.908 2.908 0 0 0 2.036-2.306A2.56 2.56 0 0 0 16 7a2.56 2.56 0 0 0-.044-.48Zm-2.865 1.935c-.073 0-.138-.015-.211-.022a5.215 5.215 0 0 1-.626 1.353A5.073 5.073 0 0 1 8 12.09a5.074 5.074 0 0 1-4.255-2.305 5.213 5.213 0 0 1-.625-1.353c-.073.007-.138.022-.21.022-.8 0-1.455-.655-1.455-1.455s.654-1.455 1.454-1.455c.073 0 .138.015.211.022.145-.487.356-.938.625-1.352A5.074 5.074 0 0 1 8 1.909c1.782 0 3.345.916 4.255 2.306.269.414.48.865.625 1.352.073-.007.138-.022.21-.022.8 0 1.456.655 1.456 1.455s-.655 1.455-1.455 1.455ZM8 10.636c1.462 0 2.72-.894 3.273-2.181H4.727C5.28 9.742 6.538 10.636 8 10.636Z"/></svg>