<svg width="16" height="16" viewBox="0 0 16 16" xmlns="http://www.w3.org/2000/svg"><g clip-path="url(#clip0_1426_12806)"><mask id="path-1-inside-1_1426_12806"><path fill-rule="evenodd" clip-rule="evenodd" d="M10.4 13.2a5.6 5.6 0 1 0-5.152-7.8A3.961 3.961 0 0 0 4 5.2a3.954 3.954 0 0 0-1.161.172 3.968 3.968 0 0 0-1.525.864 4.01 4.01 0 0 0-1.27 2.377 3.99 3.99 0 0 0 .63 2.81 3.955 3.955 0 0 0 .943.99 4.029 4.029 0 0 0 1.411.668A3.92 3.92 0 0 0 4 13.2h6.4Z"/></mask><path d="M10.4 13.2v-1.3H9.1v1.3h1.3ZM5.248 5.4l-.405 1.235 1.132.372.469-1.096L5.248 5.4Zm-.087-.028-.377 1.244.377-1.244Zm-.189-.052-.317 1.26.002.001.315-1.26Zm-.191-.043.254-1.275h-.001l-.253 1.275Zm-.194-.034.191-1.285-.19 1.285Zm-.195-.024.128-1.293H4.52l-.127 1.293Zm-.196-.014-.064 1.298h.001l.063-1.298Zm-.392 0 .063 1.298h.001l-.064-1.298Zm-.196.014-.127-1.293.127 1.293Zm-.195.024-.19-1.286.19 1.286Zm-.193.034-.254-1.275.254 1.275Zm-.192.043.316 1.261-.316-1.26Zm-.189.052.377 1.245-.377-1.245Zm-.186.062L2.215 4.21l.438 1.224Zm-.184.07-.497-1.2.497 1.2Zm-.18.08.556 1.176-.555-1.176Zm-.175.089.613 1.146h.001l-.614-1.146Zm-.17.096.668 1.115-.668-1.115Zm-.166.105L2.5 6.955l-.722-1.08Zm-.16.113L.842 4.943l.774 1.044Zm-.156.121L.638 5.103l.824 1.005Zm-.148.128L.44 5.273l.873.963Zm-.142.136-.92-.92.92.92Zm-.136.142L2 7.388v-.001l-.963-.873Zm-.128.149 1.005.824-1.005-.824Zm-.12.154 1.043.775-1.044-.775Zm-.114.161 1.081.722-1.08-.722Zm-.105.166 1.115.668L.57 7.144Zm-.097.17-1.146-.612 1.146.613Zm-.088.176L-.79 6.934l1.175.556Zm-.08.18 1.201.497-1.2-.497Zm-.07.183L-.99 7.415l1.224.438Zm-.114.375-1.261-.315 1.26.315Zm-.043.192 1.275.254L.077 8.42Zm-.034.193 1.286.191-1.286-.19Zm-.024.195 1.294.128-1.294-.128Zm-.014.196-1.299-.064 1.299.064Zm0 .393 1.298-.064-1.298.064Zm.014.195-1.293.128 1.293-.128Zm.024.195-1.286.191 1.286-.19Zm.034.194-1.275.253 1.275-.253Zm.043.191-1.261.316 1.26-.316Zm.052.19 1.244-.378-1.244.377Zm.062.186 1.224-.438-1.224.438Zm.07.183-1.2.498 1.2-.498Zm.08.18 1.175-.556-1.175.556Zm.088.175-1.146.613 1.146-.613Zm.097.17 1.115-.668-1.115.669Zm.105.167 1.081-.722-1.08.722Zm.113.16 1.044-.774-1.044.774Zm.25.304-.964.873.963-.873Zm.135.142.92-.92H2.09l-.918.92Zm.142.135-.874.963h.001l.873-.963Zm.148.129-.824 1.004.824-1.005Zm.155.12-.774 1.044.774-1.044Zm.16.113-.722 1.08v.001l.723-1.08Zm.167.105.668-1.115-.668 1.115Zm.346.185-.556 1.176.556-1.176Zm.18.08-.499 1.2.001.001.497-1.201Zm.183.07.438-1.223-.438 1.224Zm.186.062-.378 1.244h.001l.377-1.244Zm.19.053.315-1.261-.316 1.26Zm.19.043.254-1.275-.253 1.275Zm.194.033.191-1.286-.19 1.286Zm.195.024.128-1.293h-.001l-.127 1.293Zm6.792.02v1.3h1.3v-1.3h-1.3Zm0 1.3a6.9 6.9 0 0 0 6.9-6.9h-2.6a4.3 4.3 0 0 1-4.3 4.3v2.6Zm6.9-6.9A6.9 6.9 0 0 0 10.4.7v2.6a4.3 4.3 0 0 1 4.3 4.3h2.6ZM10.4.7a6.902 6.902 0 0 0-6.347 4.189l2.39 1.022A4.302 4.302 0 0 1 10.4 3.3V.7ZM5.654 4.165a5.232 5.232 0 0 0-.116-.037l-.753 2.489.058.018.81-2.47Zm-.115-.036a5.246 5.246 0 0 0-.251-.07l-.631 2.522.127.035.755-2.487Zm-.25-.07a5.279 5.279 0 0 0-.254-.057l-.509 2.55c.045.009.088.018.13.029l.633-2.522Zm-.255-.057a5.323 5.323 0 0 0-.256-.044l-.382 2.571c.044.007.088.014.131.023l.507-2.55Zm-.257-.045a5.355 5.355 0 0 0-.257-.031l-.256 2.587c.044.004.089.01.133.016l.38-2.572Zm-.258-.031a5.329 5.329 0 0 0-.26-.02l-.126 2.597.133.01.253-2.587Zm-.258-.02A5.27 5.27 0 0 0 4 3.9v2.6l.131.003.129-2.596ZM4 3.9a5.27 5.27 0 0 0-.262.007l.13 2.596c.043-.002.087-.003.131-.003V3.9Zm-.26.007c-.088.004-.174.01-.26.019l.254 2.587.132-.01-.126-2.596Zm-.26.019c-.087.008-.173.019-.258.031l.38 2.573c.045-.007.089-.013.133-.017L3.48 3.926Zm-.259.032c-.085.012-.17.027-.256.044l.507 2.55.131-.023-.382-2.571Zm-.257.044a5.291 5.291 0 0 0-.254.057l.634 2.522.13-.03-.51-2.549Zm-.252.057a5.247 5.247 0 0 0-.252.07l.756 2.487.127-.035-.631-2.522Zm-.25.07a5.275 5.275 0 0 0-.248.081l.876 2.448c.041-.015.083-.029.125-.041l-.754-2.489Zm-.248.081c-.083.03-.163.06-.243.093l.994 2.403c.042-.017.083-.033.125-.048L2.215 4.21Zm-.244.094a5.32 5.32 0 0 0-.237.105l1.112 2.35.121-.053-.996-2.402Zm-.236.105a5.185 5.185 0 0 0-.234.117L2.728 6.82l.117-.06-1.11-2.35Zm-.233.117a5.29 5.29 0 0 0-.227.128l1.337 2.23.115-.065-1.225-2.293Zm-.227.128a5.26 5.26 0 0 0-.22.14l1.446 2.16.111-.07-1.337-2.23Zm-.22.14a5.289 5.289 0 0 0-.212.15l1.549 2.088a2.69 2.69 0 0 1 .108-.077L1.056 4.793Zm-.212.15a5.3 5.3 0 0 0-.205.16l1.65 2.01a2.71 2.71 0 0 1 .104-.082L.842 4.943Zm-.205.16a5.328 5.328 0 0 0-.197.169L2.187 7.2c.033-.03.066-.06.1-.087l-1.65-2.01Zm-.197.17a5.316 5.316 0 0 0-.188.178l1.838 1.84a2.72 2.72 0 0 1 .096-.092L.44 5.273Zm-.189.179a5.313 5.313 0 0 0-.18.188L2 7.387c.03-.033.06-.065.091-.096L.252 5.453Zm-.179.188c-.058.064-.115.13-.17.197l2.01 1.649.086-.1L.073 5.642Zm-.17.197a5.299 5.299 0 0 0-.16.205l2.088 1.549.082-.105-2.01-1.65Zm-.16.205c-.051.07-.101.14-.15.213L1.755 7.7c.024-.036.05-.072.076-.108L-.257 6.043Zm-.15.213a5.308 5.308 0 0 0-.139.22l2.23 1.336a2.71 2.71 0 0 1 .071-.112L-.407 6.256Zm-.139.22c-.044.074-.087.15-.128.226l2.293 1.225c.02-.038.042-.077.065-.115l-2.23-1.336Zm-.128.226c-.04.076-.08.154-.117.232l2.35 1.112c.019-.04.039-.08.06-.119L-.674 6.702Zm-.117.232a5.294 5.294 0 0 0-.106.238l2.403.995c.016-.04.034-.081.053-.121L-.79 6.934Zm-.105.238a5.3 5.3 0 0 0-.094.243l2.448.876c.015-.042.03-.083.047-.124l-2.401-.995Zm-.094.243c-.03.082-.057.164-.082.247l2.488.755c.013-.043.027-.085.042-.127L-.99 7.415Zm-.082.247a5.29 5.29 0 0 0-.07.25l2.523.632c.01-.043.022-.085.035-.127l-2.488-.755Zm-.07.25a5.3 5.3 0 0 0-.056.254l2.55.507a2.68 2.68 0 0 1 .029-.129l-2.522-.631Zm-.056.254a5.3 5.3 0 0 0-.045.257l2.572.381c.007-.044.014-.087.023-.13l-2.55-.508Zm-.045.257a5.281 5.281 0 0 0-.031.258l2.587.255a2.69 2.69 0 0 1 .016-.132l-2.572-.381Zm-.031.258a5.296 5.296 0 0 0-.02.26l2.597.127c.002-.044.006-.088.01-.132l-2.587-.255Zm-.02.26a5.305 5.305 0 0 0-.006.26h2.6c0-.045.001-.089.003-.133l-2.597-.128Zm-.006.26c0 .086.002.173.006.26l2.597-.128A2.7 2.7 0 0 1 1.3 9.2h-2.6Zm.006.26c.005.086.011.173.02.259l2.587-.255a2.709 2.709 0 0 1-.01-.132l-2.597.127Zm.02.259c.008.086.019.172.031.258l2.572-.381a2.716 2.716 0 0 1-.016-.132l-2.587.255Zm.031.258c.013.086.028.171.045.256l2.55-.507a2.7 2.7 0 0 1-.023-.13l-2.572.381Zm.045.256c.017.085.036.17.057.254l2.522-.631a2.712 2.712 0 0 1-.03-.13l-2.55.507Zm.057.254c.02.084.044.168.07.25l2.487-.754a2.716 2.716 0 0 1-.035-.128l-2.522.632Zm.07.25c.024.084.052.166.08.248l2.449-.876a2.656 2.656 0 0 1-.042-.126l-2.488.755Zm.08.248c.03.082.061.162.094.242l2.403-.994a2.752 2.752 0 0 1-.048-.124l-2.448.876Zm.095.243c.033.08.068.159.105.237l2.35-1.111a2.716 2.716 0 0 1-.054-.122l-2.401.996Zm.105.237c.037.079.076.156.117.233l2.293-1.226c-.021-.039-.04-.078-.06-.118l-2.35 1.111Zm.117.233c.04.076.083.152.128.227l2.23-1.338a2.65 2.65 0 0 1-.065-.115l-2.293 1.226Zm.128.226c.044.074.091.148.14.22l2.16-1.445a2.655 2.655 0 0 1-.07-.111l-2.23 1.336Zm.14.22c.047.072.097.143.15.213l2.087-1.55a2.694 2.694 0 0 1-.076-.107l-2.162 1.444Zm.149.213c.052.07.105.138.16.205l2.01-1.65a2.686 2.686 0 0 1-.082-.104l-2.088 1.549Zm.16.205c.055.067.112.132.17.197L2 11.014a2.704 2.704 0 0 1-.087-.1l-2.01 1.649Zm.17.197c.058.064.118.127.18.188L2.09 11.11a2.673 2.673 0 0 1-.09-.095L.073 12.76Zm.18.188c.06.061.124.121.187.18L2.187 11.2a2.764 2.764 0 0 1-.096-.091L.252 12.948Zm.188.18c.064.058.13.114.197.17l1.65-2.01a2.65 2.65 0 0 1-.101-.087L.44 13.128Zm.197.17c.067.054.135.108.205.16l1.549-2.089a2.657 2.657 0 0 1-.105-.082l-1.65 2.01Zm.205.16c.07.051.14.101.212.149l1.446-2.161a2.78 2.78 0 0 1-.11-.077L.844 13.457Zm.213.15c.072.047.145.094.22.139l1.335-2.231a2.645 2.645 0 0 1-.111-.07l-1.444 2.161Zm.22.138c.073.045.149.088.226.129l1.225-2.293a2.69 2.69 0 0 1-.115-.066l-1.337 2.23Zm.226.129c.076.04.154.08.232.117l1.112-2.35a2.632 2.632 0 0 1-.119-.06l-1.225 2.293Zm.232.117c.079.037.158.072.237.105l.996-2.402a2.722 2.722 0 0 1-.121-.054l-1.112 2.35Zm.238.105c.08.033.161.065.243.094l.876-2.448a2.729 2.729 0 0 1-.125-.048l-.994 2.402Zm.243.094c.081.029.164.056.246.081l.756-2.488a2.787 2.787 0 0 1-.127-.041l-.875 2.448Zm.247.081c.082.025.166.048.25.07l.632-2.523a2.776 2.776 0 0 1-.128-.035l-.754 2.488Zm.25.07c.084.02.169.04.254.057l.507-2.55a2.782 2.782 0 0 1-.13-.03l-.63 2.523Zm.254.057c.085.017.17.031.257.044l.38-2.572a2.779 2.779 0 0 1-.13-.022l-.507 2.55Zm.256.044c.086.013.172.024.26.032l.253-2.588a2.587 2.587 0 0 1-.13-.016l-.383 2.572Zm.258.032a5.2 5.2 0 0 0 .26.02l.127-2.598a2.569 2.569 0 0 1-.131-.01l-.256 2.588Zm.26.02c.086.003.173.006.26.006v-2.6c-.043 0-.088-.002-.133-.004l-.126 2.597ZM4 14.5h6.4v-2.6H4v2.6Zm7.7-1.3H9.1h2.6Z" mask="url(#path-1-inside-1_1426_12806)"/></g><defs><clipPath id="clip0_1426_12806"><path d="M0 0h16v16H0z"/></clipPath></defs></svg>