<svg width="16" height="11" viewBox="0 0 16 11" xmlns="http://www.w3.org/2000/svg"><path d="M8 1.333a3.669 3.669 0 0 1 3.593 2.954l.2 1 1.02.073c1.04.067 1.854.94 1.854 1.973 0 1.1-.9 2-2 2H4a2.666 2.666 0 0 1-2.667-2.666A2.649 2.649 0 0 1 3.707 4.02l.713-.073.333-.634A3.646 3.646 0 0 1 8 1.333ZM8 0a4.997 4.997 0 0 0-4.433 2.693A3.996 3.996 0 0 0 0 6.667c0 2.206 1.793 4 4 4h8.667A3.335 3.335 0 0 0 16 7.333a3.317 3.317 0 0 0-3.1-3.306A4.993 4.993 0 0 0 8 0Z" fill="#fff"/><path d="M8 1.333a3.669 3.669 0 0 1 3.593 2.954l.2 1 1.02.073c1.04.067 1.854.94 1.854 1.973 0 1.1-.9 2-2 2H4a2.666 2.666 0 0 1-2.667-2.666A2.649 2.649 0 0 1 3.707 4.02l.713-.073.333-.634A3.646 3.646 0 0 1 8 1.333ZM8 0a4.997 4.997 0 0 0-4.433 2.693A3.996 3.996 0 0 0 0 6.667c0 2.206 1.793 4 4 4h8.667A3.335 3.335 0 0 0 16 7.333a3.317 3.317 0 0 0-3.1-3.306A4.993 4.993 0 0 0 8 0Z" fill="url(#paint0_linear_11512_6354)"/><path d="M8 1.333a3.669 3.669 0 0 1 3.593 2.954l.2 1 1.02.073c1.04.067 1.854.94 1.854 1.973 0 1.1-.9 2-2 2H4a2.666 2.666 0 0 1-2.667-2.666A2.649 2.649 0 0 1 3.707 4.02l.713-.073.333-.634A3.646 3.646 0 0 1 8 1.333ZM8 0a4.997 4.997 0 0 0-4.433 2.693A3.996 3.996 0 0 0 0 6.667c0 2.206 1.793 4 4 4h8.667A3.335 3.335 0 0 0 16 7.333a3.317 3.317 0 0 0-3.1-3.306A4.993 4.993 0 0 0 8 0Z" fill="url(#paint1_linear_11512_6354)"/><path d="M8 1.333a3.669 3.669 0 0 1 3.593 2.954l.2 1 1.02.073c1.04.067 1.854.94 1.854 1.973 0 1.1-.9 2-2 2H4a2.666 2.666 0 0 1-2.667-2.666A2.649 2.649 0 0 1 3.707 4.02l.713-.073.333-.634A3.646 3.646 0 0 1 8 1.333ZM8 0a4.997 4.997 0 0 0-4.433 2.693A3.996 3.996 0 0 0 0 6.667c0 2.206 1.793 4 4 4h8.667A3.335 3.335 0 0 0 16 7.333a3.317 3.317 0 0 0-3.1-3.306A4.993 4.993 0 0 0 8 0Z" fill="url(#paint2_linear_11512_6354)"/><defs><linearGradient id="paint0_linear_11512_6354" x1="16" y1="6.222" x2="0" y2="6.222" gradientUnits="userSpaceOnUse"><stop offset=".13" stop-color="#A033FF"/><stop offset=".61" stop-color="#0094FF"/><stop offset="1" stop-color="#4FB500"/></linearGradient><linearGradient id="paint1_linear_11512_6354" x1="7.333" y1="3.333" x2="4.833" y2="10.833" gradientUnits="userSpaceOnUse"><stop stop-color="#FFD600" stop-opacity="0"/><stop offset=".563" stop-color="#FFC700"/></linearGradient><linearGradient id="paint2_linear_11512_6354" x1="8.667" y1="6.222" x2="12.079" y2="11.642" gradientUnits="userSpaceOnUse"><stop offset=".03" stop-color="#FF3B30" stop-opacity="0"/><stop offset=".843" stop-color="#E73B2D"/></linearGradient></defs></svg>