<svg width="16" height="16" viewBox="0 0 16 16" xmlns="http://www.w3.org/2000/svg"><path d="M12.444 7.111V0H3.556v3.556H0V16h7.111v-3.556H8.89V16H16V7.111h-3.556Zm-8.888 7.111H1.778v-1.778h1.778v1.778Zm0-3.555H1.778V8.889h1.778v1.778Zm0-3.556H1.778V5.333h1.778v1.778Zm3.555 3.556H5.333V8.889h1.778v1.778Zm0-3.556H5.333V5.333h1.778v1.778Zm0-3.555H5.333V1.778h1.778v1.778Zm3.556 7.11H8.889V8.89h1.778v1.778Zm0-3.555H8.889V5.333h1.778v1.778Zm0-3.555H8.889V1.778h1.778v1.778Zm3.555 10.666h-1.778v-1.778h1.778v1.778Zm0-3.555h-1.778V8.889h1.778v1.778Z"/></svg>