<svg width="20" height="20" viewBox="0 0 20 20" xmlns="http://www.w3.org/2000/svg"><path fill-rule="evenodd" clip-rule="evenodd" d="M18 10a8 8 0 1 1-16 0 8 8 0 0 1 16 0Zm2 0c0 5.523-4.477 10-10 10S0 15.523 0 10 4.477 0 10 0s10 4.477 10 10Zm-8.59 1.206c.134.086.33.046.417-.085a.28.28 0 0 0-.087-.396c-.116-.073-.125-.223-.125-.223a.296.296 0 0 0-.3-.282h-.006a.306.306 0 0 0-.21.087.283.283 0 0 0-.085.21.895.895 0 0 0 .029.183 1.682 1.682 0 0 1-2.087.004c.03-.11.03-.189.03-.191a.294.294 0 0 0-.291-.292.285.285 0 0 0-.213.076.289.289 0 0 0-.098.204s-.008.15-.126.225a.282.282 0 0 0-.085.396.315.315 0 0 0 .442.068l.007-.005c.392.295.874.455 1.375.455a2.29 2.29 0 0 0 1.379-.456l.033.022Zm.766-5.313c.521.502.845 1.153.932 1.856C14.726 7.892 16 9.236 16 10.869 16 12.594 14.574 14 12.822 14H7.177C5.425 14 4 12.595 4 10.868c0-.823.322-1.601.906-2.19a3.179 3.179 0 0 1 1.893-.92c.085-.707.41-1.36.933-1.865A3.18 3.18 0 0 1 9.954 5c.835 0 1.625.316 2.222.893Z"/></svg>