<svg width="32" height="32" viewBox="0 0 32 32" xmlns="http://www.w3.org/2000/svg"><path fill-rule="evenodd" clip-rule="evenodd" d="M16 3c4.315 0 7.979 2.83 9.158 6.739C29.102 10.892 32 14.496 32 18.793c0 3.594-2.027 6.704-5 8.3V24.73c1.824-1.36 3-3.517 3-5.937 0-3.365-2.27-6.218-5.403-7.134l-1.04-.305-.313-1.037C22.317 7.245 19.425 5 16 5s-6.317 2.245-7.244 5.317l-.313 1.037-1.04.305C4.269 12.575 2 15.429 2 18.793c0 4.1 3.373 7.44 7.556 7.44H10v2h-.444C4.299 28.233 0 24.027 0 18.793c0-4.296 2.898-7.901 6.842-9.054C8.02 5.83 11.685 3 16 3Z"/><path fill-rule="evenodd" clip-rule="evenodd" d="M14.16 15.961a1.555 1.555 0 1 0-2.199 2.2l6.972 6.897H14.56a1.5 1.5 0 0 0 0 3.001h7.999a1.5 1.5 0 0 0 1.5-1.5v-8a1.5 1.5 0 0 0-3.001 0v4.374L14.16 15.96Z" fill="#CB8100"/></svg>