<svg xmlns="http://www.w3.org/2000/svg" width="16" height="16" viewBox="0 0 16 16">
    <path fill-rule="evenodd" d="M8 0a8 8 0 1 1 0 16A8 8 0 0 1 8 0zM5.707 4.293l-.094-.083a1 1 0 0 0-1.226 0l-.094.083-.083.094-.07.102c-.206.345-.185.788.062 1.114l.09.104L6.586 8l-2.292 2.293a1 1 0 0 0 1.32 1.497l.094-.083L8 9.415l2.293 2.292.094.083a1 1 0 0 0 1.226 0l.094-.083.083-.094a1 1 0 0 0 0-1.226l-.083-.094L9.415 8l2.292-2.293a1 1 0 0 0-1.32-1.497l-.094.083L8 6.585 5.707 4.293l-.094-.083.094.083z"/>
</svg>
