<svg xmlns="http://www.w3.org/2000/svg" width="16" height="16" viewBox="0 0 16 16">
    <path fill-rule="evenodd" d="M14.792.198A.625.625 0 0 1 15 .667v7.999c0 .598-.122 1.189-.366 1.776a6.574 6.574 0 0 1-.909 1.564c-.361.454-.79.896-1.289 1.328a14.745 14.745 0 0 1-2.708 1.88 19.53 19.53 0 0 1-.979.515c-.193.09-.348.161-.465.208A.646.646 0 0 1 8 16a.643.643 0 0 1-.284-.063 9.866 9.866 0 0 1-.465-.208 19 19 0 0 1-.98-.515 14.743 14.743 0 0 1-2.707-1.88 10.006 10.006 0 0 1-1.29-1.328 6.538 6.538 0 0 1-.908-1.564A4.588 4.588 0 0 1 1 8.666V.667c0-.181.069-.337.208-.469A.69.69 0 0 1 1.7 0h12.6a.69.69 0 0 1 .492.198zM5 6.998a1 1 0 1 0 2 0V4.414l.293.293a.997.997 0 0 0 1.414 0 .999.999 0 0 0 0-1.414l-1.999-2a1 1 0 0 0-1.416 0l-1.999 2a.999.999 0 1 0 1.414 1.414L5 4.413v2.586zm5.708 5.708l1.999-1.999a.999.999 0 1 0-1.414-1.414L11 9.586V7a1 1 0 1 0-2 0v2.586l-.293-.293a.999.999 0 1 0-1.414 1.414l1.999 1.999a.99.99 0 0 0 .326.217.991.991 0 0 0 1.09-.217z"/>
</svg>
