<svg width="16" height="16" viewBox="0 0 16 16" xmlns="http://www.w3.org/2000/svg"><path fill-rule="evenodd" clip-rule="evenodd" d="M2.688 12.323c.246-.538.41-1.004.493-1.399-1.068-1.004-1.72-2.344-1.72-3.816C1.462 3.99 4.39 1.462 8 1.462c3.611 0 6.538 2.528 6.538 5.646 0 3.119-2.927 5.647-6.538 5.647-.74 0-1.452-.106-2.116-.302-.518.404-1.237.762-2.156 1.075a12.364 12.364 0 0 1-.657.205l-.008.003a17.328 17.328 0 0 1-.628.169.299.299 0 0 1-.334-.436l.112-.202a15.704 15.704 0 0 0 .475-.944Zm-1.757.242a11.8 11.8 0 0 0 .605-1.264C.584 10.143 0 8.698 0 7.108 0 2.988 3.79 0 8 0s8 2.989 8 7.108c0 4.12-3.79 7.109-8 7.109-.63 0-1.245-.065-1.837-.188-.908.546-2.057.963-3.373 1.293a1.76 1.76 0 0 1-1.968-2.56l.109-.197Z"/></svg>