<svg width="16px" height="16px" viewBox="0 0 16 16" version="1.1" xmlns="http://www.w3.org/2000/svg" xmlns:xlink="http://www.w3.org/1999/xlink">
    <defs>
        <path d="M8,2 C11.637,2 14.742,4.488 16,8 C14.742,11.512 11.637,14 8,14 C4.363,14 1.258,11.512 0,8 C1.258,4.488 4.363,2 8,2 Z M8,12 C10.209,12 12,10.209 12,8 C12,5.791 10.209,4 8,4 C5.791,4 4,5.791 4,8 C4,10.209 5.791,12 8,12 Z M8,6 C9.104,6 10,6.896 10,8 C10,9.104 9.104,10 8,10 C6.896,10 6,9.104 6,8 C6,6.896 6.896,6 8,6 Z" id="path-1"></path>
    </defs>
    <g id="icons/16/icon-display" stroke="none" stroke-width="1" fill="none" fill-rule="evenodd">
        <mask id="mask-2" fill="white">
            <use xlink:href="#path-1"></use>
        </mask>
        <use id="Fill-1" xlink:href="#path-1"></use>
    </g>
</svg>
