<svg width="16" height="16" viewBox="0 0 16 16" xmlns="http://www.w3.org/2000/svg"><path d="M4.736.17c.018-.053-.012-.11-.075-.143-.088-.046-.212-.032-.276.03L.115 4.15A.345.345 0 0 0 0 4.398c0 .232.265.42.593.42h1.592l-.658 3.021c-.011.053.021.106.084.137.09.043.213.027.274-.037l4.011-4.142A.34.34 0 0 0 6 3.561c0-.231-.265-.419-.593-.419H3.765L4.736.171Z"/><path fill-rule="evenodd" clip-rule="evenodd" d="M8 1a1 1 0 0 1 1-1h2.22a2 2 0 0 1 1.94 1.515l1.81 7.242A1 1 0 0 1 14 10h-.5a3.5 3.5 0 0 0-3.465 4H4.95a2.5 2.5 0 1 1-.45-2h3.707a5.506 5.506 0 0 1 4.525-3.947L11.22 2H9a1 1 0 0 1-1-1ZM3 13.5a.5.5 0 1 1-1 0 .5.5 0 0 1 1 0Z"/><path fill-rule="evenodd" clip-rule="evenodd" d="M16 13.5a2.5 2.5 0 1 1-5 0 2.5 2.5 0 0 1 5 0Zm-2 0a.5.5 0 1 1-1 0 .5.5 0 0 1 1 0Z"/></svg>