<svg width="16" height="15" viewBox="0 0 16 15" xmlns="http://www.w3.org/2000/svg"><path d="M12.667 4h-.547L10.987.88A1.339 1.339 0 0 0 9.733 0H8v1.333h1.733L10.707 4H7.5l-.24-.667H8V2H4.667v1.333h1.166l1.214 3.334H6.6a3.287 3.287 0 0 0-3.1-2.66C1.633 3.913 0 5.467 0 7.333a3.301 3.301 0 0 0 3.333 3.334C4.973 10.667 6.3 9.54 6.6 8h2.8a3.287 3.287 0 0 0 3.1 2.66c1.867.087 3.5-1.46 3.5-3.333A3.3 3.3 0 0 0 12.667 4ZM5.213 8a1.966 1.966 0 0 1-1.88 1.333c-1.12 0-2-.88-2-2s.88-2 2-2c.887 0 1.614.554 1.88 1.334h-1.88V8h1.88ZM9.4 6.667h-.933L7.98 5.333H10a3.156 3.156 0 0 0-.6 1.334Zm3.267 2.666c-1.12 0-2-.88-2-2 0-.62.273-1.153.7-1.52l.64 1.76 1.253-.453-.647-1.78c.014 0 .034-.007.054-.007 1.12 0 2 .88 2 2s-.88 2-2 2Zm-5.334 3.334H4.667l4 2v-1.334h2.666l-4-2v1.334Z"/></svg>