<svg width="16" height="16" viewBox="0 0 16 16" xmlns="http://www.w3.org/2000/svg"><path fill-rule="evenodd" clip-rule="evenodd" d="M14.283.92c.08.059.118.16.095.257L13.15 6.5h2.078a.75.75 0 0 1 .62 1.174l-5.078 7.42a.25.25 0 0 1-.453-.18L11.15 9.5H9.134a.75.75 0 0 1-.604-1.195L13.934.972a.25.25 0 0 1 .35-.053ZM11.43 1 9.955 3H3.677l-1.2 3h5.268L6.92 7.118a2.75 2.75 0 0 0-.536 1.631l.005.168a2.751 2.751 0 0 0 2.244 2.536l.188.028L8.587 13H3v.5c0 .83-.67 1.5-1.5 1.5-.781 0-1.42-.594-1.493-1.355L0 13.5V6.987a.99.99 0 0 1 .032-.239l.04-.12 2-5a1 1 0 0 1 .807-.62L3 1h8.43ZM3.5 8C2.67 8 2 8.67 2 9.5S2.67 11 3.5 11 5 10.33 5 9.5 4.33 8 3.5 8Z"/></svg>