<svg width="14" height="16" viewBox="0 0 14 16" xmlns="http://www.w3.org/2000/svg"><path d="M12.033.735A1.087 1.087 0 0 0 11 0H3c-.48 0-.88.305-1.033.735L.455 5.09v5.818c0 .4.327.727.727.727h.727a.73.73 0 0 0 .727-.727v-.727h8.728v.727c0 .4.327.727.727.727h.727a.73.73 0 0 0 .727-.727V5.091L12.033.735Zm-8.778.72h7.483l.786 2.261H2.469l.786-2.261Zm8.836 7.272H1.909V5.091h10.182v3.636Z"/><path d="M3.727 8a1.09 1.09 0 1 0 0-2.182 1.09 1.09 0 0 0 0 2.182Zm6.546 0a1.09 1.09 0 1 0 0-2.182 1.09 1.09 0 0 0 0 2.182Zm-6.909 5.818h2.909v-1.454l4.363 2.181H7.727V16l-4.363-2.182Z"/></svg>