<svg width="16" height="16" viewBox="0 0 16 16" xmlns="http://www.w3.org/2000/svg"><g filter="url(#filter0_d_1426_12797)" clip-path="url(#clip0_1426_12797)"><path fill-rule="evenodd" clip-rule="evenodd" d="M6.572 10.531 1.405 6.913l.746-1.065 5.167 3.619c.41.287.955.287 1.364 0l5.167-3.62.746 1.066-5.167 3.618c-.857.601-1.999.6-2.856 0ZM1.3 6.647v6.562c0 .805.653 1.458 1.459 1.458H13.24c.806 0 1.459-.653 1.459-1.458V6.647a.999.999 0 0 0-.393-.795L8.606 1.505a.999.999 0 0 0-1.212 0l-5.7 4.347a.999.999 0 0 0-.394.795Zm-1.3 0c0-.717.335-1.394.905-1.828L6.605.47a2.299 2.299 0 0 1 2.79 0l5.7 4.348c.57.434.905 1.11.905 1.828v6.562a2.759 2.759 0 0 1-2.759 2.758H2.76A2.759 2.759 0 0 1 0 13.21V6.647Z"/></g><defs><clipPath id="clip0_1426_12797"><path d="M0 0h16v16H0z"/></clipPath><filter id="filter0_d_1426_12797" x="-1.231" y="-.985" width="18.462" height="18.429" filterUnits="userSpaceOnUse" color-interpolation-filters="sRGB"><feFlood flood-opacity="0" result="BackgroundImageFix"/><feColorMatrix in="SourceAlpha" values="0 0 0 0 0 0 0 0 0 0 0 0 0 0 0 0 0 0 127 0" result="hardAlpha"/><feOffset dy=".246"/><feGaussianBlur stdDeviation=".615"/><feComposite in2="hardAlpha" operator="out"/><feColorMatrix values="0 0 0 0 0 0 0 0 0 0 0 0 0 0 0 0 0 0 0.1 0"/><feBlend in2="BackgroundImageFix" result="effect1_dropShadow_1426_12797"/><feBlend in="SourceGraphic" in2="effect1_dropShadow_1426_12797" result="shape"/></filter></defs></svg>