<svg xmlns="http://www.w3.org/2000/svg" width="16" height="16" viewBox="0 0 16 16">
    <path fill-rule="evenodd" d="M2.343 2.343l1.227.625.974-.973-.216 1.36 1.227.625-1.36.215-.215 1.36-.625-1.227-1.36.216.973-.974-.625-1.227zM8 0l.426 1.31h1.376l-1.114.809.426 1.31L8 2.619l-1.114.81.425-1.31-1.114-.81h1.377L8 0zM1.31 7.574V6.197l.809 1.114 1.31-.425L2.619 8l.81 1.114-1.31-.426-.81 1.114V8.425L0 8l1.31-.426zm1.033 6.083l.625-1.227-.973-.974 1.36.216.625-1.227.215 1.36 1.36.215-1.227.625.216 1.36-.974-.973-1.227.625zm11.314 0l-1.227-.625-.974.973.216-1.36-1.227-.625 1.36-.215.215-1.36.625 1.227 1.36-.216-.973.974.625 1.227zM8 13.38l1.114-.81-.426 1.31 1.114.81H8.425L8 16l-.426-1.31H6.197l1.115-.809-.426-1.31 1.114.81zm5.881-6.07l.81-1.114v1.377L16 8l-1.31.425v1.377l-.809-1.114-1.31.426.81-1.114-.81-1.114 1.31.425zm-.224-4.968l-.625 1.227.973.974-1.36-.216-.625 1.227-.215-1.36-1.36-.215 1.227-.625-.216-1.36.974.973 1.227-.625z"/>
</svg>
