<svg width="17" height="16" viewBox="0 0 17 16" xmlns="http://www.w3.org/2000/svg"><path d="M11.447 13.473a5.457 5.457 0 0 1-4.85-2.947h4.85l.843-1.684H6.04A5.587 5.587 0 0 1 5.974 8c0-.286.025-.564.067-.842h5.406l.843-1.684H6.597a5.466 5.466 0 0 1 8.412-1.626l1.491-1.49A7.541 7.541 0 0 0 11.447.42c-3.3 0-6.096 2.114-7.14 5.053H1.341L.5 7.158h3.419a6.956 6.956 0 0 0 0 1.684H1.342L.5 10.526h3.806c1.045 2.94 3.84 5.053 7.141 5.053a7.525 7.525 0 0 0 5.053-1.937l-1.499-1.49a5.394 5.394 0 0 1-3.554 1.322Z"/></svg>