<?xml version="1.0" encoding="utf-8"?>
<!-- Generator: Adobe Illustrator 22.1.0, SVG Export Plug-In . SVG Version: 6.00 Build 0)  -->
<svg version="1.1" id="Layer_1" xmlns="http://www.w3.org/2000/svg" xmlns:xlink="http://www.w3.org/1999/xlink" x="0px" y="0px"
	 viewBox="0 0 20 20" style="enable-background:new 0 0 20 20;" xml:space="preserve">
<g id="Mask">
	<path id="path-1_1_" d="M4.3,12.5h9.5c0.7,0,1.2,0.6,1.2,1.2S14.4,15,13.8,15H4.3l1.6,1.6c0.5,0.5,0.5,1.3,0,1.8
		c-0.5,0.5-1.3,0.5-1.8,0l-3.8-3.8c-0.5-0.5-0.5-1.3,0-1.8l3.8-3.8c0.5-0.5,1.3-0.5,1.8,0s0.5,1.3,0,1.8L4.3,12.5z M15.7,7.5H6.2
		C5.6,7.5,5,6.9,5,6.2S5.6,5,6.2,5h9.5l-1.6-1.6c-0.5-0.5-0.5-1.3,0-1.8s1.3-0.5,1.8,0l3.8,3.8c0.5,0.5,0.5,1.3,0,1.8l-3.8,3.8
		c-0.5,0.5-1.3,0.5-1.8,0s-0.5-1.3,0-1.8L15.7,7.5z"/>
</g>
</svg>
