<svg width="16" height="16" viewBox="0 0 16 16" fill="none" xmlns="http://www.w3.org/2000/svg"><path d="M14.8 15.2a.8.8 0 0 0-.8-.8H2.8a.8.8 0 0 0 0 1.6H14a.8.8 0 0 0 .8-.8ZM14.8.8A.8.8 0 0 0 14 0H2.8a.8.8 0 1 0 0 1.6H14a.8.8 0 0 0 .8-.8ZM6.893 9.833a.799.799 0 0 0-1.128 1.132l1.928 1.928a1 1 0 0 0 1.414 0l1.928-1.928a.799.799 0 0 0-1.128-1.132l-.707.703V5.464l.707.703a.799.799 0 0 0 1.128-1.132L9.107 3.107a1 1 0 0 0-1.414 0L5.765 5.035a.799.799 0 0 0 1.128 1.132l.707-.703v5.072l-.707-.703Z" fill="#2C3038"/></svg>