<svg width="16" height="16" viewBox="0 0 16 16" xmlns="http://www.w3.org/2000/svg">
  <path
    d="M10.838 12.894a.455.455 0 01.377.12l.538.516-.91 2.47-.585-1.239-1.254.578.85-2.309.985-.136zM13.695 12.894l1.015.141c.074.01.146 0 .212-.023l.858 2.326-1.254-.576L13.941 16l-.976-2.649.354-.336c.1-.096.238-.14.376-.121zM12.01 7.552c.08-.246.433-.246.514 0l.231.702c.036.11.14.186.257.186h.748c.263 0 .371.33.16.483l-.605.433a.267.267 0 00-.098.3l.23.702c.082.246-.204.451-.416.3l-.605-.435a.274.274 0 00-.319 0l-.605.434c-.212.152-.497-.053-.417-.299l.232-.702a.267.267 0 00-.098-.3l-.605-.433c-.212-.152-.103-.483.159-.483h.748a.271.271 0 00.257-.186l.231-.702z" />
  <path clip-rule="evenodd"
    d="M11.953 5.458a.457.457 0 01.628 0l.536.513c.1.095.24.14.377.12l.738-.102a.451.451 0 01.508.364l.129.725c.024.135.11.252.232.317l.66.345c.214.112.3.373.193.59l-.328.66a.442.442 0 000 .392l.328.66a.444.444 0 01-.194.59l-.659.346a.447.447 0 00-.232.317l-.13.725a.45.45 0 01-.507.363l-.738-.102a.455.455 0 00-.377.12l-.536.513a.457.457 0 01-.628 0l-.536-.513a.455.455 0 00-.376-.12l-.739.102a.45.45 0 01-.507-.363l-.13-.725a.446.446 0 00-.233-.317l-.66-.346a.444.444 0 01-.193-.59l.328-.66a.442.442 0 000-.391l-.328-.662a.444.444 0 01.194-.59l.66-.344a.446.446 0 00.232-.317l.13-.725a.45.45 0 01.507-.364l.739.103a.456.456 0 00.376-.121l.536-.513zm.314 1.312c-1.352 0-2.447 1.082-2.447 2.416 0 1.335 1.095 2.416 2.447 2.416 1.35 0 2.447-1.082 2.448-2.416 0-1.334-1.097-2.416-2.448-2.416z" />
  <path
    d="M6.4 8c.555 0 1.094.036 1.607.102-.022.222.014.453.12.669l.237.478-.237.48a1.24 1.24 0 00.535 1.64l.477.253.093.526c.027.148.079.287.151.41l-.088.242H0v-1.6C0 9.432 2.864 8 6.4 8zM6.4 0a3.202 3.202 0 013.2 3.2A3.2 3.2 0 116.4 0z" />
</svg>