<svg width="16" height="16" viewBox="0 0 16 16" fill="none" xmlns="http://www.w3.org/2000/svg"><path d="M14.8 4v10.4l-.008.159A1.6 1.6 0 0 1 13.2 16H3.6a1.6 1.6 0 0 1-1.014-.362l-.117-.107a1.6 1.6 0 0 1-.461-.972L2 14.4V1.6c0-.372.13-.73.362-1.014L2.47.469A1.6 1.6 0 0 1 3.599 0h7.2l4 4ZM3.6 14.4h9.6V5.6h-1.598a2.4 2.4 0 0 1-2.4-2.4V1.6H3.6v12.8Zm7.202-11.2a.8.8 0 0 0 .8.8h.935l-1.736-1.736V3.2Z" fill="#2C3038"/><path d="M8.401 7.2a.8.8 0 0 1 .8.799v2.867l1.034-1.032a.8.8 0 1 1 1.131 1.13l-2.4 2.401a.794.794 0 0 1-.436.222.817.817 0 0 1-.13.013.793.793 0 0 1-.127-.013.794.794 0 0 1-.438-.222l-2.4-2.4a.8.8 0 1 1 1.131-1.131l1.035 1.034V8a.8.8 0 0 1 .8-.8Z" fill="#2C3038"/></svg>