<svg width="16" height="16" viewBox="0 0 16 16" xmlns="http://www.w3.org/2000/svg"><path fill-rule="evenodd" clip-rule="evenodd" d="M2 3a1 1 0 0 1 1-1h2a1 1 0 0 0 0-2H3a3 3 0 0 0-3 3v2a1 1 0 0 0 2 0V3Zm12 0a1 1 0 0 0-1-1h-2a1 1 0 1 1 0-2h2a3 3 0 0 1 3 3v2a1 1 0 1 1-2 0V3ZM3 14a1 1 0 0 1-1-1v-2a1 1 0 1 0-2 0v2a3 3 0 0 0 3 3h2a1 1 0 1 0 0-2H3Zm11-1a1 1 0 0 1-1 1h-2a1 1 0 1 0 0 2h2a3 3 0 0 0 3-3v-2a1 1 0 1 0-2 0v2ZM6 6a1 1 0 1 1-2 0 1 1 0 0 1 2 0Zm5 1a1 1 0 1 0 0-2 1 1 0 0 0 0 2ZM7 6a1 1 0 0 1 2 0v2a1 1 0 0 1-2 0V6Zm-1.386 4.21a1 1 0 1 0-1.228 1.58C5.364 12.55 6.63 13 8 13c1.369 0 2.636-.45 3.614-1.21a1 1 0 1 0-1.228-1.58C9.765 10.695 8.932 11 8 11c-.932 0-1.765-.306-2.386-.79Z"/></svg>