<svg width="15" height="16" viewBox="0 0 15 16" xmlns="http://www.w3.org/2000/svg"><g clip-path="url(#clip0_11387_16837)"><path opacity=".242" fill-rule="evenodd" clip-rule="evenodd" d="M1 2S2.837.25 3.45.25h5.694l5.372 5-.066 8c0 .131-.596 1.085-.651 1.207a1 1 0 0 1-.24.325 1.121 1.121 0 0 1-.36.217c-.133.05-1.354.708-1.5.708l-8.75.043c.001 0-1.15-.484-1.284-.534A1.12 1.12 0 0 1 1.306 15a.997.997 0 0 1-.24-.325C1.011 14.553.45 13.381.45 13.25.477 6.251 1 2 1 2Z"/><path fill-rule="evenodd" clip-rule="evenodd" d="M3.4 0A3.2 3.2 0 0 0 .2 3.2v9.6A3.2 3.2 0 0 0 3.4 16h8a3.2 3.2 0 0 0 3.2-3.2V5.2L9.4 0h-6Zm0 1a2.2 2.2 0 0 0-2.2 2.2v9.6A2.2 2.2 0 0 0 3.4 15h8a2.2 2.2 0 0 0 2.2-2.2V5.614L8.986 1H3.4Z"/><path d="M14.6 5.4 9.2 0v2.793c0 1.44 1.128 2.607 2.52 2.607h2.88Z"/></g><defs><clipPath id="clip0_11387_16837"><path transform="translate(.2)" d="M0 0h14.4v16H0z"/></clipPath></defs></svg>