<svg width="17" height="14" viewBox="0 0 17 14" xmlns="http://www.w3.org/2000/svg"><path fill-rule="evenodd" clip-rule="evenodd" d="M3.725 4.113a2.608 2.608 0 0 0 4.957 0h7.409a.809.809 0 1 0 0-1.617H8.682a2.608 2.608 0 0 0-4.958 0H1.71a.809.809 0 1 0 0 1.617h2.016Zm2.478-1.797a.989.989 0 1 0 0 1.977.989.989 0 0 0 0-1.977ZM.9 10.495c0-.446.362-.808.809-.808h7.409a2.608 2.608 0 0 1 4.957 0h2.016a.809.809 0 1 1 0 1.618h-2.016a2.608 2.608 0 0 1-4.957 0H1.709a.809.809 0 0 1-.809-.81Zm9.708 0a.989.989 0 1 1 1.977 0 .989.989 0 0 1-1.977 0Z"/></svg>