<svg xmlns="http://www.w3.org/2000/svg" width="16" height="16" viewBox="0 0 16 16">
    <path fill-rule="evenodd" d="M15.904 3.955a.513.513 0 0 1-.123.72.512.512 0 0 1-.721-.124 8.208 8.208 0 0 0-2.958-2.566C9.6.703 6.377.706 3.89 1.995A8.29 8.29 0 0 0 .921 4.578a.455.455 0 0 1-.404.215.534.534 0 0 1-.296-.09.504.504 0 0 1-.213-.33.525.525 0 0 1 .087-.393 9.187 9.187 0 0 1 3.33-2.903c2.78-1.435 6.372-1.437 9.15-.009a9.208 9.208 0 0 1 3.33 2.886zM7.97 2.091c4.048 0 7.341 3.127 7.341 6.972 0 1.468-1.25 2.663-2.787 2.663s-2.787-1.195-2.787-2.663c0-.902-.789-1.635-1.758-1.635S6.22 8.161 6.22 9.063a5.48 5.48 0 0 0 1.625 3.918c.831.822 1.63 1.275 2.848 1.611.13.034.24.118.308.235a.517.517 0 0 1 .052.394.499.499 0 0 1-.485.39.58.58 0 0 1-.133-.02c-1.41-.39-2.339-.915-3.31-1.869a6.508 6.508 0 0 1-1.935-4.65c0-1.469 1.251-2.665 2.788-2.665s2.787 1.196 2.787 2.664c0 .901.79 1.634 1.758 1.634.97 0 1.758-.733 1.758-1.634 0-3.276-2.832-5.94-6.312-5.94-2.479 0-4.738 1.375-5.755 3.505-.34.708-.513 1.527-.513 2.435 0 .684.061 1.754.586 3.154a.507.507 0 0 1-.013.4.492.492 0 0 1-.288.26.508.508 0 0 1-.658-.3A9.877 9.877 0 0 1 .681 9.07c0-1.065.204-2.037.606-2.886C2.473 3.698 5.095 2.091 7.97 2.091zM4.784 12.426c.55.988.933 1.422 1.618 2.116a.53.53 0 0 1 0 .728.564.564 0 0 1-.38.156.487.487 0 0 1-.363-.158c-.765-.764-1.183-1.259-1.78-2.339-.611-1.089-.934-2.423-.934-3.858 0-2.659 2.27-4.822 5.06-4.822 2.79 0 5.06 2.163 5.06 4.822a.51.51 0 0 1-.515.515.51.51 0 0 1-.515-.515c0-2.09-1.808-3.792-4.03-3.792-2.222 0-4.03 1.701-4.03 3.792 0 1.256.279 2.417.809 3.355zm8.458.245a.503.503 0 0 1 .38.082.525.525 0 0 1 .217.338.517.517 0 0 1-.423.598 6.024 6.024 0 0 1-1.078.107c-1.069 0-2-.268-2.773-.797-1.332-.904-2.129-2.372-2.129-3.928a.51.51 0 0 1 .515-.515.51.51 0 0 1 .515.515c0 1.22.627 2.37 1.676 3.074.61.413 1.33.613 2.196.613.187 0 .535-.023.904-.087z"/>
</svg>
