<svg width="16" height="16" viewBox="0 0 16 16" xmlns="http://www.w3.org/2000/svg"><path d="M8 0C3.584 0 0 3.584 0 8s3.584 8 8 8 8-3.584 8-8-3.584-8-8-8ZM4.28 13.2A6.353 6.353 0 0 1 8 12c1.392 0 2.672.448 3.72 1.2A6.353 6.353 0 0 1 8 14.4a6.353 6.353 0 0 1-3.72-1.2Zm8.632-1.104a7.957 7.957 0 0 0-9.824 0A6.365 6.365 0 0 1 1.6 8c0-3.536 2.864-6.4 6.4-6.4 3.536 0 6.4 2.864 6.4 6.4 0 1.56-.56 2.984-1.488 4.096Z"/><path d="M8 3.2A2.803 2.803 0 0 0 5.2 6c0 1.544 1.256 2.8 2.8 2.8 1.544 0 2.8-1.256 2.8-2.8 0-1.544-1.256-2.8-2.8-2.8Zm0 4c-.664 0-1.2-.536-1.2-1.2 0-.664.536-1.2 1.2-1.2.664 0 1.2.536 1.2 1.2 0 .664-.536 1.2-1.2 1.2Z"/></svg>