<svg xmlns="http://www.w3.org/2000/svg" width="16" height="16" viewBox="0 0 16 16">
    <path fill-rule="evenodd" d="M11 0h5v5l-1.793-1.793-2.451 2.452-.265-.149c-.264 1.889-1.706 3.338-3.46 3.338-1.941 0-3.515-1.771-3.515-3.955C4.516 2.708 6.09.937 8.031.937c.191 0 .373.031.555.063l1 1-1.793 1.793 1.414 1.414 1.995-1.995c.018.041.026.088.041.131l1.55-1.55L11 0zm.547 9.727c1.758 0 3.516 2.637 3.516 3.516s0 1.757-.88 1.757H1.88c-.88 0-.88-.878-.88-1.757 0-.88 1.759-3.516 3.517-3.516s.879.879 3.515.879c2.637 0 1.758-.88 3.516-.88z"/>
</svg>
