<svg width="16" height="16" viewBox="0 0 16 16" xmlns="http://www.w3.org/2000/svg"><g clip-path="url(#clip0_3250_157)"><path fill-rule="evenodd" clip-rule="evenodd" d="M4.547 11.767c-.14.185-.278.324-.418.463-.102.102-.295.223-.478.338-.232.144-.449.28-.449.357l-.363.169C1.967 13.497.402 14.22.003 14.5V16H15.2c-.043-.021-.142-.092-.3-.205-.532-.38-1.734-1.236-3.724-2.313a11.965 11.965 0 0 0-.96-.365c-.21-.072-.364-.125-.384-.145-.14-.093-.232-.603-.047-1.16.01-.026.018-.054.028-.084.038-.124.083-.266.158-.379v-.046a.971.971 0 0 1 .185-.278v-.047c.047 0 .047-.046.047-.046l.046-.046a.722.722 0 0 1 .175-.186c.036-.03.072-.062.103-.092a.676.676 0 0 1 .165-.051c.047-.01.099-.022.16-.042.25 0 .5.05.75.1.168.033.335.067.501.085.047 0 .093 0 .14.047.139 0 .324 0 .463-.047.186-.046.371-.139.464-.37.092-.186.139-.372.046-.557-.13-.163-.009-.257.107-.347a.57.57 0 0 0 .125-.117c.03-.091 0-.143-.037-.207-.019-.033-.04-.07-.056-.117-.019-.019-.045-.022-.073-.026-.04-.006-.085-.012-.112-.067.185-.093.463-.232.324-.463-.092-.14-.185-.325-.046-.464a.587.587 0 0 1 .203-.066c.122-.025.25-.051.307-.166.11-.221-.043-.443-.18-.64-.036-.051-.07-.1-.098-.148-.062-.124-.124-.206-.186-.288a2.716 2.716 0 0 1-.133-.19c-.089-.13-.198-.29-.238-.45a.753.753 0 0 1 .017-.333c.015-.074.03-.148.03-.223 0-.37-.093-.741-.186-1.112a1.3 1.3 0 0 1-.092-.278c-.024-.093-.047-.186-.093-.278a.694.694 0 0 1-.036-.093.421.421 0 0 0-.103-.186.14.14 0 0 1 0-.185c.092-.046.185-.14.278-.232.093-.139.046-.278-.093-.37-.106-.027-.136.037-.168.106-.025.051-.05.105-.11.125h-.093c0-.046.047-.093.093-.14 0-.045 0-.092-.046-.092a.354.354 0 0 1-.232-.092c-.232-.325-.603-.51-.974-.65.047 0 .093.012.14.024.046.011.092.023.139.023.185.046.37.046.51-.047.08-.04.125-.182.165-.31l.02-.06c.039-.078-.02-.19-.068-.278l-.025-.047c-.093-.185-.278-.324-.463-.417l-.371-.186C11.269.64 11.315 0 11.315 0H7.04S6.4.32 5.613.872l-.105.051c-.25.124-.52.256-.683.459-.186.232-.371.51-.464.788-.286.164-.465.436-.63.69l-.065.098a6.625 6.625 0 0 1-.162.271c-.195.315-.384.62-.348.98.039.353.111.672.189 1.014l.043.192c0 .045.004.09.01.136a.877.877 0 0 1-.01.328c.018.073.022.138.025.2.006.094.011.179.067.263a.686.686 0 0 1 .033.082c.022.062.041.118.106.15v.093c.024 0 .035.011.047.023.011.012.023.023.046.023v.093c.048.06.1.12.152.181.148.174.302.355.405.56.046.186-.232.093-.371.047-.222-.11-.356-.251-.495-.398l-.108-.112s-.046 0-.046.046c.032.066.1.132.165.195.12.116.233.226.113.315-.047.047-.105.035-.163.024-.057-.012-.115-.024-.162.023-.03.03-.02.062-.01.093a.15.15 0 0 1 .01.046.692.692 0 0 0-.291-.067c-.06-.004-.116-.007-.172-.026-.039-.019-.061-.062-.084-.105-.033-.063-.066-.127-.148-.127a6.564 6.564 0 0 0-.927-.185l-.245-.03C.998 7.24.655 7.194.282 7.27A.722.722 0 0 0 0 7.33v.4c.07-.018.139-.037.205-.056.106-.03.207-.06.308-.08.128-.016.25-.043.371-.07.214-.047.422-.093.645-.074-.323.021-.646.13-.97.237-.121.035-.237.056-.349.077a4.91 4.91 0 0 0-.21.043v.12c.54.025 1.076.115 1.58.27.185.046.417.139.602.278a.454.454 0 0 1 .116.093c.035.034.07.07.116.092a.45.45 0 0 0 .417.047h.14l.052-.013c.357-.09.747-.186.967-.45 0 .045 0 .045.047.045a1.29 1.29 0 0 0-.083.245.999.999 0 0 1-.15.358s0 .047.047.093h.047s-.047 0-.047.046c0 .023.012.023.03.023.017 0 .04 0 .063.024a.42.42 0 0 0-.325.139c0 .046.047.046.093.046-.023.023-.046.035-.07.046a.242.242 0 0 0-.069.047s0 .046.046.046c0 0-.046 0-.046.046v.093c-.046 0-.093.047-.139.093.062.062.124.041.185.02a.3.3 0 0 1 .093-.02c-.139.046-.266.104-.394.162a4.007 4.007 0 0 1-.394.162c-.023 0-.023.024-.023.047s0 .046-.023.046c.025.025.05.01.081-.01a.196.196 0 0 1 .104-.036c-.114.065-.234.13-.358.198-.228.124-.468.254-.708.405 0 0-.046.046-.046.092h-.093c-.026 0-.038.03-.05.063-.011.027-.023.056-.043.076.072.048.144.022.209-.002.061-.022.117-.043.162.002.046 0-.046.047-.093.047 0 0 0 .046-.046.046h-.278c-.013.012-.025.021-.037.03-.031.023-.056.041-.056.11-.046 0-.093 0-.14.046a8.3 8.3 0 0 1 .362-.023c.419-.02.868-.041 1.262-.256.417-.232.788-.463 1.112-.834 0 0 .047 0 .047.046a1.266 1.266 0 0 1-.418.556.622.622 0 0 0-.185.116.622.622 0 0 1-.186.116c-.046.024-.08.047-.115.07-.035.023-.07.046-.116.07-.356.124-.739.18-1.12.236-.613.09-1.222.18-1.708.552 0-.047 0-.047-.047-.047l-.139.14h.093c.139-.093.278-.14.417-.186L.7 11.72l-.278.14a.64.64 0 0 0-.186.138v.047c-.046 0-.046.046-.046.046v.046c-.047 0-.047.047-.047.047v.046h.093c.068.034.111-.032.148-.088.013-.02.025-.039.038-.051.023-.023.046-.035.07-.046a.242.242 0 0 0 .069-.047l-.047.047c0 .046.047.046.047.046a2.55 2.55 0 0 0-.418.325H.19v.046c-.023.023-.035.046-.047.07a.243.243 0 0 1-.046.069c-.029 0-.04.018-.055.042-.009.015-.02.033-.038.05L0 12.698v.136h.05c.139-.093.278-.232.417-.371h.046c.07-.046.14-.104.209-.162.07-.058.139-.116.209-.163a.64.64 0 0 0 .185-.139l.046-.046c.113-.075.255-.12.38-.158l.084-.027h.046c.14-.024.29-.047.44-.07.151-.023.302-.046.441-.07.186 0 .371 0 .603-.046.11-.027.204-.072.291-.112.06-.028.116-.055.172-.073v.046c.186-.07.348-.185.51-.301.163-.116.325-.232.51-.302.019 0 .037.015.056.03.028.022.056.045.083.017l.081-.066c.206-.17.42-.346.708-.305 0 0 0 .046.046.046-.046.023-.093.058-.14.093a.966.966 0 0 1-.138.093s0 .046.046.046c.07-.023.116-.058.162-.093a.542.542 0 0 1 .163-.092s0 .046-.047.092c-.046.047-.092.081-.139.116-.046.035-.092.07-.139.116-.216.154-.391.35-.566.546a7.066 7.066 0 0 1-.268.289ZM1.634 7.446c.06 0 .118.002.177.009-.064-.032-.128-.02-.177-.01Zm10.55-1.99c-.041-.01-.088-.021-.127-.04-.093-.024-.162-.024-.232-.024s-.139 0-.231-.023a2.36 2.36 0 0 1-.186.036c-.123.02-.247.041-.37.103.138-.093.277-.186.463-.232.07 0 .127-.023.185-.046a.486.486 0 0 1 .186-.047c.139-.046.278-.092.417-.046.044.015.092.025.14.034.102.022.2.042.23.105.047.186-.092.325-.231.417 0 .024.023.047.046.07.024.023.047.046.047.07 0 .046-.093.092-.14.092-.03 0-.061.041-.092.083-.015.02-.03.04-.046.056.023 0 .023.023.023.047 0 .023 0 .046.023.046-.043.064-.036.147-.03.224.006.089.012.168-.063.193-.139.047-.37.047-.556 0a.304.304 0 0 1 .111-.026c.056-.005.111-.01.167-.067v-.046c0-.046 0-.046-.046-.046 0 .046-.047.046-.047.046a.1.1 0 0 0-.092-.093c-.14.047-.279-.046-.371-.139l.045-.024c.065-.036.11-.06.187-.022.048 0 .058-.038.07-.08.012-.04.024-.083.069-.106h.046c.085-.106.19-.173.283-.233.11-.07.202-.13.227-.23 0-.027-.047-.038-.105-.052Z"/><path fill-rule="evenodd" clip-rule="evenodd" d="M0 10.039V8.4l.027.004c.07.012.139.024.208.07-.036.036-.066.044-.093.04l.162.047c.686.196 1.358.39 1.925.794-.557.278-1.113.417-1.716.51-.092 0-.139 0-.185-.047 0 .047 0 .093-.046.093-.093 0-.186 0-.232.046a.188.188 0 0 1-.05.08Zm.089-1.542c-.026-.01-.053-.022-.086-.022l.104.03a.668.668 0 0 1-.018-.008Z"/><path d="M.189 11.488a2.37 2.37 0 0 0-.189.008v-.054a.376.376 0 0 1 .189.046ZM0 6.927a.686.686 0 0 0 .138-.121c0 .046 0 .046-.046.093.046.046.046.046.092.046.031-.015.062-.026.093-.036a.421.421 0 0 0 .185-.103A.929.929 0 0 0 0 6.71v.216ZM.648 10.422a.22.22 0 0 0-.039.005c-.046.01-.1.02-.1-.051.034-.102.118-.13.197-.155.028-.01.056-.018.081-.03.046-.047.14-.094.185-.047.028.055.072.061.113.066.028.004.054.008.073.027-.1.133-.224.146-.355.16-.05.006-.103.012-.155.025Z"/></g><defs><clipPath id="clip0_3250_157"><path d="M0 0h16v16H0z"/></clipPath></defs></svg>