<svg xmlns="http://www.w3.org/2000/svg" width="16" height="16" viewBox="0 0 16 16">
    <path fill-rule="evenodd" d="M6 1h10v2H6V1zm0 6h10v2H6V7zm0 6h10v2H6v-2zM2 4L.195 1.854a.901.901 0 0 1 0-1.121c.261-.31.682-.31.943 0L2 1.758 2.862.733c.26-.31.682-.31.943 0 .26.31.26.81 0 1.12L2 4zm0 6L.195 7.854a.901.901 0 0 1 0-1.121c.261-.31.682-.31.943 0L2 7.758l.862-1.025c.26-.31.682-.31.943 0 .26.31.26.81 0 1.12L2 10zm0 6L.195 13.854a.901.901 0 0 1 0-1.121c.261-.31.682-.31.943 0L2 13.758l.862-1.025c.26-.31.682-.31.943 0 .26.31.26.81 0 1.12L2 16z"/>
</svg>
