<svg width="16px" height="16px" viewBox="0 0 16 16" xmlns="http://www.w3.org/2000/svg" xmlns:xlink="http://www.w3.org/1999/xlink">
    <defs>
        <path d="M8,12.038 C5.791,12.038 4,10.247 4,8.03800005 C4,7.45100005 4.134,6.89700005 4.361,6.39500005 L6,8.03400005 L6,8.03800005 C6,9.14200005 6.896,10.038 8,10.038 C8.001,10.038 8.003,10.038 8.004,10.038 L9.644,11.677 C9.141,11.904 8.587,12.038 8,12.038 Z M1.115,1.20000005 L13.842,13.905 L12.856,14.891 L11.296,13.329 C10.362,13.757 9.276,14.038 8,14.038 C2,14.038 0,8.03800005 0,8.03800005 C0,8.03800005 0.662,6.06900005 2.353,4.38600005 L0.141,2.17500005 L1.115,1.20000005 Z M6.3105,4.42470005 L4.6515,2.76570005 C5.5945,2.32370005 6.7005,2.03770005 7.9995,2.03770005 C13.9995,2.03770005 15.9995,8.03770005 15.9995,8.03770005 C15.9995,8.03770005 15.3285,10.0347 13.6105,11.7247 L11.6135,9.72770005 C11.8545,9.21270005 11.9995,8.64470005 11.9995,8.03770005 C11.9995,5.82870005 10.2085,4.03770005 7.9995,4.03770005 C7.3935,4.03770005 6.8255,4.18270005 6.3105,4.42470005 Z M8,6.03800005 C9.104,6.03800005 10,6.93400005 10,8.03800005 C10,8.06200005 9.994,8.08400005 9.993,8.10700005 L7.931,6.04500005 C7.954,6.04400005 7.977,6.03800005 8,6.03800005 Z" id="path-1"></path>
    </defs>
    <g id="icons/16/icon-hide" stroke="none" stroke-width="1" fill="none" fill-rule="evenodd">
        <mask id="mask-2" fill="white">
            <use xlink:href="#path-1"></use>
        </mask>
        <use id="Fill-1" xlink:href="#path-1"></use>
    </g>
</svg>
