<svg xmlns="http://www.w3.org/2000/svg" xmlns:xlink="http://www.w3.org/1999/xlink" width="16" height="16" viewBox="0 0 16 16">
  <defs>
    <path id="hourglass-a" d="M4.4997,13 C4.4997,12.453 4.8397,11.709 5.2597,11.349 L7.9997,9 L10.7407,11.349 C11.1637,11.712 11.4997,12.447 11.4997,13 L4.4997,13 Z M11.4997,3 C11.4997,3.547 11.1597,4.292 10.7407,4.651 L10.3327,5 L5.6667,5 L5.2597,4.651 C4.8357,4.288 4.4997,3.552 4.4997,3 L11.4997,3 Z M12.9997,13 C12.9997,12.443 12.6837,11.684 12.2937,11.294 L8.9997,8 L12.2937,4.706 C12.6837,4.316 12.9997,3.556 12.9997,3 L12.9997,2 C13.5507,2 13.9997,1.556 13.9997,1 C13.9997,0.448 13.5437,0 12.9977,0 L3.0027,0 C2.4487,0 1.9997,0.444 1.9997,1 C1.9997,1.552 2.4557,2 3.0027,2 L2.9997,3 C2.9997,3.552 3.3127,4.312 3.7057,4.706 L6.9997,8 L3.7057,11.294 C3.3127,11.688 2.9997,12.447 2.9997,13 L2.9997,14 C2.4557,14 1.9997,14.447 1.9997,15 C1.9997,15.556 2.4487,16 3.0027,16 L12.9977,16 C13.5437,16 13.9997,15.553 13.9997,15 C13.9997,14.443 13.5507,14 12.9977,14 L12.9997,13 Z"/>
  </defs>
  <g fill-rule="evenodd">
    <use xlink:href="#hourglass-a"/>
  </g>
</svg>
