<svg xmlns="http://www.w3.org/2000/svg" xmlns:xlink="http://www.w3.org/1999/xlink" width="16" height="16" viewBox="0 0 16 16">
  <defs>
    <path id="file-none-a" d="M10,5.0999 L10,2 L4,2 C3.45,2 3,2.45 3,3 L3,13 C3,13.55 3.45,14 4,14 L12,14 C12.55,14 13,13.55 13,13 L13,6 L11.1001,6 L11.5,6.3999 L9.4,8.4999 L11.5,10.5999 L10.1,11.9999 L8,9.8999 L5.9,11.9999 L4.5,10.5999 L6.6,8.4999 L4.5,6.3999 L5.9,4.9999 L8,7.0999 L10,5.0999 Z M15,5 L15,15.004 C15,15.555 14.55,16 13.993,16 L2.007,16 C1.451,16 1,15.556 1,14.999 L1,1.001 C1,0.448 1.446,0 1.998,0 L10,0 L11,0 L15,4 L15,5 Z"/>
  </defs>
  <g fill-rule="evenodd">
    <use xlink:href="#file-none-a"/>
  </g>
</svg>
