<svg xmlns="http://www.w3.org/2000/svg" width="24" height="24" viewBox="0 0 24 24">
  <path fill="#FFF" fill-rule="evenodd" d="M106.585786,44 L96.2928932,33.7071068 C95.9023689,33.3165825 95.9023689,32.6834175 96.2928932,32.2928932 C96.6834175,31.9023689 97.3165825,31.9023689 97.7071068,32.2928932 L108,42.5857864 L118.292893,32.2928932 C118.683418,31.9023689 119.316582,31.9023689 119.707107,32.2928932 C120.097631,32.6834175 120.097631,33.3165825 119.707107,33.7071068 L109.414214,44 L119.707107,54.2928932 C120.097631,54.6834175 120.097631,55.3165825 119.707107,55.7071068 C119.316582,56.0976311 118.683418,56.0976311 118.292893,55.7071068 L108,45.4142136 L97.7071068,55.7071068 C97.3165825,56.0976311 96.6834175,56.0976311 96.2928932,55.7071068 C95.9023689,55.3165825 95.9023689,54.6834175 96.2928932,54.2928932 L106.585786,44 Z" transform="translate(-96 -32)"/>
</svg>
