<svg width="16" height="16" viewBox="0 0 16 16" xmlns="http://www.w3.org/2000/svg"><path fill-rule="evenodd" clip-rule="evenodd" d="M8 0c1.306 0 2.418.835 2.83 2H14a1 1 0 0 1 .139 1.99l1.825 3.824a.499.499 0 0 1 .036.198V8.5a2.5 2.5 0 0 1-5 0v-.49a.5.5 0 0 1 .036-.196L12.857 4H10.83A3.008 3.008 0 0 1 9 5.83V13h6a1 1 0 1 1 0 2H1a1 1 0 1 1 0-2h6V5.83A3.008 3.008 0 0 1 5.17 4H3.144l1.821 3.814A.498.498 0 0 1 5 8.012V8.5a2.5 2.5 0 0 1-5 0v-.49a.498.498 0 0 1 .036-.196l1.826-3.823A1 1 0 0 1 2 2h3.17A3.001 3.001 0 0 1 8 0Zm5.5 5.346L14.935 8h-2.87L13.5 5.346ZM1.065 8h2.87L2.5 5.346 1.065 8ZM8 4a1 1 0 1 0 0-2 1 1 0 0 0 0 2Z"/></svg>