<svg width="16" height="16" viewBox="0 0 16 16" xmlns="http://www.w3.org/2000/svg"><g clip-path="url(#clip0_1426_12815)"><path fill-rule="evenodd" clip-rule="evenodd" d="M9.873 0C8.366 0 7.06.545 5.987 1.618c-.866.866-1.39 1.885-1.548 3.048-.135.991-.032 1.936.314 2.823L.025 12.218 0 14.157a1.16 1.16 0 0 0 1.152 1.174l3.495.021a1.16 1.16 0 0 0 1.167-1.159V13.04l.001-.001.002-.001h1.156c.64 0 1.16-.52 1.16-1.16v-1.16a5.32 5.32 0 0 0 2.663.21 5.382 5.382 0 0 0 2.963-1.537c1.074-1.073 1.619-2.38 1.619-3.886 0-1.508-.545-2.814-1.619-3.887C12.686.545 11.381 0 9.873 0ZM6.804 2.435c.859-.859 1.872-1.28 3.07-1.28 1.197 0 2.21.421 3.068 1.28.86.86 1.28 1.872 1.28 3.07 0 1.197-.42 2.21-1.28 3.069a4.228 4.228 0 0 1-2.34 1.215 4.184 4.184 0 0 1-2.592-.37l-.37-.18-.663.663v1.978l-.001.001-.002.001H5.817c-.64 0-1.16.52-1.16 1.16v1.153l-.002.002h-.001l-3.496-.022h-.002l-.001-.003.018-1.47L6.137 7.74l-.177-.37c-.373-.78-.502-1.625-.376-2.548.122-.895.52-1.687 1.22-2.387Zm3.94 3.63a1.454 1.454 0 1 0 0-2.909 1.454 1.454 0 0 0 0 2.908Z"/></g><defs><clipPath id="clip0_1426_12815"><path d="M0 0h16v16H0z"/></clipPath></defs></svg>