<svg width="16" height="10" viewBox="0 0 16 10" xmlns="http://www.w3.org/2000/svg"><path d="M3 1.111H1.333V8.89H3V10H0V0h3v1.111ZM16 10h-3V8.889h1.667V1.11H13V0h3v10ZM9.807 3.667c.587 0 1.043.167 1.368.503.328.332.492.79.492 1.374V9h-1.23V5.72c0-.688-.311-1.032-.931-1.032a.983.983 0 0 0-.531.162.945.945 0 0 0-.36.372V9h-1.23V5.53c0-.258-.08-.462-.241-.612-.161-.153-.387-.23-.68-.23-.153 0-.323.057-.507.171-.18.114-.312.24-.394.377V9h-1.23V3.765h.847l.25.459c.342-.372.784-.557 1.325-.557.699 0 1.226.188 1.58.566.154-.172.369-.309.644-.41.276-.104.552-.156.828-.156Z"/></svg>