<svg width="16" height="16" viewBox="0 0 16 16" xmlns="http://www.w3.org/2000/svg"><path d="M9.524 2c1.19 0 2.133 0 2.884.08.773.08 1.408.248 1.951.626.377.263.699.582.951.942.369.523.532 1.127.612 1.874C16 6.258 16 7.185 16 8.374v.052c0 1.189 0 2.116-.078 2.851-.08.747-.243 1.352-.612 1.874-.252.36-.574.68-.95.943-.544.378-1.18.547-1.952.628-.751.078-1.694.078-2.884.078H6.476c-1.19 0-2.133 0-2.884-.078-.773-.081-1.407-.25-1.951-.628a3.859 3.859 0 0 1-.952-.943c-.368-.522-.531-1.127-.61-1.874C0 10.542 0 9.614 0 8.426v-.052c0-1.188 0-2.116.078-2.852.08-.747.243-1.351.611-1.874.253-.36.575-.679.952-.942.543-.378 1.179-.546 1.95-.627C4.344 2 5.287 2 6.477 2h3.048Zm-3.012.984c-1.234 0-2.11.001-2.788.073-.664.069-1.072.2-1.393.423-.274.193-.51.427-.693.69-.238.336-.376.766-.449 1.444-.072.686-.073 1.566-.073 2.786s0 2.101.073 2.785c.073.678.211 1.11.449 1.445.19.271.426.504.693.69.32.223.73.355 1.393.424.494.052 1.092.062 1.857.066V3h1.116v10.815h2.791c1.234 0 2.11 0 2.788-.072.664-.069 1.072-.2 1.393-.424.267-.185.502-.417.693-.688.238-.336.376-.767.448-1.446.072-.684.074-1.565.074-2.785 0-1.22 0-2.101-.074-2.786-.072-.678-.21-1.109-.448-1.444a2.815 2.815 0 0 0-.693-.69c-.32-.223-.73-.354-1.393-.423-.678-.071-1.555-.073-2.788-.073H6.512ZM3.535 7.651a.559.559 0 1 1 0 1.117h-.744a.56.56 0 0 1-.559-.559.558.558 0 0 1 .559-.558h.744Zm0-2.232a.559.559 0 1 1 0 1.116h-.744a.56.56 0 0 1-.559-.558.558.558 0 0 1 .559-.558h.744Z"/></svg>