<svg width="16" height="16" viewBox="0 0 16 16" xmlns="http://www.w3.org/2000/svg"><path fill-rule="evenodd" clip-rule="evenodd" d="M7.965 4H6a1 1 0 0 1 0-2h2.324c.444 0 .86.222 1.106.592l1.596 2.395L14 3.5V6h-2.298l1.333 2a3 3 0 1 1-1.946.687l-.744-1.116-1.589 3.814a1 1 0 0 1-.923.615H7.46a1 1 0 0 1-.76-.35l-.705-.822a3 3 0 1 1-2.908-2.826L3.086 8H1a1 1 0 0 1 0-2h2.615c.192 0 .375.076.511.212l1.282 1.282 1.57-1.121A2 2 0 0 1 8.141 6h1.157L7.965 4ZM4 11a1 1 0 1 1-2 0 1 1 0 0 1 2 0Zm10 0a1 1 0 1 1-2 0 1 1 0 0 1 2 0Z"/></svg>