<svg xmlns="http://www.w3.org/2000/svg" width="16" height="16" viewBox="0 0 16 16">
    <path fill-rule="evenodd" d="M15.785 9.637a.413.413 0 0 1 0 .726L12.28 12.28l-1.917 3.505a.414.414 0 0 1-.726 0L7.72 12.28l-3.505-1.917a.413.413 0 0 1 0-.726L7.72 7.72l1.917-3.505a.414.414 0 0 1 .726 0L12.28 7.72l3.505 1.917zm-8.91-6.349a.241.241 0 0 1 0 .424L4.83 4.83 3.712 6.874a.241.241 0 0 1-.424 0L2.17 4.83.126 3.712a.241.241 0 0 1 0-.424L2.17 2.17 3.288.126a.242.242 0 0 1 .424 0L4.83 2.17l2.044 1.118z"/>
</svg>
