<svg xmlns="http://www.w3.org/2000/svg" width="16" height="16" viewBox="0 0 16 16">
    <path fill-rule="evenodd" d="M10 13a2 2 0 1 1-4.001-.001A2 2 0 0 1 10 13zm4.873-5.978c-.277 0-.555-.104-.767-.317a8.604 8.604 0 0 0-6.129-2.538A8.603 8.603 0 0 0 1.85 6.704 1.085 1.085 0 0 1 .317 5.173a10.76 10.76 0 0 1 7.66-3.172c2.894 0 5.616 1.126 7.662 3.172a1.085 1.085 0 0 1-.766 1.85zm-3.065 3.23c-.277 0-.555-.104-.766-.316-1.635-1.637-4.492-1.637-6.128 0a1.084 1.084 0 0 1-1.532-1.532A6.457 6.457 0 0 1 7.978 6.5c1.737 0 3.369.676 4.596 1.904a1.083 1.083 0 0 1-.766 1.849z"/>
</svg>
