<svg width="16" height="14" viewBox="0 0 16 14" xmlns="http://www.w3.org/2000/svg"><path d="M14.546.452H1.455C.655.452 0 1.106 0 1.906v2.902h1.455V1.892h13.09v10.203H1.456V9.172H0v2.916c0 .8.655 1.44 1.455 1.44h13.09c.8 0 1.455-.64 1.455-1.44V1.906C16 1.1 15.345.452 14.546.452ZM7.273 9.899l2.909-2.91-2.91-2.908v2.182H0v1.454h7.273V9.9ZM14.546.452H1.455C.655.452 0 1.106 0 1.906v2.902h1.455V1.892h13.09v10.203H1.456V9.172H0v2.916c0 .8.655 1.44 1.455 1.44h13.09c.8 0 1.455-.64 1.455-1.44V1.906C16 1.1 15.345.452 14.546.452ZM7.273 9.899l2.909-2.91-2.91-2.908v2.182H0v1.454h7.273V9.9Z"/></svg>