<svg xmlns="http://www.w3.org/2000/svg" width="16" height="16" viewBox="0 0 16 16">
    <path fill-rule="evenodd" d="M12.889 8a1.333 1.333 0 1 1 0-2.667 1.333 1.333 0 0 1 0 2.667zm-2.667-3.556a1.333 1.333 0 1 1 0-2.666 1.333 1.333 0 0 1 0 2.666zm-4.444 0a1.333 1.333 0 1 1 0-2.666 1.333 1.333 0 0 1 0 2.666zM3.11 8a1.333 1.333 0 1 1 0-2.667 1.333 1.333 0 0 1 0 2.667zM8 0a8 8 0 1 0 0 16c.736 0 1.333-.597 1.333-1.333 0-.347-.133-.658-.346-.89a1.333 1.333 0 0 1 .996-2.222h1.573A4.444 4.444 0 0 0 16 7.112C16 3.182 12.418 0 8 0z"/>
</svg>
