<svg width="16" height="16" viewBox="0 0 16 16" xmlns="http://www.w3.org/2000/svg"><path fill-rule="evenodd" clip-rule="evenodd" d="M2 2a2 2 0 0 0-2 2v8a2 2 0 0 0 2 2h12a2 2 0 0 0 2-2V4a2 2 0 0 0-2-2H2Zm5.5 8.25c0-.375-.75-1.5-1.5-1.5-.337 0-.447.076-.568.16-.148.101-.313.215-.932.215-.62 0-.784-.114-.932-.216-.121-.083-.23-.159-.568-.159-.75 0-1.5 1.125-1.5 1.5s0 .75.375.75h5.25c.309 0 .363-.254.373-.553l.002-.197ZM6 6.687C6 5.756 5.328 5 4.5 5S3 5.756 3 6.688c0 .931.672 1.687 1.5 1.687S6 7.619 6 6.687ZM14 8.5a.5.5 0 0 0-.5-.5h-4a.5.5 0 0 0 0 1h4a.5.5 0 0 0 .5-.5Zm0 2a.5.5 0 0 0-.5-.5h-4a.5.5 0 0 0 0 1h4a.5.5 0 0 0 .5-.5Zm0-4a.5.5 0 0 0-.5-.5h-4a.5.5 0 0 0 0 1h4a.5.5 0 0 0 .5-.5Z"/></svg>
