<svg width="16" height="16" viewBox="0 0 16 16" xmlns="http://www.w3.org/2000/svg"><path d="M6 9.167c-1.56 0-4.667.78-4.667 2.333v1.167h9.334V11.5c0-1.553-3.107-2.333-4.667-2.333Zm-3.107 2.167c.56-.387 1.914-.834 3.107-.834 1.193 0 2.547.447 3.107.834H2.893ZM6 8a2.336 2.336 0 0 0 2.333-2.333A2.336 2.336 0 0 0 6 3.334a2.336 2.336 0 0 0-2.333 2.333A2.336 2.336 0 0 0 6 8Zm0-3.333c.553 0 1 .447 1 1 0 .553-.447 1-1 1-.553 0-1-.447-1-1 0-.553.447-1 1-1Zm4.693 4.54C11.467 9.767 12 10.513 12 11.5v1.167h2.667V11.5c0-1.347-2.334-2.113-3.974-2.293ZM10 8a2.336 2.336 0 0 0 2.333-2.333A2.336 2.336 0 0 0 10 3.334c-.36 0-.693.086-1 .233.42.593.667 1.32.667 2.1S9.42 7.173 9 7.767c.307.146.64.233 1 .233Z"/></svg>