<svg xmlns="http://www.w3.org/2000/svg" width="16" height="16" viewBox="0 0 16 16">
    <path fill-rule="evenodd" d="M8 16A8 8 0 1 0 8 0a8 8 0 0 0 0 16zM9.9 4h1.2l-5 8H4.9l5-8zm1.704 6.604a.82.82 0 0 0 .25-.604.82.82 0 0 0-.25-.604.82.82 0 0 0-.604-.25.821.821 0 0 0-.605.25.82.82 0 0 0-.25.604.82.82 0 0 0 .25.604c.166.167.368.25.605.25a.82.82 0 0 0 .604-.25zm.813.81A1.925 1.925 0 0 1 11 12a1.925 1.925 0 0 1-1.414-.586A1.926 1.926 0 0 1 9 10c0-.552.195-1.023.586-1.414C9.976 8.195 10.448 8 11 8c.551 0 1.023.195 1.414.586.39.391.586.862.586 1.414 0 .552-.195 1.023-.583 1.414zm-6.813-4.81A.818.818 0 0 0 5.855 6a.818.818 0 0 0-.25-.604A.818.818 0 0 0 5 5.145a.818.818 0 0 0-.605.251.82.82 0 0 0-.25.604.82.82 0 0 0 .25.604.818.818 0 0 0 .605.251.818.818 0 0 0 .604-.251zm.813.81C6.027 7.805 5.555 8 5 8a1.925 1.925 0 0 1-1.414-.586A1.926 1.926 0 0 1 3 6c0-.552.195-1.023.586-1.414C3.976 4.195 4.448 4 5 4c.551 0 1.023.195 1.414.586C6.804 4.977 7 5.448 7 6c0 .552-.195 1.023-.583 1.414z"/>
</svg>
