<svg width="14" height="17" viewBox="0 0 14 17" xmlns="http://www.w3.org/2000/svg"><path d="M12.333.5H1.667C.82.5.143 1.186.143 2.024V12.69c0 .839.678 1.524 1.524 1.524h3.047L7 16.5l2.286-2.286h3.047c.838 0 1.524-.685 1.524-1.524V2.024c0-.838-.685-1.524-1.524-1.524Zm0 12.19h-3.68L7 14.345 5.347 12.69h-3.68V2.024h10.666V12.69ZM7 7.357a2.292 2.292 0 0 0 2.286-2.286A2.292 2.292 0 0 0 7 2.786 2.292 2.292 0 0 0 4.714 5.07 2.292 2.292 0 0 0 7 7.357ZM7 4.31c.42 0 .762.342.762.761A.764.764 0 0 1 7 5.833a.764.764 0 0 1-.762-.762c0-.419.343-.761.762-.761Zm4.572 6.537c0-1.905-3.025-2.728-4.572-2.728-1.547 0-4.571.823-4.571 2.728v1.082h9.143v-1.082Zm-7.254-.442c.564-.389 1.7-.762 2.682-.762.983 0 2.118.373 2.682.762H4.318Z"/></svg>