<svg width="16" height="13" viewBox="0 0 16 13" xmlns="http://www.w3.org/2000/svg"><path d="M12.768 5.398h-.905a.753.753 0 0 1-.553-.222.745.745 0 0 1-.223-.55.76.76 0 0 1 .223-.554.746.746 0 0 1 .553-.226h.905v-.904c0-.22.073-.404.221-.553a.745.745 0 0 1 .55-.223c.219 0 .404.074.555.223.15.149.226.333.226.553v.904h.904c.22 0 .404.074.553.222a.745.745 0 0 1 .223.55.76.76 0 0 1-.223.554.746.746 0 0 1-.553.226h-.904v.905c0 .22-.074.404-.222.552a.745.745 0 0 1-.55.224.759.759 0 0 1-.554-.224.746.746 0 0 1-.226-.552v-.905Zm-6.706.825c-.868 0-1.604-.302-2.208-.906-.604-.604-.906-1.34-.906-2.208 0-.868.302-1.603.906-2.205C4.458.3 5.194 0 6.062 0 6.93 0 7.665.301 8.27.904c.604.602.906 1.337.906 2.205 0 .868-.302 1.604-.906 2.208-.604.604-1.34.906-2.208.906ZM0 10.753v-.36c0-.383.094-.734.281-1.055.188-.32.446-.576.774-.766.76-.44 1.563-.778 2.409-1.013a9.646 9.646 0 0 1 2.598-.353c.893 0 1.762.117 2.607.35.846.234 1.646.57 2.4 1.01.328.191.586.446.773.765.188.32.282.673.282 1.061v.36c0 .471-.166.872-.497 1.203a1.64 1.64 0 0 1-1.203.497h-8.73c-.472 0-.871-.166-1.2-.497A1.643 1.643 0 0 1 0 10.753Z"/></svg>