<svg width="16" height="16" viewBox="0 0 16 16" xmlns="http://www.w3.org/2000/svg"><path fill-rule="evenodd" clip-rule="evenodd" d="M15.539.461a1.574 1.574 0 0 0-2.25.023L9.88 4.081 2.025 1.135a.51.51 0 0 0-.54.117L.15 2.588a.51.51 0 0 0 .108.804l6.561 3.75-3.57 3.57-1.74-.435a.51.51 0 0 0-.506.158l-.861.98a.51.51 0 0 0 .18.805l2.417 1.042 1.042 2.416a.51.51 0 0 0 .806.181l.979-.861a.51.51 0 0 0 .158-.507l-.435-1.739 3.57-3.57 3.75 6.56a.51.51 0 0 0 .804.108l1.336-1.335a.51.51 0 0 0 .117-.54L11.918 6.12l3.597-3.41a1.576 1.576 0 0 0 .023-2.25Z"/></svg>