<svg xmlns="http://www.w3.org/2000/svg" width="16" height="16" viewBox="0 0 16 16">
    <path fill-rule="evenodd" d="M7.884.547c.03.06.05.12.068.183.012.041.037.074.044.117.007.044-.007.084-.005.127.002.062.002.123-.007.186a.988.988 0 0 1-.045.172.986.986 0 0 1-.06.128c-.032.061-.062.12-.106.173-.003.003-.004.007-.006.01l-2.505 2.99a1.001 1.001 0 0 1-1.408.126.987.987 0 0 1-.352-.705C2.57 5.13 2.002 6.514 2 7.984c-.003 2.32 1.352 4.445 3.414 5.462a.997.997 0 1 1-.886 1.79C1.79 13.885-.004 11.067 0 7.981c.003-2.36 1.088-4.534 2.788-6.029a.984.984 0 0 1-.79-.957A.998.998 0 0 1 3 0l4 .005c.069 0 .128.016.19.028.026.005.052.005.077.011a.97.97 0 0 1 .305.142c.03.02.053.048.082.072a1.044 1.044 0 0 1 .23.29zm3.542.158a7.981 7.981 0 0 1 2.464 1.856l-1.641 1.17a5.977 5.977 0 0 0-1.686-1.225.996.996 0 0 1-.47-1.331 1 1 0 0 1 1.333-.47zm.832 11.533a6.075 6.075 0 0 0 1.404-2.286l2.003.335a8.094 8.094 0 0 1-2.222 3.61l-1.185-1.66zM15.035 4.2A8.067 8.067 0 0 1 16 8c0 .106-.01.209-.015.313L14 7.98a6.086 6.086 0 0 0-.6-2.613L15.034 4.2zm-6.179 9.79a5.796 5.796 0 0 0 1.79-.57l1.18 1.656c-.82.45-1.73.76-2.699.892a1 1 0 1 1-.27-1.978z"/>
</svg>
