<svg xmlns="http://www.w3.org/2000/svg" width="16" height="16" viewBox="0 0 16 16">
    <path fill-rule="evenodd" d="M8.116.547a1.044 1.044 0 0 1 .23-.289c.03-.024.051-.052.082-.072a.97.97 0 0 1 .305-.142c.025-.006.051-.006.076-.01C8.872.02 8.931.004 9 .004L13 0a.998.998 0 0 1 1.001.996.984.984 0 0 1-.789.957c1.7 1.495 2.785 3.67 2.788 6.03.004 3.085-1.79 5.902-4.528 7.252a.997.997 0 1 1-.886-1.789c2.062-1.017 3.417-3.143 3.414-5.462-.002-1.47-.57-2.855-1.502-3.93a.987.987 0 0 1-.352.705 1.001 1.001 0 0 1-1.408-.126l-2.505-2.99c-.002-.003-.003-.007-.006-.01-.044-.053-.074-.112-.106-.173a.986.986 0 0 1-.06-.128.988.988 0 0 1-.045-.172A1.056 1.056 0 0 1 8.01.974c.002-.043-.012-.083-.005-.127.007-.043.032-.076.044-.117.018-.063.038-.124.068-.183zM4.574.705a1 1 0 0 1 1.333.47.996.996 0 0 1-.47 1.33 5.977 5.977 0 0 0-1.686 1.227L2.111 2.56A7.981 7.981 0 0 1 4.573.706zm-.832 11.533l-1.185 1.659a8.094 8.094 0 0 1-2.222-3.61l2.003-.335a6.075 6.075 0 0 0 1.404 2.286zM.965 4.2l1.637 1.168A6.086 6.086 0 0 0 2 7.98l-1.986.332C.01 8.209 0 8.106 0 8A8.067 8.067 0 0 1 .965 4.2zm6.179 9.79a1 1 0 0 1-.271 1.978 7.803 7.803 0 0 1-2.7-.892l1.182-1.655a5.796 5.796 0 0 0 1.789.569z"/>
</svg>
