<svg width="16" height="16" viewBox="0 0 16 16" xmlns="http://www.w3.org/2000/svg"><path fill-rule="evenodd" clip-rule="evenodd" d="M13 9.102v2.843a.5.5 0 0 1-.255.435l-4.5 2.532a.5.5 0 0 1-.49 0l-4.5-2.532A.5.5 0 0 1 3 11.945V9.102l4.03 2.155a2.06 2.06 0 0 0 1.94 0L13 9.103ZM8.16 1.023l.102.042 7.465 3.992a.522.522 0 0 1 .204.194.492.492 0 0 1-.124.64l-.08.052-7.465 3.992a.56.56 0 0 1-.423.041l-.101-.041L2 6.867V11a1 1 0 1 1-2 0V5.5c0-.148.068-.292.192-.39l.08-.053 7.466-3.992a.558.558 0 0 1 .338-.06l.085.019Z"/></svg>