<svg width="16" height="16" viewBox="0 0 16 16" xmlns="http://www.w3.org/2000/svg"><path d="M12.8 16a2.314 2.314 0 0 1-1.7-.7 2.314 2.314 0 0 1-.7-1.7c0-.093.007-.19.02-.29.013-.1.033-.19.06-.27L4.84 9.76c-.227.2-.48.357-.76.47-.28.113-.573.17-.88.17a2.314 2.314 0 0 1-1.7-.7A2.314 2.314 0 0 1 .8 8c0-.667.233-1.233.7-1.7a2.314 2.314 0 0 1 1.7-.7c.307 0 .6.057.88.17.28.113.533.27.76.47l5.64-3.28a1.464 1.464 0 0 1-.06-.27 2.2 2.2 0 0 1-.02-.29c0-.667.233-1.233.7-1.7a2.314 2.314 0 0 1 1.7-.7c.667 0 1.233.233 1.7.7.467.467.7 1.033.7 1.7s-.233 1.233-.7 1.7c-.467.467-1.033.7-1.7.7-.307 0-.6-.057-.88-.17a2.635 2.635 0 0 1-.76-.47L5.52 7.44c.027.08.047.17.06.27a2.195 2.195 0 0 1 0 .58c-.013.1-.033.19-.06.27l5.64 3.28c.227-.2.48-.357.76-.47.28-.113.573-.17.88-.17.667 0 1.233.233 1.7.7.467.467.7 1.033.7 1.7s-.233 1.233-.7 1.7c-.467.467-1.033.7-1.7.7Z"/></svg>