<svg width="15" height="16" viewBox="0 0 15 16" xmlns="http://www.w3.org/2000/svg"><path d="M6.432 15.635c-.092 0-.178-.01-.257-.03a3.27 3.27 0 0 1-.237-.069c-1.782-.593-3.203-1.688-4.266-3.285C.61 10.655.052 8.933 0 7.085v-3.74c0-.33.096-.627.287-.89.191-.265.439-.456.742-.575L5.78.1C5.964.033 6.15 0 6.333 0c.185 0 .37.033.554.099l4.75 1.781c.304.119.551.31.743.574.191.264.287.56.287.89v3.741a7.922 7.922 0 0 1-.04.792 3.683 3.683 0 0 0-.752-.08 4.178 4.178 0 0 0-.831.08 8.356 8.356 0 0 0 .04-.792v-3.74l-4.75-1.781-4.75 1.78v3.741a7.52 7.52 0 0 0 1.345 4.355c.897 1.306 2.032 2.177 3.404 2.612.277-.092.548-.204.812-.336.264-.132.521-.284.772-.456v1.86a4.445 4.445 0 0 1-.406.179c-.139.053-.327.132-.564.238-.08.026-.162.049-.248.069-.085.02-.174.03-.267.03Zm3.74.08a.648.648 0 0 1-.474-.198.648.648 0 0 1-.198-.475v-2.613c0-.185.066-.343.198-.475a.648.648 0 0 1 .475-.198h.119v-.791c0-.436.155-.809.465-1.119.31-.31.683-.465 1.118-.465.435 0 .808.155 1.118.465.31.31.465.683.465 1.119v.791h.12c.184 0 .342.066.474.198.132.132.198.29.198.475v2.613a.648.648 0 0 1-.198.475.648.648 0 0 1-.475.198h-3.404Zm.911-3.959h1.584v-.791a.766.766 0 0 0-.228-.565.766.766 0 0 0-.564-.227.766.766 0 0 0-.564.227.766.766 0 0 0-.228.565v.791Z"/></svg>