<svg xmlns="http://www.w3.org/2000/svg" width="16" height="16" viewBox="0 0 16 16">
  <g fill-rule="evenodd">
    <path d="M8 0C9.20521 0 10.3958 0.161508 11.7816 0.497858C13.0017 0.79361 14.2524 1.21086 15.5333 1.74843C15.8038 1.84297 16 2.08508 16 2.3672C16 5.70315 15.5174 8.29912 14.3128 10.4515C13.1076 12.6172 11.2094 14.3253 8.40627 15.8989C8.16596 16.0337 7.84964 16.0337 7.60833 15.8989C4.80591 14.3253 2.90797 12.6172 1.70243 10.4515C0.49722 8.29912 0 5.70315 0 2.3672C0 2.12034 0.15019 1.90412 0.379636 1.79059L0.482616 1.74843C1.7479 1.21086 2.99826 0.79361 4.23334 0.497858C5.60485 0.161508 6.81039 0 8 0ZM8 2C6.98556 2 5.93935 2.13874 4.69909 2.44287C3.89685 2.63497 3.08355 2.88465 2.2592 3.19225L2.014 3.286L2.02834 3.64806C2.1358 5.97025 2.55108 7.75457 3.31204 9.22285L3.44993 9.47871C4.34101 11.0795 5.72634 12.4281 7.84879 13.723L8.007 13.818L8.16353 13.7244C10.1711 12.5 11.5185 11.2287 12.4142 9.73979L12.5676 9.47474C13.4082 7.97259 13.8602 6.12463 13.9721 3.65506L13.985 3.283L13.7512 3.19376C13.0851 2.94655 12.4311 2.73671 11.7891 2.564L11.3099 2.44143C10.0547 2.13679 9.02322 2 8 2ZM8 4C8.76147 4 9.53815 4.09217 10.4778 4.30112L10.8381 4.385L11.2935 4.50163L11.7186 4.62187L11.893 4.675L11.8889 4.73299C11.7379 6.17337 11.4298 7.31061 10.9557 8.24741L10.8223 8.49801L10.6832 8.73794L10.5465 8.95553C10.0314 9.74198 9.31695 10.4776 8.33818 11.203L8.007 11.44L7.999 11.435L8 4Z" />
  </g>
</svg>