<svg width="16" height="16" viewBox="0 0 16 16" xmlns="http://www.w3.org/2000/svg"><path fill-rule="evenodd" clip-rule="evenodd" d="M12.64.64C11.2.072 9.488 0 8 0 6.512 0 4.8.072 3.36.64 1.224 1.472 0 3.24 0 5.488V16h16V5.488C16 3.24 14.776 1.472 12.64.64ZM13 5.857v5c0 1.07-.785 1.958-1.811 2.118l1.097 1.096v.358h-1.429L9.43 13H6.57l-1.428 1.429H3.714v-.358l1.097-1.096A2.143 2.143 0 0 1 3 10.857v-5C3 3.714 5.143 3 8 3s5 .714 5 2.857Zm-8.571-.714V8h7.142V5.143H4.43ZM6.57 10.5a1.071 1.071 0 1 1-2.142 0 1.071 1.071 0 0 1 2.142 0Zm3.929 1.071a1.071 1.071 0 1 0 0-2.142 1.071 1.071 0 0 0 0 2.142Z"/></svg>