<svg width="16" height="16" viewBox="0 0 16 16" xmlns="http://www.w3.org/2000/svg"><path fill-rule="evenodd" clip-rule="evenodd" d="m5.723 13.553.899-1.797a4.012 4.012 0 0 1-2.378-2.378l-1.797.899a6.02 6.02 0 0 0 3.276 3.276Zm.899-9.31a4.012 4.012 0 0 0-2.378 2.379l-1.797-.899a6.02 6.02 0 0 1 3.276-3.276l.899 1.797Zm6.931 6.034a6.021 6.021 0 0 1-3.277 3.276l-.898-1.797a4.012 4.012 0 0 0 2.378-2.378l1.797.899Zm0-4.554a6.02 6.02 0 0 0-3.277-3.276l-.898 1.797a4.012 4.012 0 0 1 2.378 2.378l1.797-.899ZM16 8A8 8 0 1 1 0 8a8 8 0 0 1 16 0Zm-6 0a2 2 0 1 1-4 0 2 2 0 0 1 4 0Z"/></svg>