<svg xmlns="http://www.w3.org/2000/svg" width="16" height="16" viewBox="0 0 16 16">
    <g fill="none" fill-rule="evenodd">
        <g fill="#297EF1">
            <path d="M8 2c2.21 0 4 1.79 4 4 2.21 0 4 1.79 4 4s-1.79 4-4 4H4c-2.21 0-4-1.79-4-4s1.79-4 4-4c0-2.21 1.79-4 4-4zM4.6 9.014c-.12-.025-.242-.004-.345.055l-.038.024c-.042.029-.08.063-.112.104l-.012.014c-.034.047-.059.1-.074.16l-.006.04C4.008 9.441 4 9.469 4 9.5v2c0 .276.224.5.5.5.237 0 .426-.168.478-.39C5.728 12.459 6.818 13 8 13c1.547 0 2.956-.899 3.632-2.268.122-.247.02-.547-.228-.67-.248-.121-.547-.02-.67.228C10.227 11.322 9.162 12 8 12c-.74 0-1.436-.286-1.976-.754.135-.007.267-.064.36-.176.177-.212.148-.527-.064-.704l-1.5-1.25c-.005-.005-.012-.006-.017-.011l-.04-.024c-.04-.025-.08-.045-.124-.057zM8 5c-1.57 0-2.992.906-3.653 2.291-.119.25-.013.548.236.667.25.118.548.013.667-.236C5.746 6.682 6.817 6 8 6c.769 0 1.477.287 2.017.758-.149-.005-.298.048-.401.172-.177.212-.148.527.064.704l1.5 1.25.011.007c.01.008.023.013.034.02.04.028.083.05.127.063l.04.01c.054.012.11.017.163.01.005 0 .009.002.013.001.063-.01.118-.031.17-.059.014-.007.025-.016.038-.024.04-.027.076-.059.107-.097l.02-.021c.034-.047.06-.1.077-.158.003-.01.002-.02.004-.03.008-.034.016-.068.016-.106v-2c0-.276-.224-.5-.5-.5-.226 0-.41.152-.471.357C10.284 5.523 9.196 5 7.999 5z"/>
        </g>
    </g>
</svg>
