<svg xmlns="http://www.w3.org/2000/svg" width="16" height="16" viewBox="0 0 16 16">
    <path fill-rule="evenodd" d="M9 12.899V12a1 1 0 0 0-2 0v.899A5.016 5.016 0 0 1 3.101 9H4a1 1 0 0 0 0-2h-.899A5.016 5.016 0 0 1 7 3.101V4a1 1 0 0 0 2 0v-.899A5.016 5.016 0 0 1 12.899 7H12a1 1 0 0 0 0 2h.899A5.016 5.016 0 0 1 9 12.899zM16 7h-1.08A7.005 7.005 0 0 0 9 1.08V1a1 1 0 0 0-2 0v.08A7.005 7.005 0 0 0 1.08 7H1a1 1 0 0 0 0 2h.08A7.004 7.004 0 0 0 7 14.92V15a1 1 0 0 0 2 0v-.08A7.004 7.004 0 0 0 14.92 9H16V7z"/>
</svg>
