<svg width="16" height="16" viewBox="0 0 16 16" xmlns="http://www.w3.org/2000/svg"><path fill-rule="evenodd" clip-rule="evenodd" d="M8 6.04c1.08 0 1.96.878 1.96 1.96 0 1.08-.88 1.96-1.96 1.96S6.04 9.08 6.04 8c0-1.082.88-1.96 1.96-1.96ZM8 0C3.59 0 0 3.588 0 8c0 4.41 3.59 8 8 8 1.778 0 3.46-.572 4.865-1.65l.138-.106-1.079-1.404-.137.106A6.167 6.167 0 0 1 8 14.228 6.236 6.236 0 0 1 1.77 8 6.236 6.236 0 0 1 8 1.77 6.236 6.236 0 0 1 14.23 8v.711a1.25 1.25 0 0 1-2.498 0v-.174h-.04a3.75 3.75 0 0 0 .04-.537V4.98h-1.565A3.688 3.688 0 0 0 8 4.268 3.736 3.736 0 0 0 4.268 8 3.735 3.735 0 0 0 8 11.73c.986 0 1.938-.405 2.642-1.118a3.02 3.02 0 0 0 2.338 1.119A3.023 3.023 0 0 0 16 8.71V8c0-4.412-3.59-8-8-8Z"/></svg>