<svg xmlns="http://www.w3.org/2000/svg" width="32" height="32" fill="none" viewBox="0 0 32 32"><rect width="32" height="32" fill="url(#a)" rx="10.568"/><g filter="url(#b)"><path fill="#fff" fill-rule="evenodd" d="M6.585 11.774a3.05 3.05 0 0 0-1.2 2.423v8.7a3.66 3.66 0 0 0 3.658 3.658H22.94a3.66 3.66 0 0 0 3.657-3.658v-8.7c0-.95-.444-1.847-1.2-2.423L17.84 6.009a3.05 3.05 0 0 0-3.697 0zm1.157 2.07v9.18c0 .674.546 1.22 1.22 1.22h14.06a1.22 1.22 0 0 0 1.22-1.22v-9.18l-6.852 4.798a2.44 2.44 0 0 1-2.797 0z" clip-rule="evenodd"/></g><defs><linearGradient id="a" x1="4.487" x2="31.249" y1="28.638" y2="1.55" gradientUnits="userSpaceOnUse"><stop stop-color="#1e91ff"/><stop offset=".997" stop-color="#2ed9ff"/></linearGradient><filter id="b" width="24.477" height="24.434" x="3.753" y="4.08" color-interpolation-filters="sRGB" filterUnits="userSpaceOnUse"><feFlood flood-opacity="0" result="BackgroundImageFix"/><feColorMatrix in="SourceAlpha" result="hardAlpha" values="0 0 0 0 0 0 0 0 0 0 0 0 0 0 0 0 0 0 127 0"/><feOffset dy=".326"/><feGaussianBlur stdDeviation=".816"/><feComposite in2="hardAlpha" operator="out"/><feColorMatrix values="0 0 0 0 0 0 0 0 0 0 0 0 0 0 0 0 0 0 0.1 0"/><feBlend in2="BackgroundImageFix" result="effect1_dropShadow_12591_86"/><feBlend in="SourceGraphic" in2="effect1_dropShadow_12591_86" result="shape"/></filter></defs></svg>