<svg xmlns="http://www.w3.org/2000/svg" width="16" height="16" viewBox="0 0 16 16">
    <path fill-rule="evenodd" d="M.151 2.849l1.414-1.414 13 13-1.414 1.414-4.453-4.452c-1.099.059-2.202-.298-3-1.095a1.044 1.044 0 0 1 0-1.475c.077-.076.168-.124.26-.172L5.302 8l-2.909 2.91a1.04 1.04 0 0 0-.007 1.472l1.23 1.23a1.04 1.04 0 0 0 1.468-.002l1.656-1.656a1.042 1.042 0 1 1 1.474 1.475L6.56 15.085a3.126 3.126 0 0 1-4.418.002l-1.229-1.23A3.125 3.125 0 0 1 .92 9.437l2.91-2.91L.15 2.849zm10.15 2.85a1.044 1.044 0 0 1 0 1.475c-.033.034-.078.048-.115.076L7.53 4.595c1.023 0 2.03.362 2.77 1.104zm4.786-3.556a3.126 3.126 0 0 1-.007 4.422l-2.79 2.79-1.474-1.474 2.79-2.79a1.04 1.04 0 0 0 .006-1.473l-1.23-1.23a1.042 1.042 0 0 0-1.468.002L9.259 4.045A1.042 1.042 0 1 1 7.784 2.57L9.44.915a3.127 3.127 0 0 1 4.418-.001l1.229 1.229z"/>
</svg>
