<svg width="17" height="16" viewBox="0 0 17 16" xmlns="http://www.w3.org/2000/svg"><path d="m13.907 11.45-1.19-1.23a2.42 2.42 0 0 0 1.289-.843c.33-.416.495-.902.495-1.457 0-.66-.23-1.223-.694-1.685a2.294 2.294 0 0 0-1.685-.694H9.743a.767.767 0 0 1-.565-.228.767.767 0 0 1-.228-.565c0-.225.076-.413.228-.565a.767.767 0 0 1 .565-.228h2.38c1.096 0 2.031.386 2.805 1.16.773.773 1.16 1.708 1.16 2.805a3.9 3.9 0 0 1-.585 2.082 3.797 3.797 0 0 1-1.596 1.447Zm-2.875-2.915L9.624 7.127h.912c.225 0 .413.076.565.228.152.152.228.34.228.565a.787.787 0 0 1-.08.357.69.69 0 0 1-.217.258Zm3.866 7.236a.752.752 0 0 1-.555.218.752.752 0 0 1-.555-.218L.306 2.29a.752.752 0 0 1-.219-.555c0-.225.073-.41.219-.555A.752.752 0 0 1 .86.961c.224 0 .41.073.555.218l13.482 13.482c.145.146.218.33.218.555 0 .225-.073.41-.218.555ZM4.192 11.885c-1.097 0-2.033-.386-2.806-1.16C.613 9.953.226 9.018.226 7.92c0-.912.278-1.725.833-2.439A3.864 3.864 0 0 1 3.2 4.074L4.667 5.54h-.475c-.661 0-1.223.231-1.686.694a2.294 2.294 0 0 0-.694 1.685c0 .66.232 1.223.694 1.685a2.294 2.294 0 0 0 1.686.694H6.57c.224 0 .413.076.565.228.152.152.228.34.228.565a.767.767 0 0 1-.228.565.767.767 0 0 1-.565.228H4.19Zm1.586-3.172a.767.767 0 0 1-.565-.228.767.767 0 0 1-.228-.565c0-.225.076-.413.228-.565a.767.767 0 0 1 .565-.228h.495L7.84 8.713H5.778Z"/></svg>