<svg width="16" height="16" viewBox="0 0 16 16" xmlns="http://www.w3.org/2000/svg"><path d="m7 3.825-4.9 4.9c-.2.2-.433.296-.7.287A1.006 1.006 0 0 1 .7 8.7C.517 8.5.42 8.266.412 8A.916.916 0 0 1 .7 7.3L7.3.7a.88.88 0 0 1 .325-.213C7.742.446 7.867.425 8 .425s.258.02.375.062A.877.877 0 0 1 8.7.7l6.6 6.6a.933.933 0 0 1 .275.687c0 .275-.092.513-.275.713-.2.2-.438.3-.713.3a.973.973 0 0 1-.712-.3L9 3.825V15c0 .283-.096.52-.288.712A.967.967 0 0 1 8 16a.967.967 0 0 1-.713-.288A.968.968 0 0 1 7 15V3.825Z"/></svg>