<svg xmlns="http://www.w3.org/2000/svg" width="16" height="16" viewBox="0 0 16 16">
    <path fill-rule="evenodd" d="M1 1h14a1 1 0 0 1 1 1v12a1 1 0 0 1-1 1H1a1 1 0 0 1-1-1V2a1 1 0 0 1 1-1zm.5 1a.5.5 0 0 0 0 1h1a.5.5 0 0 0 0-1h-1zm0 11a.5.5 0 1 0 0 1h1a.5.5 0 1 0 0-1h-1zm3-11a.5.5 0 0 0 0 1h1a.5.5 0 0 0 0-1h-1zm0 11a.5.5 0 1 0 0 1h1a.5.5 0 1 0 0-1h-1zm3-11a.5.5 0 0 0 0 1h1a.5.5 0 0 0 0-1h-1zm0 11a.5.5 0 1 0 0 1h1a.5.5 0 1 0 0-1h-1zm3-11a.5.5 0 1 0 0 1h1a.5.5 0 1 0 0-1h-1zm0 11a.5.5 0 1 0 0 1h1a.5.5 0 1 0 0-1h-1zm3-11a.5.5 0 1 0 0 1h1a.5.5 0 1 0 0-1h-1zm0 11a.5.5 0 1 0 0 1h1a.5.5 0 1 0 0-1h-1zM6 11.066a.5.5 0 0 0 .777.416l4.599-3.064a.5.5 0 0 0 0-.832L6.777 4.52A.5.5 0 0 0 6 4.935v6.131z"/>
</svg>
