<svg width="16" height="17" viewBox="0 0 16 17" xmlns="http://www.w3.org/2000/svg"><path fill-rule="evenodd" clip-rule="evenodd" d="M10.602 3.663A2 2 0 1 1 8.38.337a2 2 0 0 1 2.222 3.326Zm-.121 3.73a2.55 2.55 0 0 0 1.51.607 1 1 0 1 1 0 2 4.071 4.071 0 0 1-3-1.29l-.69 1.58 2.33 1.94a1 1 0 0 1 .36.77v2a1 1 0 0 1-2 0v-1.53l-2.58-2.12-1.48 4a1.003 1.003 0 1 1-1.88-.7L5.87 7l-1.12.32-.82 2a1 1 0 1 1-1.86-.74l1-2.5a1 1 0 0 1 .66-.59l3.36-1h.12c.11-.014.22-.014.33 0h.1a2.16 2.16 0 0 1 2 1.51 2.56 2.56 0 0 0 .84 1.394Z"/></svg>