<svg width="16" height="14" viewBox="0 0 16 14" fill="none" xmlns="http://www.w3.org/2000/svg"><path d="M1.614 11.296v-.524c0-.275.129-.533.33-.654a8.786 8.786 0 0 1 4.51-1.243c.025 0 .041 0 .065.009.081-.565.242-1.106.476-1.598a5.924 5.924 0 0 0-.54-.024c-1.953 0-3.776.54-5.333 1.468C.412 9.15 0 9.94 0 10.772v2.138h7.472a5.754 5.754 0 0 1-.783-1.614H1.614ZM6.455 6.455a3.227 3.227 0 1 0 0-6.455 3.227 3.227 0 1 0 0 6.455Zm0-4.841c.887 0 1.614.726 1.614 1.613 0 .888-.727 1.614-1.614 1.614A1.618 1.618 0 0 1 4.84 3.227c0-.887.726-1.613 1.614-1.613ZM15.129 9.682c0-.177-.025-.339-.049-.508l.92-.815-.807-1.396-1.17.396a2.943 2.943 0 0 0-.871-.509l-.242-1.202h-1.614l-.242 1.202a2.94 2.94 0 0 0-.871.509l-1.17-.396-.807 1.396.92.815c-.025.17-.049.33-.049.508s.024.34.049.509l-.92.814.807 1.396 1.17-.395c.258.218.548.387.871.508l.242 1.203h1.614l.242-1.203c.323-.12.613-.29.871-.508l1.17.395.807-1.396-.92-.814c.024-.17.049-.331.049-.509Zm-3.026 1.614a1.618 1.618 0 0 1-1.614-1.614c0-.887.726-1.613 1.614-1.613.887 0 1.614.726 1.614 1.613 0 .888-.727 1.614-1.614 1.614Z" fill="#1D212A" fill-opacity=".9"/></svg>