<svg width="17" height="17" viewBox="0 0 17 17" fill="none" xmlns="http://www.w3.org/2000/svg"><path fill-rule="evenodd" clip-rule="evenodd" d="M8.01 1 .529 5.75v1.842H15.49V5.75L8.01 1Zm3.75 8.912h1.875V8.56H11.76v1.352Zm-4.688 1.411h1.875V8.56H7.072v2.763Zm-4.687 1.924H4.26V8.56H2.385v4.687ZM.529 16.06h7.5v-1.875H.53v1.875ZM10.666 11.203l-1.494 1.866a.916.916 0 0 0-.201.58c0 .215.067.408.201.58l1.494 1.866a.977.977 0 0 0 .33.26c.125.06.261.09.407.09h3.592c.26 0 .48-.09.663-.273a.902.902 0 0 0 .273-.662v-3.722c0-.26-.091-.48-.273-.662a.902.902 0 0 0-.662-.273h-3.593a.94.94 0 0 0-.737.35Zm.333 3.03a.676.676 0 1 0 0-1.352.676.676 0 0 0 0 1.353Z" fill="#1D212A" fill-opacity=".9"/></svg>