<svg width="16" height="16" viewBox="0 0 16 16" fill="none" xmlns="http://www.w3.org/2000/svg"><path d="M14 1.2 12.8 0l-1.2 1.2L10.4 0 9.2 1.2 8 0 6.8 1.2 5.6 0 4.4 1.2 3.2 0v11.2H.8v2.4c0 1.328 1.072 2.4 2.4 2.4h9.6c1.328 0 2.4-1.072 2.4-2.4V0L14 1.2Zm-3.6 13.2H3.2c-.44 0-.8-.36-.8-.8v-.8h8v1.6Zm3.2-.8c0 .44-.36.8-.8.8-.44 0-.8-.36-.8-.8v-2.4H4.8V2.4h8.8v11.2Z" fill="#1D212A" fill-opacity=".9"/><path d="M10.4 4H5.6v1.6h4.8V4ZM12.8 4h-1.6v1.6h1.6V4ZM10.4 6.4H5.6V8h4.8V6.4ZM12.8 6.4h-1.6V8h1.6V6.4Z" fill="#1D212A" fill-opacity=".9"/></svg>