<svg width="16" height="16" viewBox="0 0 16 16" fill="none" xmlns="http://www.w3.org/2000/svg"><path d="M10.91 8.547 7.44 5.068a.911.911 0 0 1-.207-1.009.904.904 0 0 1 .198-.296L10.909.285a.974.974 0 0 1 .313-.207.933.933 0 0 1 .367-.078c.122 0 .238.026.349.078.11.052.208.121.294.207l3.475 3.483a.91.91 0 0 1 .27.652c0 .122-.022.24-.066.352a.87.87 0 0 1-.196.296l-3.478 3.479a1.073 1.073 0 0 1-.297.209.803.803 0 0 1-.351.08 1.01 1.01 0 0 1-.68-.29ZM0 6.135V1.221C0 .96.09.738.27.556.45.374.67.283.93.283h4.91c.261 0 .483.09.665.27.182.18.273.4.273.66v4.915c0 .261-.09.483-.27.665a.893.893 0 0 1-.66.273H.937a.911.911 0 0 1-.665-.27.893.893 0 0 1-.273-.66Zm8.934 8.934V10.16c0-.261.09-.483.27-.665.18-.182.4-.273.66-.273h4.915c.261 0 .483.09.665.27.182.18.273.4.273.66v4.91a.91.91 0 0 1-.27.665.893.893 0 0 1-.66.273H9.871a.911.911 0 0 1-.665-.27.893.893 0 0 1-.273-.66ZM0 15.07V10.16c0-.261.09-.483.27-.665.18-.182.4-.273.66-.273h4.91c.261 0 .483.09.665.27.182.18.273.4.273.66v4.91c0 .26-.09.482-.27.665a.893.893 0 0 1-.66.273H.937a.911.911 0 0 1-.665-.27.893.893 0 0 1-.273-.66Zm1.864-9.866h3.05V2.146h-3.05v3.057Zm9.715 1.374 2.139-2.161-2.139-2.167-2.161 2.167 2.161 2.161Zm-.782 7.56h3.057v-3.052h-3.056v3.051Zm-8.933 0h3.05v-3.052h-3.05v3.051Z" fill="#1D212A" fill-opacity=".9"/></svg>