<svg width="17" height="14" viewBox="0 0 17 14" fill="none" xmlns="http://www.w3.org/2000/svg"><path d="M15.686 4.217 14.7 5.7a6.411 6.411 0 0 1-.176 6.074H3.418a6.41 6.41 0 0 1 8.422-8.935l1.482-.985A8.013 8.013 0 0 0 2.04 12.575a1.603 1.603 0 0 0 1.378.801h11.098a1.603 1.603 0 0 0 1.394-.801 8.013 8.013 0 0 0-.216-8.366l-.008.008Z" fill="#1D212A" fill-opacity=".9"/><path d="M7.841 9.698a1.603 1.603 0 0 0 2.268 0l4.535-6.803-6.803 4.536a1.603 1.603 0 0 0 0 2.267Z" fill="#1D212A" fill-opacity=".9"/></svg>