<svg width="16" height="16" viewBox="0 0 16 16" fill="none" xmlns="http://www.w3.org/2000/svg"><rect width="16" height="16" rx="5.284" fill="#fff"/><rect width="16" height="16" rx="5.284" fill="url(#paint0_linear_11302_323)"/><g filter="url(#filter0_d_11302_323)"><path fill-rule="evenodd" clip-rule="evenodd" d="M3.107 4.113c-.251.492-.251 1.137-.251 2.427v2.993c0 1.29 0 1.934.25 2.427.221.433.574.786 1.007 1.006.492.251 1.137.251 2.427.251h2.993c1.29 0 1.935 0 2.427-.25.433-.221.786-.574 1.006-1.007.251-.493.251-1.137.251-2.427V6.54c0-1.29 0-1.935-.25-2.427a2.302 2.302 0 0 0-1.007-1.007c-.492-.25-1.137-.25-2.427-.25H6.54c-1.29 0-1.935 0-2.427.25-.433.221-.786.573-1.006 1.007Zm4.93 1.045a1.439 1.439 0 1 1 0 2.878 1.439 1.439 0 0 1 0-2.878Zm-2.879 5.395v-.347c0-1.24 1.918-1.594 2.878-1.594.961 0 2.879.354 2.879 1.594v.347c0 .2-.162.362-.362.362H5.52a.362.362 0 0 1-.362-.362Z" fill="#fff"/></g><defs><linearGradient id="paint0_linear_11302_323" x1="2.774" y1="14.564" x2="15.094" y2=".979" gradientUnits="userSpaceOnUse"><stop offset=".23" stop-color="#F74EA9"/><stop offset="1" stop-color="#FFB2A8"/></linearGradient><filter id="filter0_d_11302_323" x="2.04" y="2.203" width="11.994" height="11.994" filterUnits="userSpaceOnUse" color-interpolation-filters="sRGB"><feFlood flood-opacity="0" result="BackgroundImageFix"/><feColorMatrix in="SourceAlpha" values="0 0 0 0 0 0 0 0 0 0 0 0 0 0 0 0 0 0 127 0" result="hardAlpha"/><feOffset dy=".163"/><feGaussianBlur stdDeviation=".408"/><feComposite in2="hardAlpha" operator="out"/><feColorMatrix values="0 0 0 0 0 0 0 0 0 0 0 0 0 0 0 0 0 0 0.1 0"/><feBlend in2="BackgroundImageFix" result="effect1_dropShadow_11302_323"/><feBlend in="SourceGraphic" in2="effect1_dropShadow_11302_323" result="shape"/></filter></defs></svg>