<svg width="17" height="16" viewBox="0 0 17 16" fill="none" xmlns="http://www.w3.org/2000/svg"><path d="M8.9 15.2v-1.32a.827.827 0 0 1 .24-.58l4.18-4.16c.12-.12.253-.207.4-.26a1.28 1.28 0 0 1 .44-.08 1.203 1.203 0 0 1 .86.36l.74.74c.107.12.19.253.25.4.06.147.09.293.09.44 0 .147-.027.297-.08.45-.053.153-.14.29-.26.41l-4.16 4.16a.8.8 0 0 1-.58.24H9.7a.774.774 0 0 1-.57-.23.774.774 0 0 1-.23-.57Zm1.2-.4h.76l2.42-2.44-.36-.38-.38-.36-2.44 2.42v.76ZM2.5 16a1.54 1.54 0 0 1-1.13-.47A1.54 1.54 0 0 1 .9 14.4V1.6c0-.44.157-.817.47-1.13A1.54 1.54 0 0 1 2.5 0h5.74a1.58 1.58 0 0 1 1.12.46l3.88 3.88a1.58 1.58 0 0 1 .46 1.12V7.2h-1.6V5.6H8.9a.774.774 0 0 1-.57-.23.774.774 0 0 1-.23-.57V1.6H2.5v12.8h4.8V16H2.5Zm10.42-4.02-.38-.36.74.74-.36-.38Z" fill="#1D212A" fill-opacity=".9"/></svg>