<svg width="14" height="16" viewBox="0 0 14 16" fill="none" xmlns="http://www.w3.org/2000/svg"><path d="M12 2.667H1.333C.6 2.667 0 3.267 0 4v8c0 .733.6 1.333 1.333 1.333H12c.733 0 1.333-.6 1.333-1.333V4c0-.733-.6-1.333-1.333-1.333ZM12 12H1.333V4H12v8ZM1.333 0H12v1.333H1.333V0Zm0 14.667H12V16H1.333v-1.333ZM6.667 8a1.667 1.667 0 1 0-.002-3.335A1.667 1.667 0 0 0 6.667 8Zm0-2.333c.366 0 .666.3.666.666 0 .367-.3.667-.666.667A.669.669 0 0 1 6 6.333c0-.366.3-.666.667-.666ZM10 10.66c0-1.393-2.207-1.993-3.333-1.993-1.127 0-3.334.6-3.334 1.993v.673H10v-.673Zm-5.46-.327c.407-.346 1.353-.666 2.127-.666.78 0 1.726.32 2.133.666H4.54Z" fill="#1D212A" fill-opacity=".9"/></svg>