<svg width="16" height="13" viewBox="0 0 16 13" fill="none" xmlns="http://www.w3.org/2000/svg"><path d="M12 8.8c-.56 0-1.033-.193-1.42-.58A1.931 1.931 0 0 1 10 6.8c0-.56.193-1.033.58-1.42.387-.387.86-.58 1.42-.58.56 0 1.033.193 1.42.58.387.387.58.86.58 1.42 0 .56-.193 1.033-.58 1.42-.387.387-.86.58-1.42.58Zm-3.2 4a.774.774 0 0 1-.57-.23A.774.774 0 0 1 8 12v-.32c0-.32.083-.617.25-.89.167-.273.403-.47.71-.59.48-.2.977-.35 1.49-.45a8.088 8.088 0 0 1 3.1 0c.513.1 1.01.25 1.49.45.307.12.543.317.71.59.167.273.25.57.25.89V12a.774.774 0 0 1-.23.57.774.774 0 0 1-.57.23H8.8ZM6.4 6.4c-.88 0-1.633-.313-2.26-.94A3.081 3.081 0 0 1 3.2 3.2c0-.88.313-1.633.94-2.26A3.081 3.081 0 0 1 6.4 0c.88 0 1.633.313 2.26.94.627.627.94 1.38.94 2.26 0 .88-.313 1.633-.94 2.26-.627.627-1.38.94-2.26.94ZM0 10.56c0-.453.113-.87.34-1.25.227-.38.54-.67.94-.87.8-.4 1.63-.707 2.49-.92.86-.213 1.737-.32 2.63-.32.467 0 .933.04 1.4.12.467.08.933.173 1.4.28L7.84 8.96c-.333.333-.657.673-.97 1.02-.313.347-.47.753-.47 1.22v.78c0 .16.03.31.09.45s.157.263.29.37H1.6a1.54 1.54 0 0 1-1.13-.47A1.54 1.54 0 0 1 0 11.2v-.64Z" fill="#1D212A" fill-opacity=".9"/></svg>