<svg width="15" height="16" viewBox="0 0 15 16" fill="none" xmlns="http://www.w3.org/2000/svg"><path d="M3.2.4H9.034L14 5.366V12.8a2.8 2.8 0 0 1-2.8 2.8h-8a2.8 2.8 0 0 1-2.8-2.8V3.2A2.8 2.8 0 0 1 3.2.4Z" fill="#E8EDF3" stroke="#4F5B69" stroke-width=".8"/><path d="M14.4 5.4 9 0v2.793C9 4.233 10.128 5.4 11.52 5.4h2.88ZM4 13.25v-1.476L8.583 7.2a.78.78 0 0 1 .23-.148.718.718 0 0 1 .534 0 .61.61 0 0 1 .226.156l.477.486c.07.064.12.14.152.226a.753.753 0 0 1 0 .525.652.652 0 0 1-.152.23L5.476 13.25H4Zm5.07-4.583.486-.486-.487-.487-.486.487.486.486Z" fill="#4F5B69"/></svg>