<svg width="15" height="16" viewBox="0 0 15 16" fill="none" xmlns="http://www.w3.org/2000/svg"><path d="M3.2.4H9.034L14 5.366V12.8a2.8 2.8 0 0 1-2.8 2.8h-8a2.8 2.8 0 0 1-2.8-2.8V3.2A2.8 2.8 0 0 1 3.2.4Z" fill="#E8EDF3" stroke="#4F5B69" stroke-width=".8"/><path d="M14.4 5.4 9 0v2.793C9 4.233 10.128 5.4 11.52 5.4h2.88ZM6.556 8.222v2.222l1.888 1.12.343-.568-1.565-.93V8.223h-.666Zm4.444.89V6L9.827 7.173A3.972 3.972 0 0 0 7 6a4 4 0 1 0 4 4h-.889A3.114 3.114 0 0 1 7 13.111 3.114 3.114 0 0 1 3.889 10 3.115 3.115 0 0 1 7 6.889c.858 0 1.636.351 2.2.911L7.889 9.111H11Z" fill="#4F5B69"/></svg>