<svg width="16" height="13" viewBox="0 0 16 13" fill="none" xmlns="http://www.w3.org/2000/svg"><path fill-rule="evenodd" clip-rule="evenodd" d="M8 1.625h6.4c.88 0 1.6.731 1.6 1.625v8.125c0 .894-.72 1.625-1.6 1.625H1.6C.72 13 0 12.269 0 11.375l.008-9.75C.008.731.72 0 1.6 0h4.8L8 1.625Z" fill="url(#paint0_linear_11302_1583)"/><path fill-rule="evenodd" clip-rule="evenodd" d="M8 1.625h6.4c.88 0 1.6.731 1.6 1.625v8.125c0 .894-.72 1.625-1.6 1.625H1.6C.72 13 0 12.269 0 11.375l.008-9.75C.008.731.72 0 1.6 0h4.8L8 1.625Z" fill="#000" style="mix-blend-mode:hue"/><defs><linearGradient id="paint0_linear_11302_1583" x1="8" y1="0" x2="8" y2="15.75" gradientUnits="userSpaceOnUse"><stop offset=".044" stop-color="#1D7AFF"/><stop offset=".13" stop-color="#7CB2FF"/><stop offset=".617" stop-color="#76AFFF"/><stop offset="1" stop-color="#4290FF"/></linearGradient></defs></svg>