<svg width="16" height="16" viewBox="0 0 16 16" fill="none" xmlns="http://www.w3.org/2000/svg"><path d="M4.058 15.25a1.995 1.995 0 0 1-1.468-.607 2.006 2.006 0 0 1-.604-1.47c0-.577.202-1.066.605-1.469a2 2 0 0 1 1.467-.603c.153 0 .309.019.47.056.16.037.309.086.446.148l.826-1.05a3.225 3.225 0 0 1-.679-1.137 2.506 2.506 0 0 1-.095-1.309l-1.149-.37c-.168.317-.416.57-.745.759-.329.188-.68.283-1.056.283a2.004 2.004 0 0 1-1.47-.605A1.996 1.996 0 0 1 0 6.41c0-.588.2-1.08.597-1.48.399-.397.892-.596 1.48-.596.587 0 1.079.199 1.476.597.397.398.595.891.595 1.479v.167l1.141.371c.217-.448.526-.824.927-1.127.4-.303.845-.494 1.335-.572v-1.14a1.967 1.967 0 0 1-1.156-.698 2.013 2.013 0 0 1-.471-1.334c0-.577.202-1.067.606-1.47A2.002 2.002 0 0 1 8 0c.577 0 1.067.202 1.47.605.404.404.606.894.606 1.471 0 .514-.156.96-.47 1.334a1.96 1.96 0 0 1-1.157.698v1.14c.5.07.948.257 1.343.56.396.303.702.684.92 1.143l1.14-.375V6.41c0-.577.201-1.067.604-1.47a1.996 1.996 0 0 1 1.468-.606c.577 0 1.067.201 1.47.605.404.404.606.894.606 1.47 0 .578-.202 1.067-.605 1.47a2.006 2.006 0 0 1-1.471.603c-.375 0-.727-.093-1.056-.277a1.839 1.839 0 0 1-.749-.77l-1.149.375c.08.451.048.888-.095 1.31-.143.423-.368.802-.675 1.136l.83 1.058c.139-.065.287-.117.446-.155a1.99 1.99 0 0 1 .466-.057c.575 0 1.064.201 1.467.604.403.403.605.893.605 1.468 0 .577-.202 1.067-.605 1.47a1.996 1.996 0 0 1-1.467.606 2.002 2.002 0 0 1-1.47-.605 2.002 2.002 0 0 1-.606-1.47c0-.24.042-.47.126-.692a2.46 2.46 0 0 1 .338-.614l-.823-1.034A2.897 2.897 0 0 1 8 11.246a2.897 2.897 0 0 1-1.507-.412l-.823 1.034c.142.187.254.392.338.613.084.222.126.453.126.692 0 .577-.201 1.067-.605 1.47a2.002 2.002 0 0 1-1.47.606ZM2.076 7.19a.757.757 0 0 0 .557-.224.757.757 0 0 0 .225-.557.757.757 0 0 0-.225-.558.757.757 0 0 0-.557-.225.757.757 0 0 0-.557.225.757.757 0 0 0-.225.558c0 .221.075.407.225.557.15.15.335.225.557.225Zm1.982 6.765a.757.757 0 0 0 .558-.225.757.757 0 0 0 .225-.557.757.757 0 0 0-.225-.557.757.757 0 0 0-.558-.225.757.757 0 0 0-.557.225.757.757 0 0 0-.225.557c0 .222.075.407.225.557.15.15.336.225.557.225ZM8 2.858a.757.757 0 0 0 .557-.225.757.757 0 0 0 .225-.557.757.757 0 0 0-.225-.557A.757.757 0 0 0 8 1.294a.757.757 0 0 0-.557.225.757.757 0 0 0-.225.557c0 .222.075.407.225.557.15.15.335.225.557.225Zm0 7.02c.461 0 .852-.16 1.171-.48.32-.318.48-.709.48-1.17 0-.463-.16-.853-.479-1.173-.319-.32-.71-.479-1.171-.479-.462 0-.853.16-1.172.479-.32.319-.48.71-.48 1.171 0 .462.16.853.479 1.172.319.32.71.48 1.171.48Zm3.942 4.077a.757.757 0 0 0 .557-.225.757.757 0 0 0 .225-.557.757.757 0 0 0-.225-.557.757.757 0 0 0-.557-.225.757.757 0 0 0-.558.225.757.757 0 0 0-.225.557c0 .222.075.407.225.557.15.15.336.225.558.225Zm1.982-6.764a.757.757 0 0 0 .557-.225.757.757 0 0 0 .225-.557.757.757 0 0 0-.225-.558.757.757 0 0 0-.557-.225.757.757 0 0 0-.557.225.757.757 0 0 0-.225.558c0 .221.075.407.225.557.15.15.335.225.557.225Z" fill="#1D212A" fill-opacity=".9"/></svg>