<svg width="13" height="16" viewBox="0 0 13 16" fill="none" xmlns="http://www.w3.org/2000/svg"><path d="M1.524 16c-.42 0-.778-.15-1.076-.448A1.467 1.467 0 0 1 0 14.476V6.857c0-.419.15-.778.448-1.076a1.467 1.467 0 0 1 1.076-.448h.762V3.81c0-1.054.371-1.953 1.114-2.696C4.143.371 5.041 0 6.095 0 7.15 0 8.048.371 8.79 1.114c.743.743 1.115 1.642 1.115 2.696v1.523h.762c.419 0 .777.15 1.076.448.298.298.447.657.447 1.076v7.62c0 .418-.149.777-.447 1.075a1.468 1.468 0 0 1-1.076.448H1.524Zm4.571-3.81c.42 0 .778-.149 1.076-.447.299-.299.448-.657.448-1.076 0-.42-.15-.778-.448-1.077a1.467 1.467 0 0 0-1.076-.447c-.419 0-.778.15-1.076.447a1.467 1.467 0 0 0-.448 1.077c0 .419.15.777.448 1.076.298.298.657.447 1.076.447ZM3.81 5.333h4.57V3.81c0-.635-.221-1.175-.666-1.62a2.204 2.204 0 0 0-1.619-.666c-.635 0-1.174.222-1.619.666a2.204 2.204 0 0 0-.666 1.62v1.523Z" fill="#4F5B69"/></svg>