<svg width="17" height="16" viewBox="0 0 17 16" fill="none" xmlns="http://www.w3.org/2000/svg"><path fill-rule="evenodd" clip-rule="evenodd" d="M8.99 15.667c.222.222.492.333.81.333h5.333c.317 0 .587-.111.81-.333.222-.223.333-.492.333-.81V9.524c0-.318-.111-.587-.333-.81a1.102 1.102 0 0 0-.81-.333H9.8c-.318 0-.588.111-.81.333a1.102 1.102 0 0 0-.333.81v5.333c0 .318.11.587.333.81ZM6.047 5.733a2.57 2.57 0 0 1 1.886-.78c.61 0 1.146.177 1.61.533.463.355.777.812.942 1.371H8.771a1.193 1.193 0 0 0-.362-.276 1.05 1.05 0 0 0-.476-.105c-.318 0-.587.111-.81.334a1.102 1.102 0 0 0-.333.809c0 .14.032.289.095.448.064.158.146.289.248.39v1.714A2.652 2.652 0 0 1 5.78 9.22c-.343-.457-.515-.99-.515-1.6 0-.736.26-1.365.781-1.886Zm.42 9.505h.666v-3.505a3.488 3.488 0 0 1-1.238-.419 4.484 4.484 0 0 1-1.029-.8l-1.885.8-.743-1.295 1.638-1.238a3.1 3.1 0 0 1-.134-.571 4.617 4.617 0 0 1 0-1.2 3.1 3.1 0 0 1 .134-.572L2.238 5.22l.743-1.295 1.885.78c.28-.279.588-.517.924-.714a4.27 4.27 0 0 1 1.095-.447l.267-2.02h1.505l.247 2.02c.394.101.76.25 1.096.447.336.197.644.442.923.734l1.886-.8.743 1.295-1.638 1.238c.025.064.044.13.057.2.013.07.025.137.038.2h1.924l1.086-.838a.727.727 0 0 0 .19-.971L13.8 2.57a.75.75 0 0 0-.952-.304l-1.657.685a6.292 6.292 0 0 0-.428-.285 2.89 2.89 0 0 0-.467-.229L10.066.667A.76.76 0 0 0 9.82.19.712.712 0 0 0 9.323 0H6.466a.712.712 0 0 0-.495.19.76.76 0 0 0-.248.477l-.228 1.771c-.153.064-.305.14-.457.229a5.191 5.191 0 0 0-.438.285l-1.658-.685a.75.75 0 0 0-.952.305L.58 5.028a.716.716 0 0 0-.095.533c.038.19.134.343.286.457L2.2 7.105c-.013.089-.02.174-.02.257v.514c0 .083.007.168.02.257L.77 9.22a.731.731 0 0 0-.286.457.716.716 0 0 0 .096.534l1.41 2.457a.75.75 0 0 0 .951.304l1.658-.685c.14.101.282.197.428.285.146.09.302.165.467.229l.228 1.771a.76.76 0 0 0 .248.477c.14.127.305.19.495.19Zm6.815-4.19 2.06 2.742H9.247l1.45-1.932.988 1.323 1.597-2.133Z" fill="#1D212A" fill-opacity=".9"/></svg>