<svg width="16" height="16" viewBox="0 0 16 16" fill="none" xmlns="http://www.w3.org/2000/svg"><path fill-rule="evenodd" clip-rule="evenodd" d="M8 0C3.584 0 0 3.584 0 8s3.584 8 8 8 8-3.584 8-8-3.584-8-8-8Zm5.088 11.864C11.944 10.472 9.168 10 8 10c-1.168 0-3.944.472-5.088 1.864A6.36 6.36 0 0 1 1.6 8c0-3.528 2.872-6.4 6.4-6.4 3.528 0 6.4 2.872 6.4 6.4a6.36 6.36 0 0 1-1.312 3.864ZM5.2 6c0-1.552 1.248-2.8 2.8-2.8 1.552 0 2.8 1.248 2.8 2.8 0 1.552-1.248 2.8-2.8 2.8A2.793 2.793 0 0 1 5.2 6Z" fill="#1D212A" fill-opacity=".9"/></svg>