<svg width="16" height="16" viewBox="0 0 16 16" fill="none" xmlns="http://www.w3.org/2000/svg"><path fill-rule="evenodd" clip-rule="evenodd" d="M14 0a2 2 0 0 1 2 2v11a2 2 0 0 1-2 2h-1v1h-3v-1H6v1H3v-1H2a2 2 0 0 1-2-2V2a2 2 0 0 1 2-2h12Zm0 1H3a1 1 0 0 0-.993.883L2 2v1H1v3h1v3H1v3h1v1a1 1 0 0 0 .883.993L3 14h11a1 1 0 0 0 .993-.883L15 13V2a1 1 0 0 0-.883-.993L14 1Zm0 1v11H3v-2H2v-1h1V5H2V4h1V2h11ZM8.5 4a3.5 3.5 0 1 0 0 7 3.5 3.5 0 0 0 0-7Zm0 1a2.5 2.5 0 1 1 0 5 2.5 2.5 0 0 1 0-5Zm0 2a.5.5 0 1 0 0 1 .5.5 0 0 0 0-1Z" fill="#1D212A" fill-opacity=".9"/></svg>