<svg width="16" height="16" viewBox="0 0 16 16" fill="none" xmlns="http://www.w3.org/2000/svg"><path fill-rule="evenodd" clip-rule="evenodd" d="M10.394 15.047c-.078.531-.562.953-1.14.953H6.365a1.133 1.133 0 0 1-1.132-.992l-.211-1.475a7.062 7.062 0 0 1-.617-.36L3 13.736a1.152 1.152 0 0 1-1.413-.508L.157 10.753c-.273-.516-.156-1.125.281-1.468l1.195-.93c-.008-.117-.016-.234-.016-.359 0-.117.008-.242.016-.36L.446 6.709A1.123 1.123 0 0 1 .157 5.24l1.445-2.491a1.124 1.124 0 0 1 1.397-.492l1.414.57c.203-.133.406-.25.609-.36l.21-1.49C5.304.428 5.788 0 6.358 0h2.89c.577 0 1.061.422 1.132.992l.21 1.476c.211.109.414.226.617.359l1.406-.562c.554-.204 1.156.023 1.421.507l1.437 2.483c.281.516.156 1.125-.281 1.468l-1.187.93a5.3 5.3 0 0 1 .015.359 5.3 5.3 0 0 1-.015.359l1.187.93c.437.35.562.96.289 1.452l-1.453 2.514a1.13 1.13 0 0 1-1.405.492l-1.406-.562a8.25 8.25 0 0 1-.609.359l-.21 1.491Zm-3.662-.609h2.155l.29-1.991.413-.172a4.89 4.89 0 0 0 1.046-.609l.352-.265 1.858.75 1.078-1.875-1.585-1.234.054-.437.003-.02c.022-.196.044-.385.044-.589 0-.21-.023-.414-.047-.609l-.054-.437 1.585-1.234-1.086-1.874-1.866.75-.351-.274a4.657 4.657 0 0 0-1.039-.601l-.406-.172-.289-1.991H6.732l-.289 1.991-.414.164a4.94 4.94 0 0 0-1.046.617l-.351.258-1.859-.742-1.085 1.866 1.585 1.234-.055.437a5.465 5.465 0 0 0-.047.617c0 .203.016.414.047.61l.055.436-1.585 1.234 1.077 1.874 1.866-.75.352.274c.336.258.671.453 1.038.601l.414.172.297 1.991Zm3.81-6.442a2.733 2.733 0 1 1-5.465 0 2.733 2.733 0 0 1 5.466 0Z" fill="#1D212A" fill-opacity=".9"/></svg>