<svg width="17" height="17" viewBox="0 0 17 17" xmlns="http://www.w3.org/2000/svg"><path d="M7.56 4.28 2.528 9.314a.941.941 0 0 1-.719.295 1.034 1.034 0 0 1-.719-.32 1.084 1.084 0 0 1-.295-.72.941.941 0 0 1 .295-.719l6.78-6.78a.901.901 0 0 1 .334-.218c.12-.043.248-.064.385-.064s.266.021.385.064c.12.043.232.115.334.218l6.78 6.78a.958.958 0 0 1 .283.706c0 .283-.094.527-.283.732a1 1 0 0 1-.732.309 1 1 0 0 1-.732-.309L9.616 4.28v11.48a.994.994 0 0 1-.295.732.994.994 0 0 1-.732.296.994.994 0 0 1-.732-.296.994.994 0 0 1-.295-.732V4.28Z"/></svg>