<svg width="14" height="16" viewBox="0 0 14 16" xmlns="http://www.w3.org/2000/svg"><path d="M1.4 13.6a.774.774 0 0 1-.57-.23.774.774 0 0 1-.23-.57c0-.227.077-.417.23-.57A.774.774 0 0 1 1.4 12h.8V6.4c0-1.107.333-2.09 1-2.95a4.614 4.614 0 0 1 2.6-1.69V1.2c0-.333.117-.617.35-.85C6.383.117 6.667 0 7 0c.333 0 .617.117.85.35.233.233.35.517.35.85v.56a4.614 4.614 0 0 1 2.6 1.69c.667.86 1 1.843 1 2.95V12h.8c.227 0 .417.077.57.23.153.153.23.343.23.57a.774.774 0 0 1-.23.57.774.774 0 0 1-.57.23H1.4ZM7 16a1.54 1.54 0 0 1-1.13-.47 1.54 1.54 0 0 1-.47-1.13h3.2c0 .44-.157.817-.47 1.13A1.54 1.54 0 0 1 7 16Zm-3.2-4h6.4V6.4a3.08 3.08 0 0 0-.94-2.26A3.081 3.081 0 0 0 7 3.2a3.08 3.08 0 0 0-2.26.94A3.081 3.081 0 0 0 3.8 6.4V12Z"/></svg>