<svg width="16" height="19" viewBox="0 0 16 19" xmlns="http://www.w3.org/2000/svg"><path d="M8 0C3.58 0 0 .5 0 4v10c0 .88.39 1.67 1 2.22V18c0 .55.45 1 1 1h1c.55 0 1-.45 1-1v-1h8v1c0 .55.45 1 1 1h1c.55 0 1-.45 1-1v-1.78c.61-.55 1-1.34 1-2.22V4c0-3.5-3.58-4-8-4Zm5.66 2.99H2.34C2.89 2.46 4.31 2 8 2c3.69 0 5.11.46 5.66.99Zm.34 2V8H2V4.99h12Zm-.34 9.74-.29.27H2.63l-.29-.27A.968.968 0 0 1 2 14v-4h12v4c0 .37-.21.62-.34.73Z"/><path d="M4.5 14a1.5 1.5 0 1 0 0-3 1.5 1.5 0 0 0 0 3Zm7 0a1.5 1.5 0 1 0 0-3 1.5 1.5 0 0 0 0 3Z"/></svg>