<svg width="16" height="16" viewBox="0 0 16 16" xmlns="http://www.w3.org/2000/svg"><path d="M2.4 14.4h11.2v-1.6H2.4v1.6Zm2.64-3.2h5.92L10.5 8h-5l-.46 3.2ZM.8 16v-3.2c0-.44.157-.817.47-1.13a1.54 1.54 0 0 1 1.13-.47h1.04L3.88 8H1.6V6.4h12.8V8h-2.28l.44 3.2h1.04c.44 0 .817.157 1.13.47.313.313.47.69.47 1.13V16H.8Zm3.02-9.6L2.4 0c.44.333.893.647 1.36.94.467.293.98.44 1.54.44.533 0 1.023-.137 1.47-.41A6.624 6.624 0 0 0 8 0c.373.373.783.697 1.23.97.447.273.937.41 1.47.41a2.84 2.84 0 0 0 1.54-.44c.467-.293.92-.607 1.36-.94l-1.42 6.4h-1.64l.78-3.46-.15.02c-.1.013-.257.02-.47.02-.48 0-.95-.073-1.41-.22A5.115 5.115 0 0 1 8 2.14a4.862 4.862 0 0 1-1.25.62c-.447.147-.903.22-1.37.22a5.02 5.02 0 0 1-.53-.02l-.17-.02.78 3.46H3.82Z"/></svg>