<svg width="16" height="17" viewBox="0 0 16 17" xmlns="http://www.w3.org/2000/svg"><path d="M14 5.167a1.997 1.997 0 0 0-1.993 2.14l-1.354.453a2.979 2.979 0 0 0-2.146-1.547v-1.44A2.012 2.012 0 0 0 10 2.833c0-1.106-.893-2-2-2s-2 .894-2 2c0 .934.64 1.714 1.5 1.94v1.44c-.933.154-1.72.74-2.147 1.547l-1.36-.453C4 7.26 4 7.213 4 7.167c0-1.107-.893-2-2-2s-2 .893-2 2c0 1.106.893 2 2 2 .707 0 1.32-.367 1.68-.914l1.353.454a3.01 3.01 0 0 0 .727 2.46l-.94 1.18A1.997 1.997 0 0 0 2 14.167c0 1.106.893 2 2 2s2-.894 2-2c0-.454-.147-.867-.4-1.2l.94-1.18a3 3 0 0 0 2.913 0l.94 1.18a2.006 2.006 0 0 0-.393 1.2c0 1.106.893 2 2 2s2-.894 2-2c0-1.107-.893-2-2-2-.293 0-.567.06-.82.173l-.94-1.18c.62-.693.86-1.6.727-2.46l1.353-.453A2 2 0 0 0 14 9.16a1.997 1.997 0 1 0 0-3.993ZM2 7.833a.669.669 0 0 1-.667-.666c0-.367.3-.667.667-.667.367 0 .667.3.667.667 0 .366-.3.666-.667.666Zm2 7a.669.669 0 0 1-.667-.666c0-.367.3-.667.667-.667.367 0 .667.3.667.667 0 .366-.3.666-.667.666Zm3.333-12c0-.366.3-.666.667-.666.367 0 .667.3.667.666 0 .367-.3.667-.667.667a.669.669 0 0 1-.667-.667Zm.667 8A1.667 1.667 0 1 1 8.001 7.5 1.667 1.667 0 0 1 8 10.833Zm4 2.667c.367 0 .667.3.667.667 0 .366-.3.666-.667.666a.669.669 0 0 1-.667-.666c0-.367.3-.667.667-.667Zm2-5.667a.669.669 0 0 1-.667-.666c0-.367.3-.667.667-.667.367 0 .667.3.667.667 0 .366-.3.666-.667.666Z"/></svg>