<svg width="16" height="16" viewBox="0 0 16 16" xmlns="http://www.w3.org/2000/svg"><path d="M13.6 1.6C13.6.72 12.88 0 12 0H9.6v1.6H12v2.12L9.216 7.2H6.4v-4H3.2A3.2 3.2 0 0 0 0 6.4v2.4h1.6c0 1.328 1.072 2.4 2.4 2.4 1.328 0 2.4-1.072 2.4-2.4h3.584L13.6 4.28V1.6Zm-12 5.6v-.8c0-.88.72-1.6 1.6-1.6h1.6v2.4H1.6ZM4 9.6c-.44 0-.8-.36-.8-.8h1.6c0 .44-.36.8-.8.8Z"/><path d="M6.4.8h-4v1.6h4V.8Zm7.2 5.6a2.397 2.397 0 0 0-2.4 2.4c0 1.328 1.072 2.4 2.4 2.4 1.328 0 2.4-1.072 2.4-2.4 0-1.328-1.072-2.4-2.4-2.4Zm0 3.2c-.44 0-.8-.36-.8-.8 0-.44.36-.8.8-.8.44 0 .8.36.8.8 0 .44-.36.8-.8.8Zm-9.6 4h3.2V12l4.8 2.4H8.8V16L4 13.6Z"/></svg>