<svg width="16" height="16" viewBox="0 0 16 16" xmlns="http://www.w3.org/2000/svg"><path d="M8 12a.774.774 0 0 0 .57-.23.774.774 0 0 0 .23-.57V8a.774.774 0 0 0-.23-.57A.774.774 0 0 0 8 7.2a.774.774 0 0 0-.57.23.774.774 0 0 0-.23.57v3.2c0 .227.077.417.23.57.153.153.343.23.57.23Zm0-6.4a.774.774 0 0 0 .57-.23.774.774 0 0 0 .23-.57.774.774 0 0 0-.23-.57A.774.774 0 0 0 8 4a.774.774 0 0 0-.57.23.774.774 0 0 0-.23.57c0 .227.077.417.23.57.153.153.343.23.57.23ZM8 16a7.79 7.79 0 0 1-3.12-.63 8.079 8.079 0 0 1-2.54-1.71 8.08 8.08 0 0 1-1.71-2.54A7.79 7.79 0 0 1 0 8c0-1.107.21-2.147.63-3.12.42-.973.99-1.82 1.71-2.54A8.079 8.079 0 0 1 4.88.63 7.79 7.79 0 0 1 8 0a7.79 7.79 0 0 1 3.12.63c.973.42 1.82.99 2.54 1.71s1.29 1.567 1.71 2.54c.42.973.63 2.013.63 3.12a7.79 7.79 0 0 1-.63 3.12 8.08 8.08 0 0 1-1.71 2.54 8.08 8.08 0 0 1-2.54 1.71A7.79 7.79 0 0 1 8 16Z"/></svg>