<svg width="16" height="16" viewBox="0 0 16 16" xmlns="http://www.w3.org/2000/svg"><path d="M13.6 1.6h-3.344A2.408 2.408 0 0 0 8 0C6.96 0 6.08.672 5.744 1.6H2.4c-.88 0-1.6.72-1.6 1.6v11.2c0 .88.72 1.6 1.6 1.6h11.2c.88 0 1.6-.72 1.6-1.6V3.2c0-.88-.72-1.6-1.6-1.6ZM8 1.4c.328 0 .6.272.6.6 0 .328-.272.6-.6.6a.604.604 0 0 1-.6-.6c0-.328.272-.6.6-.6Zm5.6 13H2.4V3.2h11.2v11.2Z"/><path d="M10.464 8.024 8.768 6.328 4 11.088V12.8h1.68l4.784-4.776Zm1.416-1.408a.396.396 0 0 0 0-.568L10.752 4.92a.396.396 0 0 0-.568 0l-.848.848 1.696 1.696.848-.848Z"/></svg>