<svg width="16" height="16" viewBox="0 0 16 16" xmlns="http://www.w3.org/2000/svg"><path d="M8 16c-4.408 0-8-3.592-8-8 0-4.408 3.592-8 8-8 4.408 0 8 3.232 8 7.2 0 2.648-2.152 4.8-4.8 4.8H9.784c-.224 0-.4.176-.4.4 0 .096.04.184.104.264.328.376.512.848.512 1.336a2 2 0 0 1-2 2ZM8 1.6A6.408 6.408 0 0 0 1.6 8c0 3.528 2.872 6.4 6.4 6.4.224 0 .4-.176.4-.4a.433.433 0 0 0-.112-.28 1.986 1.986 0 0 1-.504-1.32 2 2 0 0 1 2-2H11.2a3.2 3.2 0 0 0 3.2-3.2c0-3.088-2.872-5.6-6.4-5.6Z"/><path d="M3.6 8.8a1.2 1.2 0 1 0 0-2.4 1.2 1.2 0 0 0 0 2.4ZM6 5.6a1.2 1.2 0 1 0 0-2.4 1.2 1.2 0 0 0 0 2.4Zm4 0a1.2 1.2 0 1 0 0-2.4 1.2 1.2 0 0 0 0 2.4Zm2.4 3.2a1.2 1.2 0 1 0 0-2.4 1.2 1.2 0 0 0 0 2.4Z"/></svg>