<svg width="16" height="10" viewBox="0 0 16 10" xmlns="http://www.w3.org/2000/svg"><path d="M.727 7.909h14.546v1.455H.727V7.909Zm.837-2.946.618-1.076.618 1.076.945-.545-.618-1.076h1.237V2.25H3.127l.618-1.07L2.8.637l-.618 1.07-.618-1.07-.946.546.618 1.069H0v1.09h1.236L.618 4.419l.946.545Zm4.872-.545.946.545L8 3.887l.618 1.076.946-.545-.619-1.076h1.237V2.25H8.945l.619-1.07-.946-.545L8 1.706 7.382.635l-.946.546.619 1.069H5.818v1.09h1.237l-.619 1.077ZM16 2.251h-1.236l.618-1.07-.946-.545-.618 1.07L13.2.635l-.945.546.618 1.069h-1.237v1.09h1.237l-.618 1.077.945.545.618-1.076.618 1.076.946-.545-.618-1.076H16V2.25Z"/></svg>