<svg width="16" height="16" viewBox="0 0 16 16" xmlns="http://www.w3.org/2000/svg"><path d="M7.135 8.865h-3.44a.837.837 0 0 1-.614-.25.829.829 0 0 1-.25-.61c0-.242.083-.447.25-.616a.83.83 0 0 1 .614-.254h3.44v-3.44c0-.242.084-.447.25-.614a.829.829 0 0 1 .61-.25c.242 0 .447.083.616.25a.83.83 0 0 1 .254.614v3.44h3.44c.242 0 .447.083.614.25.167.166.25.37.25.61a.843.843 0 0 1-.25.616.83.83 0 0 1-.614.254h-3.44v3.44a.837.837 0 0 1-.25.614.829.829 0 0 1-.61.25.843.843 0 0 1-.616-.25.83.83 0 0 1-.254-.614v-3.44Z"/></svg>