<svg width="16" height="16" viewBox="0 0 16 16" xmlns="http://www.w3.org/2000/svg"><path d="m6.737 10.602.946-.946c-1.82-1.62-3.012-2.712-3.012-3.752 0-.7.533-1.232 1.233-1.232.74 0 1.026.433 1.786 1.332h.62c.746-.873 1.019-1.332 1.785-1.332.58 0 1.033.36 1.18.88.233-.027.453-.04.666-.04.24 0 .466.02.686.053a2.517 2.517 0 0 0-2.525-2.226c-.08 0-.153.02-.233.026a2 2 0 0 0 .133-.693 1.997 1.997 0 0 0-2-1.999 1.996 1.996 0 0 0-1.998 2c0 .246.053.473.133.692-.08-.006-.153-.026-.233-.026a2.537 2.537 0 0 0-2.566 2.565c0 1.613 1.36 2.872 3.399 4.698Z"/><path d="M15 10.829a2.096 2.096 0 0 0-.667-.233c.047-.067.1-.12.14-.187a2.539 2.539 0 0 0-.94-3.505c-1.392-.806-3.171-.26-5.763.6l.346 1.292c2.312-.76 3.858-1.252 4.758-.733.606.354.8 1.073.453 1.686-.373.64-.886.667-2.046.88l-.313.54c.387 1.08.646 1.552.26 2.212-.353.606-1.073.8-1.686.453-.04-.02-.073-.06-.113-.086a5.33 5.33 0 0 1-.687 1.152c.047.027.087.06.134.094a2.539 2.539 0 0 0 3.505-.94c.04-.067.06-.14.093-.213.147.18.32.34.533.46a1.998 1.998 0 0 0 2.732-.733 2.01 2.01 0 0 0-.74-2.74Z"/><path d="M8.216 9.343c-.493 2.385-.846 3.965-1.746 4.485a1.204 1.204 0 0 1-1.686-.454c-.373-.64-.133-1.106.26-2.212l-.306-.54c-1.133-.206-1.666-.22-2.046-.88a1.204 1.204 0 0 1 .453-1.685.964.964 0 0 1 .193-.074 4.482 4.482 0 0 1-.546-1.232 2.539 2.539 0 0 0-1.26 3.658c.04.067.094.12.14.187-.226.04-.453.113-.666.233a2.002 2.002 0 0 0-.733 2.732 1.997 1.997 0 0 0 2.732.733c.213-.12.387-.28.533-.46.033.074.053.147.093.213a2.539 2.539 0 0 0 3.506.94c1.392-.806 1.805-2.619 2.365-5.291l-1.286-.353Z"/></svg>