<svg width="14" height="17" viewBox="0 0 14 17" xmlns="http://www.w3.org/2000/svg"><path d="M9.995 4.31 6.15.466V3.06A6.76 6.76 0 0 0 .233 9.762a6.752 6.752 0 0 0 5.916 6.703v-1.707a5.07 5.07 0 0 1-4.226-4.996A5.07 5.07 0 0 1 6.15 4.767v3.305L9.995 4.31Zm3.702 4.607a6.683 6.683 0 0 0-1.37-3.288l-1.2 1.2c.457.634.744 1.353.863 2.088h1.707ZM7.84 14.749v1.707a6.698 6.698 0 0 0 3.296-1.36L9.92 13.879a4.89 4.89 0 0 1-2.08.87Zm3.288-2.045 1.2 1.191a6.683 6.683 0 0 0 1.37-3.287H11.99a4.984 4.984 0 0 1-.862 2.096Z"/></svg>