<svg width="16" height="16" viewBox="0 0 16 16" xmlns="http://www.w3.org/2000/svg"><path d="M14.222 8.288c0-1.23-.326-2.352-.978-3.367a6.064 6.064 0 0 0-2.622-2.278.99.99 0 0 1-.489-.478.842.842 0 0 1-.044-.655.878.878 0 0 1 .478-.511.826.826 0 0 1 .7 0A7.827 7.827 0 0 1 14.71 3.92C15.571 5.232 16 6.688 16 8.288s-.43 3.055-1.289 4.366a7.828 7.828 0 0 1-3.444 2.922.826.826 0 0 1-.7 0 .878.878 0 0 1-.478-.51.842.842 0 0 1 .044-.656.99.99 0 0 1 .49-.478 6.064 6.064 0 0 0 2.621-2.278 6.1 6.1 0 0 0 .978-3.366ZM3.556 10.976H.889a.86.86 0 0 1-.633-.255.86.86 0 0 1-.256-.633V6.532a.86.86 0 0 1 .256-.633.86.86 0 0 1 .633-.256h2.667L6.489 2.71c.281-.282.604-.345.967-.19.363.156.544.434.544.834v9.911c0 .4-.181.678-.544.834-.363.155-.686.092-.967-.19l-2.933-2.933ZM12 8.31c0 .622-.14 1.21-.422 1.766a3.964 3.964 0 0 1-1.111 1.367.438.438 0 0 1-.456.011.409.409 0 0 1-.233-.389V5.51a.41.41 0 0 1 .233-.39.438.438 0 0 1 .456.012c.459.37.83.837 1.11 1.4A3.92 3.92 0 0 1 12 8.31Zm-5.778-2.8-1.91 1.91H1.777V9.2H4.31l1.911 1.91v-5.6Z"/></svg>