<svg width="16" height="16" viewBox="0 0 16 16" xmlns="http://www.w3.org/2000/svg"><path d="M12.64.64C11.2.072 9.488 0 8 0 6.512 0 4.8.072 3.36.64 1.224 1.472 0 3.24 0 5.488V16h16V5.488C16 3.24 14.776 1.472 12.64.64ZM5.736 14.4l1.2-1.2h2.128l1.2 1.2H5.736ZM4.008 9.6v-4h8v4h-8Zm7.592 1.6c0 .44-.36.8-.8.8-.44 0-.8-.36-.8-.8 0-.44.36-.8.8-.8.44 0 .8.36.8.8Zm-6.4-.8c.44 0 .8.36.8.8 0 .44-.36.8-.8.8-.44 0-.8-.36-.8-.8 0-.44.36-.8.8-.8Zm9.2 4h-2.8v-.304l-.92-.928A2.383 2.383 0 0 0 12.8 10.8V5.6c0-2.104-2.4-2.4-4.8-2.4s-4.8.296-4.8 2.4v5.2c0 1.232.928 2.232 2.12 2.368l-.92.928v.304H1.6V5.488c0-1.6.808-2.76 2.344-3.36C5.128 1.664 6.656 1.6 8 1.6c1.344 0 2.872.064 4.056.528 1.536.6 2.344 1.76 2.344 3.36V14.4Z"/></svg>