<svg width="16" height="16" viewBox="0 0 16 16" xmlns="http://www.w3.org/2000/svg"><path d="M8 0C3.584 0 0 3.584 0 8s3.584 8 8 8 8-3.584 8-8-3.584-8-8-8Zm5.968 5.696-2.224.92a3.986 3.986 0 0 0-2.36-2.352l.92-2.224a6.37 6.37 0 0 1 3.664 3.656ZM8 10.4A2.397 2.397 0 0 1 5.6 8c0-1.328 1.072-2.4 2.4-2.4 1.328 0 2.4 1.072 2.4 2.4 0 1.328-1.072 2.4-2.4 2.4ZM5.704 2.032l.936 2.224a4 4 0 0 0-2.384 2.376l-2.224-.928a6.388 6.388 0 0 1 3.672-3.672Zm-3.672 8.264 2.224-.92a3.975 3.975 0 0 0 2.376 2.368l-.936 2.224a6.397 6.397 0 0 1-3.664-3.672Zm8.272 3.672-.92-2.224a3.983 3.983 0 0 0 2.36-2.376l2.224.936a6.406 6.406 0 0 1-3.664 3.664Z"/></svg>