<svg width="14" height="17" viewBox="0 0 14 17" xmlns="http://www.w3.org/2000/svg"><path d="M4.053 12.29a1.263 1.263 0 1 0 0-2.527 1.263 1.263 0 0 0 0 2.527Zm5.894 0a1.263 1.263 0 1 0 0-2.527 1.263 1.263 0 0 0 0 2.527Z"/><path d="M7 .5C3.632.5.263.921.263 3.868v8a2.95 2.95 0 0 0 2.948 2.948l-1.264 1.263v.421h1.685l1.684-1.684h3.368l1.684 1.684h1.685v-.421l-1.264-1.263a2.95 2.95 0 0 0 2.948-2.948v-8C13.737.921 10.368.5 7 .5Zm0 1.684c2.956 0 4.177.404 4.69.842H2.31c.513-.438 1.734-.842 4.69-.842ZM1.947 4.711h4.21v2.526h-4.21V4.71Zm10.106 7.157c0 .7-.565 1.264-1.264 1.264H3.212a1.261 1.261 0 0 1-1.264-1.264V8.921h10.106v2.947Zm0-4.631h-4.21V4.71h4.21v2.526Z"/></svg>