<svg width="12" height="16" viewBox="0 0 12 16" xmlns="http://www.w3.org/2000/svg"><path d="m6.8 2.4.6-1.2H10V0H2v1.2h3.8l-.6 1.2C2.696 2.472.4 2.984.4 5.2V12c0 1.2.888 2.184 2.04 2.36L1.2 15.6v.4h1.6l1.6-1.6h3.2L9.2 16h1.6v-.4l-1.24-1.24A2.394 2.394 0 0 0 11.6 12V5.2c0-2.216-2.296-2.728-4.8-2.8ZM5.224 4h1.552c2.2.064 2.896.464 3.12.8H2.104c.224-.336.92-.736 3.12-.8Zm-.144 8.76H2.592A.779.779 0 0 1 2 12v-.8h3.112a1.19 1.19 0 0 0-.312.8c0 .288.104.552.28.76ZM10 12c0 .36-.24.672-.592.76H6.92A1.17 1.17 0 0 0 7.2 12c0-.312-.12-.584-.312-.8H10v.8Zm0-2.4H2V6.4h8v3.2Z"/></svg>