<svg width="10" height="17" viewBox="0 0 10 17" xmlns="http://www.w3.org/2000/svg"><path d="M7.218 4.774c0-.604-.2-1.088-.6-1.453-.4-.365-.93-.547-1.59-.547a2.31 2.31 0 0 0-1.105.263c-.33.175-.614.431-.853.768-.224.323-.53.509-.916.558a1.2 1.2 0 0 1-1-.305.996.996 0 0 1-.326-.674 1.2 1.2 0 0 1 .2-.758 4.71 4.71 0 0 1 4-2.126C6.39.5 7.495.886 8.344 1.658c.849.772 1.274 1.782 1.274 3.031 0 .632-.134 1.2-.4 1.706-.267.505-.758 1.101-1.474 1.79-.52.49-.87.873-1.053 1.147a2.33 2.33 0 0 0-.358.936c-.056.337-.2.618-.431.842a1.152 1.152 0 0 1-.832.337c-.323 0-.6-.108-.831-.326a1.067 1.067 0 0 1-.348-.81c0-.548.12-1.05.358-1.506.239-.456.639-.937 1.2-1.442.716-.631 1.19-1.12 1.421-1.463.232-.344.348-.72.348-1.126ZM5.028 16.5c-.463 0-.86-.165-1.19-.495a1.622 1.622 0 0 1-.494-1.19c0-.462.165-.859.495-1.189a1.62 1.62 0 0 1 1.19-.494c.462 0 .859.165 1.189.494.33.33.494.727.494 1.19 0 .463-.165.86-.494 1.19-.33.33-.727.494-1.19.494Z"/></svg>