<svg width="16" height="16" viewBox="0 0 16 16" xmlns="http://www.w3.org/2000/svg"><path fill-rule="evenodd" clip-rule="evenodd" d="M8 0C3.584 0 0 3.584 0 8s3.584 8 8 8 8-3.584 8-8-3.584-8-8-8Zm0 14.4A6.408 6.408 0 0 1 1.6 8c0-3.528 2.872-6.4 6.4-6.4 3.528 0 6.4 2.872 6.4 6.4 0 3.528-2.872 6.4-6.4 6.4Z"/><path fill-rule="evenodd" clip-rule="evenodd" d="M9.192 7.504a2.783 2.783 0 0 0-.648-2.896 2.775 2.775 0 0 0-3.28-.472l1.88 1.88-1.128 1.128-1.88-1.88a2.773 2.773 0 0 0 .472 3.28c.784.784 1.92.992 2.896.648l2.728 2.728c.16.16.408.16.568 0l1.12-1.12a.396.396 0 0 0 0-.568L9.192 7.504Z"/></svg>